<svg width="752" height="748" viewBox="0 0 752 748" fill="none" xmlns="http://www.w3.org/2000/svg">
<g opacity="0.08">
<path d="M498.333 746.681C471.178 749 444.064 741.765 421.644 726.215C387.798 700.417 360.207 709.016 326.618 726.817C245.301 769.04 160.044 744.876 115.144 665.934C43.9387 540.985 16.7762 402.707 0.581544 261.763C-4.64532 216.702 26.2873 215.842 56.1918 212.144C91.1518 207.845 105.976 222.12 108.461 258.495C115.058 357.818 128.854 456.281 168.441 548.81C182.203 582.979 204.801 612.844 233.905 635.32C251.471 648.563 271.607 654.238 291.4 637.899C311.194 621.561 308.024 601.61 297.399 581.402C261.496 513.38 227.05 445.188 230.221 364.526C233.734 277.328 293.8 213.262 375.887 211.886C449.32 210.769 519.497 280.682 520.354 362.376C521.04 434.438 495.591 500.739 462.259 564.031C449.149 588.883 422.501 616.745 460.888 640.651C496.019 662.408 519.583 636.609 540.405 612.359C597.386 545.886 614.181 463.59 627.719 380.778C634.403 339.587 636.973 297.708 640.572 256.173C644.342 212.402 672.19 209.135 707.236 212.488C742.282 215.842 756.505 234.761 750.764 268.642C730.799 387.314 711.52 506.071 660.623 616.745C619.579 706.092 569.881 746.939 498.247 746.939M372.888 519.83C403.478 467.718 420.787 422.571 420.701 371.147C420.701 339.243 410.162 315.681 374.687 314.907C339.213 314.133 328.674 341.479 327.132 370.717C324.304 421.023 347.268 464.106 372.888 519.83Z" fill="#57B7C2"/>
<path d="M378.366 0.0828676C427.635 1.80274 464.052 40.156 460.796 87.4526C458.651 109.13 448.689 129.273 432.783 144.096C416.877 158.919 396.123 167.4 374.424 167.943C363.193 167.849 352.097 165.488 341.794 161.001C331.491 156.514 322.194 149.992 314.454 141.824C306.715 133.656 300.693 124.008 296.746 113.456C292.799 102.904 291.008 91.6623 291.48 80.401C292.165 28.8048 325.754 -1.809 378.366 0.0828676Z" fill="#57B7C2"/>
</g>
</svg>
