<svg width="159" height="56" viewBox="0 0 159 56" fill="none" xmlns="http://www.w3.org/2000/svg">
<path d="M55.8442 45.6469V36.4392H71.9323V14.7596L81.3712 9.42719V37.583C84.8007 37.583 87.8945 37.7449 90.9674 37.5203C92.6769 37.3949 93.3271 35.8595 93.3848 34.2613C93.4687 31.8902 93.432 29.5138 93.4792 27.1427C93.4792 26.1817 93.5998 25.2208 93.6732 24.0926H100.883C101.004 25.8684 101.119 27.5449 101.277 29.8377C102.388 28.7931 103.175 28.0253 103.946 27.2733C107.213 24.0926 110.994 21.92 115.587 21.3037C121.995 20.4367 127.648 23.68 129.924 29.6914C131.701 34.3919 132.546 40.2988 131.686 45.5006C106.589 45.5111 81.1352 45.6469 55.8442 45.6469ZM104.187 37.536H122.21C123.521 31.6917 119.268 27.5814 113.694 29.1483C109.378 30.3651 106.746 33.5406 104.187 37.536Z" fill="white"/>
<path d="M139.782 55.8622V48.7175C142.163 48.7175 144.355 48.7749 146.542 48.7175C148.996 48.6339 149.688 47.9445 149.777 45.5838C148.996 45.5316 148.204 45.4637 147.412 45.4324C146.096 45.3854 144.79 45.4324 143.469 45.3227C138.361 44.8004 135.603 42.4188 135.005 37.358C134.707 34.849 134.863 32.3069 135.467 29.8529C136.542 25.6121 139.719 23.3663 144.004 22.7814C145.635 22.5933 147.281 22.567 148.917 22.703C154.921 23.0895 158.65 26.7715 158.88 32.7933C159.059 37.6923 159.022 42.6121 158.88 47.5162C158.76 52.2167 156.358 55.2093 151.712 55.7682C147.858 56.2278 143.904 55.8622 139.782 55.8622ZM149.961 37.802C150.043 35.9971 150.027 34.1892 149.913 32.386C149.899 32.0741 149.822 31.7683 149.686 31.4868C149.55 31.2053 149.359 30.954 149.123 30.7478C148.888 30.5416 148.613 30.3848 148.316 30.2867C148.018 30.1886 147.704 30.1512 147.391 30.1768C146.285 30.2812 144.869 30.699 144.245 31.4772C143.065 32.95 143.165 34.8824 143.977 36.5798C144.691 38.0735 146.211 38.0527 147.648 38.0213C148.335 38.0056 149.048 37.8908 149.961 37.802Z" fill="white"/>
<path d="M31.2978 45.3488C29.6359 45.4896 27.9766 45.0502 26.6045 44.1058C24.5332 42.539 22.8447 43.0612 20.7891 44.1423C15.8127 46.7067 10.5951 45.2391 7.84737 40.4447C3.48975 32.856 1.82745 24.4579 0.836371 15.8978C0.516497 13.1611 2.40951 13.1089 4.23961 12.8843C6.37909 12.6231 7.28628 13.4901 7.43835 15.6993C7.84212 21.7316 8.68638 27.7116 11.109 33.3313C11.9512 35.4065 13.3342 37.2203 15.1153 38.5854C16.1903 39.3897 17.4226 39.7344 18.6339 38.742C19.8452 37.7497 19.6512 36.5381 19.001 35.3107C16.8038 31.1795 14.6958 27.0379 14.8898 22.139C15.1048 16.8431 18.7807 12.9522 23.8043 12.8686C28.2983 12.8007 32.593 17.0468 32.6454 22.0084C32.6874 26.3851 31.13 30.4118 29.0901 34.2557C28.2878 35.7651 26.657 37.4573 29.0062 38.9092C31.1562 40.2305 32.5982 38.6637 33.8725 37.1909C37.3596 33.1537 38.3874 28.1555 39.2159 23.1261C39.625 20.6244 39.7823 18.0809 40.0025 15.5583C40.2332 12.8999 41.9375 12.7015 44.0822 12.9052C46.227 13.1089 47.0974 14.2579 46.7461 16.3156C45.5243 23.523 44.3444 30.7356 41.2296 37.4572C38.7178 42.8837 35.6764 45.3645 31.2925 45.3645M23.6208 31.5712C25.4928 28.4063 26.5521 25.6643 26.5469 22.5411C26.5469 20.6035 25.9019 19.1725 23.7309 19.1255C21.56 19.0784 20.915 20.7393 20.8206 22.515C20.6475 25.5703 22.0529 28.1869 23.6208 31.5712Z" fill="white"/>
<path d="M23.956 0.00503287C26.9713 0.109488 29.1999 2.43883 29.0006 5.31134C28.8693 6.62787 28.2597 7.85128 27.2863 8.75152C26.3129 9.65177 25.0428 10.1668 23.7148 10.1998C23.0275 10.1941 22.3484 10.0507 21.7179 9.77822C21.0874 9.5057 20.5184 9.10961 20.0448 8.61353C19.5712 8.11745 19.2026 7.53152 18.9611 6.89064C18.7195 6.24976 18.6099 5.56701 18.6388 4.88307C18.6807 1.74943 20.7363 -0.109867 23.956 0.00503287Z" fill="white"/>
<path d="M64.2554 36.4391H61.1091C61.2556 36.6876 61.3318 36.9709 61.3294 37.2591C61.3294 37.694 61.1559 38.1112 60.8471 38.4187C60.5383 38.7262 60.1195 38.899 59.6828 38.899C59.2461 38.899 58.8273 38.7262 58.5185 38.4187C58.2097 38.1112 58.0362 37.694 58.0362 37.2591C58.0338 36.9709 58.1099 36.6876 58.2565 36.4391H55.1102V40.2099L54.8585 39.9958C54.6637 39.8288 54.4249 39.721 54.1705 39.6851C53.916 39.6493 53.6566 39.687 53.423 39.7937C53.1894 39.9004 52.9915 40.0716 52.8527 40.287C52.7139 40.5025 52.6401 40.753 52.6401 41.009C52.6401 41.265 52.7139 41.5155 52.8527 41.731C52.9915 41.9464 53.1894 42.1176 53.423 42.2243C53.6566 42.331 53.916 42.3687 54.1705 42.3329C54.4249 42.2971 54.6637 42.1892 54.8585 42.0222L55.1102 41.8081V45.6625H58.2879C58.1406 45.3892 58.0614 45.0847 58.0572 44.7746C58.0572 44.3397 58.2307 43.9225 58.5394 43.615C58.8482 43.3074 59.2671 43.1347 59.7038 43.1347C60.1404 43.1347 60.5593 43.3074 60.8681 43.615C61.1768 43.9225 61.3503 44.3397 61.3503 44.7746C61.3527 45.0627 61.2766 45.3461 61.1301 45.5946H64.2764L64.2554 36.4391Z" fill="white"/>
<path d="M48.4609 38.7632C48.8898 38.7674 49.3028 38.6021 49.6095 38.3035C49.9161 38.0049 50.0914 37.5974 50.097 37.1703C50.0969 36.8891 50.0208 36.6131 49.8767 36.3712H47.0503C46.9062 36.6131 46.8302 36.8891 46.8301 37.1703C46.8356 37.5965 47.0102 38.0032 47.3157 38.3017C47.6213 38.6001 48.033 38.766 48.4609 38.7632Z" fill="white"/>
<path d="M53.2324 39.6453V36.3549H53.1694V39.5983L53.2324 39.6453Z" fill="white"/>
<path d="M50.6789 41.0241C50.681 40.808 50.7258 40.5945 50.8107 40.3957C50.8956 40.1969 51.019 40.0167 51.1738 39.8653C51.3287 39.714 51.512 39.5946 51.7132 39.5138C51.9144 39.433 52.1296 39.3925 52.3465 39.3946C52.6353 39.3962 52.9188 39.4717 53.1697 39.6139V36.3549H49.9448C50.0958 36.6077 50.1755 36.8964 50.1755 37.1906C50.1513 37.6265 49.9604 38.0367 49.6419 38.3367C49.3235 38.6368 48.9018 38.804 48.4634 38.804C48.0251 38.804 47.6033 38.6368 47.2849 38.3367C46.9665 38.0367 46.7755 37.6265 46.7513 37.1906C46.7513 36.8964 46.831 36.6077 46.982 36.3549H44.5122V36.8772C44.701 40.8465 48.3926 44.3301 52.8709 45.6305H53.1697V42.4238C52.9174 42.5621 52.6345 42.6357 52.3465 42.6379C51.9111 42.6421 51.4916 42.4749 51.1793 42.1727C50.8671 41.8705 50.6872 41.4577 50.6789 41.0241Z" fill="white"/>
</svg>
