<svg width="40" height="40" viewBox="0 0 40 40" fill="none" xmlns="http://www.w3.org/2000/svg">
<path fill-rule="evenodd" clip-rule="evenodd" d="M15.4499 10.9083H24.5499C27.0565 10.9083 29.0899 12.94 29.0899 15.45V24.55C29.0899 27.0567 27.0582 29.09 24.5482 29.09H15.4499C12.9415 29.09 10.9082 27.0583 10.9082 24.5483V15.45C10.9082 12.9417 12.9415 10.9083 15.4499 10.9083Z" stroke="white" stroke-width="1.5" stroke-linecap="round" stroke-linejoin="round"/>
<path d="M24.9998 14.9167C24.9532 14.9167 24.9165 14.955 24.9165 15C24.9165 15.045 24.9532 15.0833 24.9998 15.0833C25.0465 15.0833 25.0832 15.0467 25.0832 15C25.0832 14.955 25.0448 14.9167 24.9998 14.9167" stroke="white" stroke-width="1.5" stroke-linecap="round" stroke-linejoin="round"/>
<path d="M22.3566 17.6433C23.6582 18.945 23.6582 21.055 22.3566 22.3567C21.0549 23.6583 18.9449 23.6583 17.6432 22.3567C16.3416 21.055 16.3416 18.945 17.6432 17.6433C18.9449 16.3417 21.0549 16.3417 22.3566 17.6433" stroke="white" stroke-width="1.5" stroke-linecap="round" stroke-linejoin="round"/>
<path fill-rule="evenodd" clip-rule="evenodd" d="M12.5 5H27.5067C31.645 5 35 8.355 35 12.4933V27.5083C35 31.645 31.645 35 27.5067 35H12.4933C8.355 35 5 31.645 5 27.5067V12.5C5 8.35833 8.35833 5 12.5 5V5Z" stroke="white" stroke-width="1.5" stroke-linecap="round" stroke-linejoin="round"/>
</svg>
