<svg width="1516" height="957" viewBox="0 0 1516 957" fill="none" xmlns="http://www.w3.org/2000/svg">
<path fill-rule="evenodd" clip-rule="evenodd" d="M6.54326 512.136V957H1512.81L1512.81 462.516C1484.15 453.502 1449.8 451.689 1418.15 436.432C1353.1 422.238 1299.21 389.187 1292.1 384.819C1284.99 380.452 1241.89 319 1241.89 319L1220.97 347.081C1220.97 347.081 1167.1 460 1040.53 525.392C932.344 604.085 801.003 621.554 717.837 632.5C634.671 643.446 536.047 674.016 365.116 632.5C194.184 590.984 97.0398 560.497 51.5705 525.392C28.3137 507.503 14.5767 520.87 6.54326 512.136Z" fill="#171E46"/>
<path fill-rule="evenodd" clip-rule="evenodd" d="M1242.08 326.228L1241.6 326.823L1241.06 327.495C1240.84 327.764 1240.59 328.051 1240.31 328.359C1239.25 329.626 1237.8 331.296 1236.3 332.967C1234.79 334.637 1233.42 336.346 1232.28 337.594L1230.97 339.13L1230.47 339.687C1232.45 340.446 1234.51 340.987 1236.62 341.3C1238.87 341.665 1241.01 342.505 1242.88 343.757C1245.36 345.579 1247.14 348.13 1247.94 351.015C1248.24 352.279 1248.24 353.59 1247.94 354.855C1247.67 356.076 1247.07 357.212 1246.22 358.157C1245.31 359.103 1244.18 359.838 1242.93 360.307C1241.68 360.776 1240.33 360.966 1238.99 360.864C1235.84 360.673 1232.86 359.492 1230.49 357.504C1227.2 354.836 1226.23 349.997 1223.7 347.079L1221.94 348.999L1220.11 350.919L1217.94 353.184L1212.04 359.328C1211.01 360.403 1210.03 361.248 1209.24 362.093C1208.46 362.938 1207.68 363.514 1207.09 364.109C1205.89 365.28 1205.25 366.164 1205.29 367.162C1205.29 369.082 1186.59 379.987 1193.24 385.843L1215.83 405.812C1214.71 407.136 1212.22 407.232 1209.65 407.348C1208.38 407.369 1207.12 407.491 1205.87 407.712C1205.3 407.815 1204.75 407.982 1204.22 408.212C1203.72 408.41 1203.27 408.697 1202.88 409.056C1200.87 410.976 1200.49 415.219 1201.41 418.368C1202.61 421.375 1204.57 424.053 1207.11 426.166C1209.65 428.279 1212.69 429.762 1215.97 430.483C1217.39 430.756 1218.85 430.708 1220.25 430.345C1221.64 429.981 1222.93 429.312 1224 428.391C1224.37 428.037 1224.68 427.628 1224.91 427.181C1225.13 426.685 1225.31 426.171 1225.43 425.645C1225.66 424.491 1225.8 423.323 1225.85 422.151C1226.05 419.77 1226.21 417.485 1227.68 416.391C1232 420.749 1247.76 438.144 1253.31 437.088C1254.55 436.839 1261.2 431.002 1262.69 429.408L1263.89 428.122L1265.22 426.605C1266.16 425.53 1267.22 424.301 1268.55 422.976L1274.58 416.679L1276.78 414.356L1278.67 412.282L1280.5 410.266C1276.48 407.904 1270.3 407.866 1266.44 404.698C1263.73 402.569 1261.79 399.682 1260.88 396.442C1260.48 395.134 1260.41 393.753 1260.69 392.416C1260.96 391.079 1261.57 389.825 1262.47 388.762C1263.39 387.749 1264.59 386.988 1265.92 386.554C1267.35 386.095 1268.85 385.899 1270.36 385.978C1273.89 386.213 1277.27 387.487 1280.02 389.626C1282.03 391.309 1283.58 393.429 1284.56 395.808C1285.12 396.96 1285.62 398.093 1286.18 399.168C1286.68 400.188 1287.32 401.143 1288.07 402.01L1288.61 401.415L1289.98 399.821C1291.1 398.515 1302.41 386.381 1303.9 384.692L1309.92 377.683C1318.62 366.931 1321.97 368.352 1307.57 358.119C1302.25 354.279 1296.99 350.65 1291.71 346.983C1291.82 346.486 1292.04 346.019 1292.37 345.62C1292.7 345.22 1293.12 344.898 1293.59 344.679C1294.72 344.123 1295.91 343.704 1297.15 343.431C1299.8 342.739 1302.73 342.125 1304.08 340.359C1304.89 339.281 1305.37 338.013 1305.48 336.692C1305.61 335.288 1305.39 333.876 1304.86 332.563C1303.54 329.451 1301.23 326.817 1298.25 325.037C1295.33 323.143 1291.88 322.121 1288.35 322.1C1286.88 322.111 1285.42 322.385 1284.05 322.906C1282.82 323.406 1281.74 324.215 1280.94 325.248C1279.56 327.072 1280.12 329.856 1280.52 332.429C1280.76 333.612 1280.83 334.819 1280.74 336.02C1280.71 336.507 1280.54 336.978 1280.26 337.383C1279.97 337.788 1279.58 338.113 1279.11 338.323C1272.75 333.984 1266.32 329.683 1259.75 325.306C1246.76 316.627 1248.49 318.26 1242.08 326.228Z" fill="#CF4745"/>
<path fill-rule="evenodd" clip-rule="evenodd" d="M1280.28 272.468L1276.26 279.207C1275.66 280.167 1275.14 281.127 1274.64 281.856C1274.13 282.586 1273.61 283.392 1273.17 284.064C1271.34 286.81 1270.08 288.749 1268.81 290.669L1267.85 292.128C1267.69 292.378 1267.53 292.628 1267.35 292.877L1266.8 293.645L1264.29 297.178L1260.96 301.901C1260.3 302.823 1259.61 303.821 1258.81 304.896L1256.2 308.352C1252.66 312.98 1250.35 314.861 1250.7 316.8C1251.04 318.74 1254.11 320.832 1261.46 325.863L1279.54 338.285C1279.98 338.051 1280.35 337.71 1280.62 337.296C1280.88 336.882 1281.03 336.409 1281.04 335.924C1281.11 334.735 1281.03 333.542 1280.8 332.372C1280.42 329.818 1279.88 327.072 1281.24 325.268C1282.04 324.235 1283.12 323.426 1284.36 322.925C1285.72 322.404 1287.18 322.13 1288.65 322.119C1292.19 322.14 1295.63 323.163 1298.56 325.056C1301.53 326.836 1303.85 329.471 1305.16 332.583C1305.7 333.896 1305.91 335.307 1305.79 336.711C1305.67 338.033 1305.19 339.3 1304.38 340.378C1303.05 342.125 1300.18 342.74 1297.55 343.431C1296.32 343.695 1295.13 344.102 1294 344.64C1293.51 344.847 1293.08 345.151 1292.74 345.532C1292.39 345.914 1292.13 346.363 1291.99 346.848L1307.17 357.255C1314.96 362.612 1318.22 364.628 1320.69 363.86C1323.16 363.092 1324.7 359.405 1329.22 353.434L1330.71 351.514L1331.39 350.592L1332.05 349.671C1332.9 348.48 1333.66 347.386 1334.38 346.388L1338.04 341.242C1339.06 339.783 1339.93 338.554 1340.73 337.402C1341.53 336.25 1342.18 335.213 1342.86 334.196C1344.25 332.122 1345.61 330.029 1347.6 327.015L1349.23 324.557L1350.13 323.175L1351.07 321.639L1355.75 313.959C1356.66 312.48 1357.5 311.175 1358.26 310.119C1359.03 309.063 1359.65 307.968 1360.27 307.104C1361.2 305.878 1361.74 304.415 1361.8 302.9C1361.56 300.596 1358.46 298.829 1350.51 294.797C1344.53 291.789 1338.58 288.839 1332.66 285.946C1331.83 287.463 1332.36 289.671 1332.84 291.956C1333.1 293.062 1333.28 294.185 1333.38 295.316C1333.41 295.836 1333.38 296.358 1333.28 296.871C1333.2 297.351 1333.03 297.813 1332.78 298.234C1331.99 299.409 1330.92 300.39 1329.66 301.097C1328.4 301.805 1326.99 302.218 1325.53 302.304C1322.02 302.56 1318.52 301.783 1315.49 300.077C1312.41 298.477 1309.9 296.029 1308.3 293.05C1307.62 291.903 1307.25 290.613 1307.22 289.297C1307.19 287.98 1307.51 286.677 1308.14 285.504C1308.41 285.082 1308.76 284.705 1309.16 284.391C1309.58 284.055 1310.04 283.765 1310.53 283.527C1311.61 283.027 1312.73 282.61 1313.88 282.279C1316.25 281.568 1318.58 280.896 1319.46 279.514C1312.37 276.096 1305.2 272.717 1297.89 269.319C1290.58 265.92 1287.49 264.615 1285.56 265.191C1284.51 265.634 1283.68 266.455 1283.25 267.476C1282.35 268.628 1281.56 270.375 1280.28 272.468Z" fill="#6CA3AE"/>
<path fill-rule="evenodd" clip-rule="evenodd" d="M1304.92 216.96C1304.92 216.96 1304.7 217.882 1304.26 219.264C1304.06 219.955 1303.82 220.762 1303.58 221.626C1303.44 222.067 1303.32 222.509 1303.17 222.97C1303.03 223.431 1302.87 223.891 1302.73 224.333C1302.11 226.253 1301.57 228.039 1301.05 229.402C1300.52 230.765 1300.22 231.687 1300.22 231.687C1302.33 231.798 1304.44 231.695 1306.53 231.379C1308.78 231.032 1311.09 231.136 1313.3 231.687C1316.29 232.503 1318.93 234.22 1320.83 236.583C1321.61 237.591 1322.16 238.751 1322.43 239.981C1322.67 241.157 1322.56 242.371 1322.13 243.495C1321.68 244.61 1320.93 245.594 1319.96 246.355C1318.91 247.141 1317.69 247.71 1316.39 248.026C1313.33 248.714 1310.13 248.466 1307.23 247.315C1305.24 246.434 1303.44 245.203 1301.93 243.687C1300.46 242.246 1298.83 240.958 1297.07 239.847C1297.07 239.847 1296.69 240.711 1296.15 241.997C1295.86 242.65 1295.58 243.418 1295.2 244.205C1294.82 244.992 1294.44 245.875 1294.06 246.739C1293.68 247.603 1293.29 248.448 1292.91 249.255L1291.83 251.424C1291.22 252.711 1290.8 253.555 1290.8 253.555C1289.6 255.917 1288.49 257.587 1287.81 258.912C1287.5 259.475 1287.24 260.067 1287.05 260.679C1286.9 261.161 1286.9 261.675 1287.05 262.157C1287.73 263.981 1291.06 265.594 1299.24 269.491L1319.32 279.226C1318.64 280.781 1316.27 281.491 1313.84 282.24C1312.63 282.566 1311.46 282.99 1310.32 283.507C1309.82 283.75 1309.34 284.046 1308.9 284.391C1308.48 284.712 1308.12 285.102 1307.83 285.543C1307.2 286.709 1306.88 288.008 1306.91 289.323C1306.93 290.637 1307.3 291.925 1307.97 293.069C1309.59 296.05 1312.1 298.503 1315.18 300.115C1318.21 301.825 1321.72 302.602 1325.23 302.343C1326.69 302.261 1328.1 301.849 1329.36 301.142C1330.62 300.434 1331.69 299.451 1332.48 298.272C1332.75 297.836 1332.92 297.353 1333 296.851C1333.06 296.315 1333.06 295.775 1333 295.239C1332.89 294.056 1332.69 292.882 1332.42 291.725C1331.91 289.383 1331.43 287.117 1332.42 285.658L1349.85 293.799C1358.44 297.946 1361.9 299.463 1364.31 298.291C1365.72 297.355 1366.79 296.009 1367.34 294.451C1367.84 293.434 1368.39 292.224 1369.05 290.842L1369.93 288.576C1370.29 287.789 1370.7 286.944 1371.14 286.061L1372.4 283.45C1373.19 281.914 1374.11 279.783 1375.07 277.69C1375.56 276.634 1376.04 275.578 1376.48 274.579L1377.64 271.853L1378.77 269.184C1376.23 268.857 1373.66 268.857 1371.12 269.184C1368.51 269.509 1365.87 269.28 1363.37 268.512C1360.07 267.295 1357.25 265.111 1355.33 262.272C1354.53 261.063 1354 259.711 1353.77 258.298C1353.53 256.951 1353.66 255.569 1354.15 254.285C1354.67 253.008 1355.51 251.874 1356.6 250.983C1357.77 250.022 1359.14 249.297 1360.61 248.851C1364.03 247.813 1367.7 247.813 1371.12 248.851C1373.63 249.78 1375.86 251.298 1377.6 253.267C1379.22 255.116 1381.09 256.745 1383.17 258.106C1383.17 258.106 1383.57 256.935 1384.19 255.207C1384.49 254.323 1384.87 253.287 1385.24 252.231L1386.36 248.775C1386.74 247.603 1387.12 246.432 1387.47 245.338C1387.81 244.243 1388.11 243.187 1388.37 242.285C1388.89 240.519 1389.23 239.328 1389.23 239.328C1389.76 237.562 1390.2 235.987 1390.64 234.605C1391.08 233.223 1391.44 232.032 1391.74 230.995C1392.31 229.481 1392.43 227.846 1392.08 226.272C1391.22 223.987 1387.73 223.066 1378.89 221.242C1372.34 219.898 1365.9 218.631 1359.45 217.402C1358.81 215.29 1360.63 213.562 1362.76 211.853C1364.89 210.144 1367.18 208.263 1367.54 206.093C1367.7 204.693 1367.49 203.279 1366.94 201.973C1366.39 200.668 1365.52 199.511 1364.39 198.605C1361.7 196.363 1358.33 195.015 1354.77 194.765C1351.26 194.402 1347.71 195.001 1344.55 196.493C1343.3 197.003 1342.2 197.792 1341.33 198.795C1340.47 199.797 1339.87 200.983 1339.59 202.253C1339.22 204.384 1341.07 206.573 1342.66 208.704C1344.25 210.835 1345.47 212.871 1344.11 214.464C1336.37 213.043 1328.6 211.661 1320.67 210.298C1312.73 208.935 1309.26 208.378 1307.61 209.357C1307.19 209.65 1306.83 210.026 1306.57 210.459C1306.31 210.893 1306.14 211.374 1306.09 211.872L1305.6 214.061C1305.4 214.867 1305.2 215.885 1304.92 216.96Z" fill="#E8AD30"/>
<path fill-rule="evenodd" clip-rule="evenodd" d="M1309.94 161.3C1310.08 162.567 1310.16 163.757 1310.26 164.852C1310.36 165.946 1310.42 166.964 1310.48 167.904C1310.55 168.845 1310.48 169.709 1310.63 170.496C1310.77 171.284 1310.63 172.052 1310.63 172.743C1310.63 173.434 1310.63 174.068 1310.63 174.663C1310.63 175.258 1310.63 175.834 1310.63 176.391C1310.63 177.466 1310.63 178.445 1310.63 179.424C1310.63 180.404 1310.63 181.344 1310.48 182.458C1310.48 182.996 1310.48 183.572 1310.48 184.167C1310.48 184.762 1310.48 185.434 1310.32 186.087C1310.16 186.74 1310.32 187.527 1310.16 188.352C1310 189.178 1309.98 190.042 1309.88 191.002C1309.88 191.482 1309.88 191.981 1309.72 192.5C1309.56 193.018 1309.72 193.037 1309.72 193.306L1309.6 194.132C1309.44 195.264 1309.28 196.493 1309.1 197.818C1308.92 199.143 1308.66 200.122 1308.46 201.044C1308.26 201.965 1308.07 202.791 1307.93 203.463C1307.74 203.963 1307.68 204.498 1307.74 205.027C1307.79 205.556 1307.98 206.065 1308.28 206.516C1309.54 207.994 1313.28 208.666 1322.33 210.356L1344.43 214.445C1345.67 212.832 1344.43 210.816 1342.86 208.685C1341.29 206.554 1339.49 204.423 1339.85 202.311C1340.12 201.038 1340.72 199.848 1341.58 198.845C1342.45 197.841 1343.55 197.054 1344.81 196.551C1347.97 195.058 1351.52 194.458 1355.03 194.823C1358.59 195.077 1361.96 196.424 1364.65 198.663C1365.77 199.567 1366.65 200.721 1367.2 202.023C1367.75 203.324 1367.96 204.735 1367.8 206.132C1367.42 208.34 1365.13 210.164 1363.08 211.892C1361.04 213.62 1359.07 215.271 1359.65 217.325L1378.13 220.762C1387.63 222.528 1391.48 223.085 1393.37 221.184C1394.42 219.785 1395.04 218.126 1395.14 216.404C1395.3 215.252 1395.46 213.908 1395.64 212.352C1395.82 210.797 1396.08 209.05 1396.34 207.053C1396.6 205.056 1396.84 203.54 1397 201.965C1397.17 200.391 1397.35 198.951 1397.49 197.626C1397.49 196.973 1397.61 196.34 1397.69 195.706C1397.77 195.072 1397.69 194.496 1397.83 193.94C1397.83 192.807 1397.99 191.77 1398.05 190.791C1398.11 189.812 1398.19 188.871 1398.25 188.103C1398.31 187.335 1398.25 186.471 1398.35 185.741C1398.35 184.244 1398.47 182.9 1398.53 181.536C1398.59 180.173 1398.53 178.829 1398.53 177.312C1398.53 176.564 1398.53 175.757 1398.53 174.912C1398.53 174.068 1398.53 173.146 1398.53 172.148C1398.53 171.149 1398.53 170.093 1398.53 168.941C1398.53 168.365 1398.53 167.751 1398.53 167.021C1398.53 166.292 1398.53 165.735 1398.43 165.101C1398.35 163.719 1398.27 162.221 1398.19 160.608C1398.03 158.976 1397.89 157.21 1397.71 155.29C1397.53 153.37 1397.39 151.661 1397.27 150.164C1397.15 148.666 1397.07 147.341 1396.9 146.208C1396.85 144.516 1396.33 142.866 1395.4 141.428C1394.82 140.889 1394.12 140.483 1393.35 140.24C1392.58 139.997 1391.76 139.924 1390.96 140.026C1387.66 140.158 1384.37 140.505 1381.12 141.063C1374.37 142.004 1367.74 142.983 1361.04 144.039C1361.14 144.487 1361.33 144.915 1361.58 145.306C1361.85 145.736 1362.15 146.141 1362.5 146.516C1363.22 147.322 1364.15 148.109 1365.05 148.935C1366.95 150.254 1368.32 152.159 1368.93 154.33C1369.04 155.011 1369.04 155.704 1368.93 156.384C1368.8 157.047 1368.58 157.692 1368.29 158.304C1367.65 159.616 1366.72 160.777 1365.55 161.703C1364.27 162.741 1362.8 163.548 1361.22 164.084C1359.47 164.702 1357.63 165.058 1355.77 165.14C1353.92 165.241 1352.06 165.092 1350.25 164.698C1348.63 164.361 1347.08 163.798 1345.63 163.028C1344.37 162.381 1343.26 161.499 1342.36 160.436C1341.58 159.48 1341.08 158.349 1340.89 157.152C1340.67 155.232 1342.18 153.428 1343.6 151.584C1345.03 149.741 1346.58 147.936 1346.31 146.362C1338.46 147.668 1330.57 149.012 1322.54 150.413C1314.5 151.815 1311.21 152.487 1310 153.812C1308.8 155.136 1309.48 157.268 1309.94 161.3Z" fill="#CF4745"/>
<path fill-rule="evenodd" clip-rule="evenodd" d="M1292.77 114.01L1293.9 115.623C1294.26 116.084 1294.62 116.698 1295.02 117.312C1295.42 117.927 1295.42 117.965 1295.64 118.292C1295.86 118.618 1296.09 118.944 1296.29 119.29C1296.69 120 1297.09 120.692 1297.47 121.325C1297.85 121.959 1298.17 122.612 1298.48 123.149L1299.44 124.935C1301.06 123.749 1302.53 122.397 1303.84 120.903C1305.28 119.274 1307.03 117.909 1308.98 116.871C1311.7 115.452 1314.81 114.85 1317.9 115.143C1319.12 115.234 1320.3 115.624 1321.33 116.276C1322.35 116.929 1323.18 117.821 1323.74 118.868C1324.19 119.904 1324.33 121.042 1324.14 122.151C1324.05 122.725 1323.88 123.286 1323.64 123.821C1323.37 124.394 1323.04 124.94 1322.66 125.453C1320.76 127.787 1318.17 129.515 1315.23 130.407C1313.12 130.983 1310.93 131.236 1308.74 131.156C1306.64 131.087 1304.54 131.229 1302.47 131.578L1303.2 133.498L1303.54 134.381C1303.68 134.708 1303.8 135.034 1303.92 135.399C1304.18 136.109 1304.44 136.858 1304.7 137.607C1304.96 138.356 1305.2 139.143 1305.42 139.872C1305.65 140.602 1305.87 141.255 1306.05 141.792C1306.23 142.33 1306.35 142.868 1306.45 143.213C1306.55 143.559 1306.59 143.751 1306.59 143.751C1307.21 145.92 1307.37 147.591 1307.67 148.896C1307.67 149.204 1307.83 149.492 1307.91 149.76C1307.98 149.999 1308.08 150.231 1308.2 150.452C1308.41 150.847 1308.73 151.175 1309.14 151.392C1310.85 152.237 1314.6 151.623 1323.6 150.164L1345.97 146.535C1346.08 146.944 1346.08 147.373 1345.97 147.783C1345.87 148.25 1345.69 148.697 1345.43 149.108C1344.84 150.082 1344.16 151.013 1343.42 151.892C1341.96 153.812 1340.29 155.732 1340.55 157.652C1340.71 158.856 1341.21 159.997 1342 160.954C1342.9 162.012 1344.01 162.892 1345.27 163.546C1348.34 165.142 1351.82 165.88 1355.31 165.677C1358.88 165.585 1362.32 164.385 1365.11 162.26C1366.3 161.342 1367.26 160.18 1367.92 158.861C1368.56 157.609 1368.8 156.21 1368.63 154.829C1368.45 153.746 1367.96 152.73 1367.22 151.892C1366.84 151.416 1366.42 150.967 1365.98 150.548C1365.53 150.106 1365.05 149.684 1364.57 149.261C1363.65 148.477 1362.79 147.636 1361.98 146.746C1361.64 146.356 1361.35 145.931 1361.12 145.479C1360.9 145.065 1360.76 144.616 1360.71 144.154L1379.55 141.101C1389.09 139.565 1392.89 138.778 1393.89 136.263C1394.16 135.543 1394.25 134.776 1394.17 134.016C1394.06 132.968 1393.86 131.928 1393.59 130.906C1393.27 129.716 1392.89 128.333 1392.43 126.74C1391.96 125.146 1391.38 123.341 1390.82 121.268C1390.82 121.268 1390.82 120.96 1390.58 120.423C1390.34 119.885 1390.18 119.156 1389.9 118.234C1389.61 117.312 1389.29 116.314 1388.93 115.143C1388.93 114.855 1388.75 114.567 1388.67 114.279C1388.59 113.991 1388.47 113.684 1388.35 113.396C1388.15 112.8 1387.95 112.205 1387.73 111.591C1387.31 110.4 1386.88 109.191 1386.48 108.077C1386.08 106.964 1385.64 105.908 1385.28 105.005C1384.57 103.2 1384.09 102.01 1384.09 102.01C1382 103.432 1380.12 105.125 1378.51 107.04C1376.85 109.008 1374.72 110.552 1372.28 111.533C1368.87 112.677 1365.17 112.744 1361.72 111.725C1360.96 111.494 1360.23 111.198 1359.53 110.842C1358.82 110.507 1358.14 110.101 1357.52 109.632C1356.35 108.748 1355.44 107.6 1354.85 106.292C1354.27 104.955 1354 103.512 1354.07 102.065C1354.13 100.619 1354.53 99.2034 1355.23 97.9203C1356.8 94.8399 1359.39 92.3423 1362.6 90.8163C1365.13 89.7781 1367.91 89.426 1370.64 89.7987C1373.21 90.1227 1375.82 90.1227 1378.39 89.7987L1377.95 88.9539L1376.76 86.7267C1376.26 85.8051 1375.7 84.8067 1375.05 83.5779C1374.41 82.3491 1373.69 81.2355 1373.05 80.0259C1372.7 79.4307 1372.34 78.8355 1371.98 78.2403L1370.9 76.5123C1370.17 75.3987 1369.49 74.3619 1368.89 73.4595C1368.29 72.5571 1367.8 71.8467 1367.44 71.3283C1367.08 70.8099 1366.88 70.5219 1366.88 70.5219C1362 63.5523 1359.67 59.5587 1357.06 58.4835C1354.45 57.4083 1351.42 59.3283 1344.31 64.5507C1339.04 68.3907 1333.9 72.2307 1328.8 76.0707C1328.31 75.8438 1327.87 75.5165 1327.53 75.1119C1327.18 74.7073 1326.93 74.2351 1326.79 73.7283C1326.61 73.1571 1326.47 72.573 1326.37 71.9811C1326.37 71.3667 1326.19 70.7139 1326.13 70.0611C1326.03 68.7077 1325.84 67.3614 1325.57 66.0291C1325.32 64.8028 1324.7 63.6707 1323.8 62.7651C1323.26 62.2535 1322.64 61.8144 1321.97 61.4595C1321.3 61.1215 1320.58 60.8575 1319.84 60.6723C1318.32 60.3072 1316.73 60.2679 1315.19 60.5571C1311.7 61.2837 1308.57 63.1259 1306.33 65.7795C1304.07 68.2706 1302.6 71.318 1302.07 74.5731C1301.84 75.8873 1301.89 77.2321 1302.21 78.5283C1302.36 79.0935 1302.59 79.6362 1302.89 80.1411C1303.19 80.6557 1303.56 81.1276 1304 81.5427C1304.89 82.2469 1306 82.6576 1307.15 82.7139C1308.48 82.8678 1309.83 82.9512 1311.17 82.9635C1311.85 82.9635 1312.53 82.9635 1313.18 83.0787C1313.75 83.1419 1314.32 83.2642 1314.86 83.4435C1315.35 83.5625 1315.79 83.8034 1316.14 84.1411C1316.5 84.4788 1316.75 84.901 1316.87 85.3635C1310.85 90.0483 1304.82 94.7907 1298.6 99.6291C1292.37 104.468 1289.82 106.637 1289.36 108.231C1289.26 108.639 1289.28 109.063 1289.41 109.463C1289.53 109.864 1289.77 110.226 1290.08 110.516C1290.4 110.919 1290.78 111.399 1291.25 111.936C1291.8 112.596 1292.31 113.289 1292.77 114.01Z" fill="#2A375F"/>
<path fill-rule="evenodd" clip-rule="evenodd" d="M1255.7 86.5922C1256.82 86.9186 1257.71 87.341 1258.67 87.6674C1259.13 87.8402 1259.57 87.9746 1259.97 88.1474L1261.14 88.6658L1262.22 89.1074L1263.21 89.549L1264.94 90.3746L1265.7 90.7395L1266.4 91.1234L1267.67 91.7954C1268.07 92.0066 1268.47 92.1986 1268.83 92.4098L1269.88 93.0434C1270.58 93.4658 1271.32 93.8499 1272.05 94.3683L1273.25 95.1362C1273.67 95.405 1274.11 95.693 1274.58 96.0386C1275.5 96.7106 1276.58 97.4402 1277.85 98.4386C1278.47 98.9378 1279.15 99.437 1279.86 100.051L1280.98 100.992L1281.56 101.587L1282.15 102.144C1282.53 102.49 1282.87 102.816 1283.17 103.143C1283.48 103.424 1283.77 103.725 1284.04 104.045C1284.56 104.621 1284.98 105.139 1285.38 105.523C1285.56 105.713 1285.76 105.892 1285.96 106.061C1286.14 106.212 1286.33 106.347 1286.53 106.464C1286.89 106.666 1287.31 106.753 1287.73 106.714C1289.58 106.541 1292.51 104.275 1299.54 98.8419L1316.87 85.4019C1316.73 84.9579 1316.47 84.5566 1316.12 84.237C1315.77 83.9173 1315.33 83.6903 1314.86 83.5778C1314.32 83.3961 1313.75 83.28 1313.18 83.2322C1312.55 83.2322 1311.89 83.1362 1311.17 83.117C1309.83 83.1068 1308.48 83.0235 1307.15 82.8674C1306.01 82.8071 1304.92 82.3964 1304.04 81.6962C1303.6 81.2811 1303.23 80.8093 1302.93 80.2946C1302.63 79.7897 1302.4 79.247 1302.25 78.6819C1301.93 77.3856 1301.88 76.0408 1302.11 74.7266C1302.64 71.4715 1304.11 68.4241 1306.37 65.933C1308.61 63.2794 1311.74 61.4372 1315.22 60.7106C1316.77 60.4214 1318.36 60.4607 1319.88 60.8258C1320.62 61.011 1321.34 61.275 1322.01 61.613C1322.68 61.9679 1323.3 62.407 1323.84 62.9186C1324.72 63.8148 1325.33 64.923 1325.61 66.125C1325.88 67.4446 1326.06 68.7781 1326.17 70.1186C1326.47 72.749 1326.67 75.2258 1328.78 76.1858L1343.3 64.9922C1350.77 59.2322 1353.64 56.7746 1353.04 53.9906C1352.83 53.192 1352.46 52.4414 1351.94 51.7826C1351.21 50.8724 1350.42 50.0127 1349.57 49.2098L1347.94 47.6738L1347.02 46.8098L1346.01 45.9266L1343.82 43.9874L1342.6 42.893C1342.2 42.509 1341.76 42.125 1341.29 41.741C1339.63 40.3202 1338.08 38.9954 1336.65 37.901L1332.64 34.7138C1331.39 33.7154 1330.19 32.7938 1329.08 32.0834L1326.03 29.933C1324.02 28.6274 1322.46 27.5714 1320.95 26.6114L1319.86 25.901L1318.78 25.2674L1316.77 24.0194C1315.37 23.213 1314 22.3682 1312.39 21.5426L1309.86 20.1794L1308.46 19.4498C1307.99 19.181 1307.47 18.9314 1306.95 18.6818L1303.5 17.0306L1301.49 16.109C1300.8 15.7826 1300.08 15.4946 1299.34 15.1682L1294.44 13.0946L1288.57 10.8674C1286.45 10.0994 1284.56 9.44664 1282.91 8.83224C1281.26 8.21784 1279.82 7.75704 1278.57 7.35384C1277.5 7.01231 1276.41 6.73025 1275.3 6.50905C1274.87 6.43885 1274.43 6.39396 1273.99 6.37465C1273.62 6.37193 1273.24 6.41057 1272.87 6.48984C1270.06 7.12344 1268.85 10.3298 1266.42 18.4514C1264.59 24.557 1262.83 30.6242 1261.16 36.653C1262.19 36.8266 1263.24 36.754 1264.23 36.4418L1265.94 35.9234L1267.73 35.309C1268.92 34.8695 1270.14 34.5165 1271.38 34.253C1272.52 34.0224 1273.69 34.0753 1274.8 34.4066C1275.51 34.6411 1276.18 34.9639 1276.81 35.3666C1277.12 35.5612 1277.41 35.7795 1277.69 36.0194C1277.97 36.2607 1278.24 36.5172 1278.49 36.7874C1279.48 37.9079 1280.22 39.2167 1280.64 40.6274C1280.86 41.3671 1280.99 42.1265 1281.04 42.893C1281.11 43.7045 1281.11 44.52 1281.04 45.3314C1280.82 47.0615 1280.31 48.7468 1279.54 50.3234C1278.77 51.905 1277.77 53.378 1276.58 54.701C1276.04 55.3081 1275.45 55.879 1274.82 56.4098C1274.22 56.911 1273.59 57.3729 1272.93 57.7922C1271.76 58.5527 1270.45 59.0876 1269.07 59.3666C1268.76 59.4382 1268.45 59.4832 1268.13 59.501C1267.81 59.52 1267.5 59.52 1267.19 59.501C1266.56 59.4845 1265.95 59.381 1265.36 59.1938C1264.91 59.0323 1264.49 58.7913 1264.13 58.4834C1263.75 58.1577 1263.4 57.7977 1263.09 57.4082C1262.42 56.5134 1261.82 55.5698 1261.3 54.5858C1261.02 54.0866 1260.74 53.5874 1260.44 53.1074L1260.02 52.397L1259.47 51.6674C1258.95 50.9284 1258.21 50.3589 1257.34 50.0354C1255.34 57.2546 1253.47 64.5122 1251.54 71.9234C1249.61 79.3346 1248.89 82.4258 1249.53 83.9234C1249.69 84.2797 1249.94 84.5862 1250.27 84.8066C1250.67 85.0625 1251.1 85.2569 1251.56 85.3826C1252.06 85.5362 1252.68 85.6706 1253.39 85.8434C1254.09 86.0162 1254.83 86.2274 1255.7 86.5922Z" fill="#6CA3AE"/>
<path fill-rule="evenodd" clip-rule="evenodd" d="M1202.96 83.328L1203.62 83.232L1205.33 83.0208L1207.74 82.6752L1209.08 82.5216L1210.49 82.3872L1213.22 82.1184L1215.59 81.9648L1217.9 81.8112C1217.29 79.9516 1216.47 78.1617 1215.45 76.4736C1214.38 74.6253 1213.7 72.5978 1213.44 70.5024C1213.12 67.5991 1213.77 64.6723 1215.31 62.1504C1215.92 61.1117 1216.78 60.2351 1217.84 59.6011C1218.89 58.9671 1220.09 58.5959 1221.33 58.5216C1221.63 58.4929 1221.94 58.4929 1222.24 58.5216L1223.12 58.7136C1223.71 58.8713 1224.27 59.1038 1224.79 59.4048C1225.87 60.0351 1226.8 60.8875 1227.5 61.9008C1229.1 64.3912 1229.84 67.3002 1229.61 70.2144C1229.4 72.2437 1228.83 74.2239 1227.92 76.0704C1227.52 77.0304 1227.12 77.9904 1226.76 78.8736C1226.4 79.7822 1226.13 80.7206 1225.95 81.6768H1226.54C1226.92 81.6768 1227.44 81.6768 1228.06 81.6768C1229.31 81.6768 1231.01 81.6768 1232.64 81.9264L1235.05 82.1184L1237.06 82.368L1239.07 82.5984C1241.26 82.9824 1242.9 83.3472 1244.07 83.6352C1244.52 83.7984 1245.01 83.8505 1245.48 83.7867C1245.96 83.723 1246.41 83.5454 1246.8 83.2704C1248.19 82.1568 1249.11 78.72 1251.34 70.464L1256.9 49.92C1258.63 50.1888 1259.85 52.1088 1261.02 54.2208C1261.55 55.2407 1262.16 56.2225 1262.85 57.1584C1263.17 57.5722 1263.52 57.9578 1263.91 58.3104C1264.29 58.6284 1264.72 58.8758 1265.2 59.04C1266.49 59.3688 1267.84 59.4118 1269.15 59.1656C1270.47 58.9194 1271.7 58.3905 1272.77 57.6192C1273.43 57.2014 1274.06 56.7394 1274.66 56.2368C1275.29 55.7127 1275.88 55.1482 1276.42 54.5472C1277.61 53.2171 1278.61 51.7378 1279.38 50.1504C1280.15 48.5737 1280.66 46.8885 1280.88 45.1584C1280.95 44.3534 1280.95 43.5442 1280.88 42.7392C1280.84 41.9723 1280.7 41.2126 1280.48 40.4736C1280.11 39.0476 1279.38 37.7309 1278.35 36.6394C1277.32 35.5479 1276.02 34.7152 1274.58 34.2144C1273.42 33.8765 1272.2 33.8367 1271.02 34.0992C1269.73 34.3733 1268.47 34.7457 1267.25 35.2128C1264.76 36.0384 1262.39 37.0176 1260.54 36.3456L1265.2 19.0656C1267.57 10.3104 1268.35 6.72 1266.1 4.8C1264.39 3.71871 1262.42 3.05914 1260.38 2.88L1259.31 2.70721L1258.15 2.5536L1255.58 2.22721L1252.62 1.84321L1249.27 1.4592L1245.82 1.05601L1244.15 0.864009L1242.28 0.710405L1238.26 0.384009C1236.88 0.249609 1235.51 0.211204 1234.25 0.153604L1230.73 0H1228.26H1227.34C1227.96 2.35293 1228.93 4.60933 1230.21 6.70081C1231.54 8.85269 1232.27 11.29 1232.34 13.7856C1232.18 17.1587 1230.85 20.3838 1228.54 22.944C1227.53 24.0873 1226.29 25.0381 1224.91 25.7472C1224.27 26.065 1223.6 26.316 1222.9 26.496C1222.54 26.5785 1222.17 26.6426 1221.8 26.688C1221.42 26.7485 1221.05 26.7806 1220.67 26.784C1219.15 26.7737 1217.64 26.4534 1216.26 25.8443C1214.87 25.2352 1213.64 24.3512 1212.64 23.2512C1210.29 20.7283 1208.88 17.5365 1208.62 14.1696C1208.57 11.601 1209.27 9.06967 1210.63 6.85441C1211.93 4.77978 1212.92 2.54445 1213.58 0.211201H1212.62L1210.07 0.364805L1206.45 0.614414H1205.45H1204.44L1202.44 0.825601L1198.42 1.248L1196.57 1.4592L1194.9 1.68961L1191.47 2.15041L1181.91 3.41761C1180.15 3.538 1178.47 4.11567 1177.03 5.088C1175.02 6.7584 1175.6 10.1184 1177.45 18.3744C1178.79 24.48 1180.19 30.5152 1181.65 36.48C1181.21 36.7976 1180.71 37.0206 1180.18 37.1334C1179.64 37.2461 1179.09 37.2459 1178.56 37.1328C1177.28 36.8973 1176.03 36.5036 1174.86 35.9616L1172.85 35.136C1172.2 34.8882 1171.53 34.6766 1170.84 34.5024C1169.59 34.1057 1168.25 34.0591 1166.97 34.368C1165.51 34.7798 1164.2 35.5476 1163.15 36.5952C1162.1 37.662 1161.31 38.9415 1160.84 40.3392C1159.86 43.5541 1160.08 46.9976 1161.47 50.0736C1162.76 53.1316 1164.92 55.7887 1167.69 57.7536C1168.84 58.5446 1170.12 59.136 1171.49 59.5008C1172.71 59.8182 1174 59.8182 1175.22 59.5008C1176.32 59.1093 1177.25 58.3968 1177.89 57.4656C1178.64 56.5056 1179.36 55.3536 1180.08 54.2592C1180.69 53.2243 1181.45 52.2746 1182.33 51.4368C1182.68 51.0797 1183.12 50.8181 1183.6 50.6796C1184.09 50.5411 1184.61 50.5307 1185.1 50.6496C1186.91 57.8112 1188.74 64.992 1190.65 72.288C1192.55 79.584 1193.48 82.752 1195.02 83.808C1195.48 84.0517 1195.97 84.203 1196.49 84.2526C1197 84.3022 1197.52 84.2489 1198.02 84.096C1199.1 84.1152 1200.75 83.7312 1202.96 83.328Z" fill="#E8AD30"/>
<path fill-rule="evenodd" clip-rule="evenodd" d="M1154.84 101.818C1157.52 99.771 1160.33 97.8858 1163.25 96.1733C1164.34 95.5781 1165.26 95.0405 1166.08 94.6181L1167.29 93.9653L1168.47 93.3701C1170.02 92.6021 1171.61 91.8725 1173.9 90.9125C1177.13 89.5659 1180.44 88.4055 1183.82 87.4373C1184.88 87.1109 1185.83 86.9381 1186.69 86.7461L1187.29 86.6309L1187.98 86.4965L1189.18 86.2277C1190.61 85.8821 1191.51 85.4981 1191.95 84.6533C1192.4 83.2843 1192.4 81.8174 1191.95 80.4485C1191.59 78.3365 1190.87 75.3989 1189.94 71.2517L1184.92 50.8421C1184.43 50.748 1183.91 50.7801 1183.43 50.935C1182.95 51.09 1182.53 51.3625 1182.19 51.7253C1181.32 52.566 1180.58 53.5155 1179.98 54.5477C1179.26 55.6229 1178.56 56.7557 1177.81 57.7157C1177.16 58.6 1176.23 59.2702 1175.16 59.6357C1173.94 59.9531 1172.65 59.9531 1171.43 59.6357C1170.06 59.2763 1168.78 58.6844 1167.63 57.8885C1164.85 55.9279 1162.7 53.2694 1161.4 50.2085C1160.02 47.1388 1159.8 43.7019 1160.78 40.4933C1161.23 39.0568 1162.03 37.7417 1163.11 36.6533C1164.15 35.5965 1165.47 34.8216 1166.93 34.4069C1168.19 34.1081 1169.51 34.1546 1170.74 34.5413C1171.43 34.7023 1172.1 34.9075 1172.75 35.1557L1174.76 35.9621C1175.93 36.4978 1177.15 36.9036 1178.42 37.1717C1178.94 37.2855 1179.49 37.2965 1180.02 37.2041C1180.55 37.1118 1181.06 36.9179 1181.51 36.6341L1177.29 19.5077C1175.14 10.7141 1174.06 7.16208 1171.43 6.37488C1169.59 6.06219 1167.7 6.2348 1165.96 6.87407L1165.02 7.12368L1164.52 7.25808L1163.96 7.43087L1161.47 8.17967C1159.7 8.67887 1157.71 9.35087 1155.44 10.0997C1149.3 11.9691 1143.27 14.1481 1137.36 16.6277C1135.36 17.5301 1133.51 18.2789 1131.92 19.0277C1130.34 19.7765 1128.91 20.4293 1127.5 21.1397L1125.37 22.2149L1123.13 23.3861L1120.66 24.7109L1117.88 26.2853C1112.25 29.5199 1106.82 33.0651 1101.62 36.9029C1098.06 39.5333 1095.29 41.4917 1093.28 43.1237C1092.41 43.8029 1091.59 44.5408 1090.83 45.3317C1090.28 45.8851 1089.85 46.5378 1089.57 47.2517C1088.68 49.8245 1091.01 52.4165 1097.3 58.5029C1102.02 63.0725 1106.72 67.5461 1111.36 71.9429C1112.04 71.2096 1112.51 70.325 1112.74 69.3701C1112.88 68.8517 1113 68.2949 1113.12 67.7189C1113.24 67.1429 1113.34 66.5669 1113.47 65.9717C1113.63 63.6825 1114.61 61.5159 1116.24 59.8277C1117.43 58.9074 1118.84 58.2986 1120.35 58.0613C1121.9 57.8131 1123.48 57.8917 1124.99 58.2917C1128.38 59.2567 1131.33 61.2859 1133.37 64.0517C1135.43 66.708 1136.66 69.872 1136.9 73.1717C1137 74.4709 1136.83 75.7765 1136.4 77.0117C1136.04 78.1382 1135.34 79.1392 1134.39 79.8917C1132.93 81.0629 1130.5 80.9093 1128.09 80.8133H1126.28C1125.72 80.784 1125.17 80.784 1124.61 80.8133C1123.68 80.8388 1122.77 81.1407 1122.02 81.6773C1127.7 86.9189 1133.43 92.1413 1139.29 97.4405C1145.16 102.74 1147.65 104.909 1149.33 105.12C1149.73 105.188 1150.13 105.141 1150.5 104.986C1150.92 104.801 1151.32 104.555 1151.66 104.256C1152.07 103.93 1152.49 103.508 1153.03 103.047C1153.57 102.586 1154.11 102.356 1154.84 101.818Z" fill="#CF4745"/>
<path fill-rule="evenodd" clip-rule="evenodd" d="M1129.05 139.046C1129.05 139.046 1129.87 136.109 1131.06 133.286L1131.88 131.232C1132.16 130.579 1132.42 129.965 1132.66 129.466L1133.47 127.757C1131.45 127.343 1129.4 127.124 1127.34 127.104C1125.11 127.101 1122.89 126.738 1120.78 126.029C1119.26 125.464 1117.83 124.708 1116.52 123.782C1115.36 122.974 1114.36 121.988 1113.54 120.864C1112.84 119.884 1112.38 118.76 1112.2 117.581C1112.12 117.04 1112.12 116.49 1112.2 115.949C1112.29 115.411 1112.47 114.892 1112.74 114.413C1113.29 113.437 1114.13 112.641 1115.15 112.128C1116.27 111.562 1117.5 111.247 1118.77 111.206C1121.85 111.182 1124.88 112.016 1127.48 113.606C1129.27 114.753 1130.88 116.144 1132.24 117.734C1133.55 119.263 1135.02 120.654 1136.64 121.882V121.786C1136.69 121.68 1136.75 121.577 1136.82 121.478C1136.98 121.21 1137.22 120.826 1137.52 120.384C1137.83 119.942 1138.15 119.405 1138.53 118.848C1138.73 118.579 1138.93 118.291 1139.11 118.003L1139.75 117.139C1139.95 116.832 1140.18 116.544 1140.38 116.256L1141.02 115.45L1141.62 114.662L1142.16 113.99L1142.99 113.107L1143.33 112.723C1143.91 112.05 1144.52 111.409 1145.18 110.803L1146.62 109.402C1146.98 109.076 1147.27 108.692 1147.49 108.269C1147.67 107.913 1147.72 107.505 1147.63 107.117C1147.27 105.427 1144.57 102.931 1138.11 96.9217L1122.04 81.9841C1122.71 81.3421 1123.6 80.9649 1124.55 80.9281C1125.73 80.812 1126.92 80.812 1128.11 80.9281C1129.32 80.9949 1130.54 80.9949 1131.76 80.9281C1132.81 80.907 1133.83 80.5786 1134.67 79.9873C1135.64 79.1379 1136.38 78.0791 1136.83 76.8998C1137.28 75.7206 1137.43 74.4551 1137.26 73.2097C1137.01 69.9155 1135.79 66.7562 1133.75 64.0897C1131.74 61.2916 1128.79 59.2275 1125.39 58.2337C1123.92 57.7943 1122.35 57.701 1120.82 57.9616C1119.3 58.2222 1117.87 58.8292 1116.64 59.7313C1115.7 60.4637 1115.01 61.4363 1114.63 62.5345C1114.2 63.7022 1113.89 64.9037 1113.69 66.1249C1113.2 68.5633 1112.86 70.9249 1111.3 72.0769L1097.76 59.5009C1090.89 53.1457 1088 50.7073 1085.07 51.5521C1083.16 52.3582 1081.5 53.6293 1080.27 55.2385C1079.34 56.2561 1078.26 57.4657 1077.13 58.8673L1075.25 61.1329C1074.92 61.5361 1074.56 61.9585 1074.2 62.3809L1073.12 63.7057L1072.51 64.4545C1072.13 64.9153 1071.57 65.5681 1070.93 66.3745C1070.28 67.1809 1069.56 68.1601 1068.76 69.1777C1067.96 70.1953 1067.17 71.3473 1066.37 72.4609C1065.57 73.5745 1064.78 74.7265 1064.06 75.7825C1063.34 76.8385 1062.67 77.8753 1062.05 78.7393L1060.73 80.8321L1060.22 81.6577C1062.77 82.2429 1065.4 82.4821 1068.02 82.3681C1070.69 82.2726 1073.34 82.8275 1075.73 83.9809C1078.8 85.7502 1081.17 88.454 1082.46 91.6609C1083.02 93.0565 1083.3 94.5424 1083.28 96.0385C1083.25 97.4754 1082.88 98.8873 1082.19 100.166C1081.84 100.813 1081.41 101.418 1080.91 101.971C1080.41 102.522 1079.85 103.018 1079.24 103.45C1077.96 104.334 1076.51 104.985 1074.98 105.37C1071.48 106.27 1067.77 106.068 1064.4 104.794C1061.92 103.672 1059.83 101.893 1058.38 99.6673C1057.06 97.5341 1055.43 95.5939 1053.54 93.9073L1051.99 97.1521C1051.11 99.0721 1049.98 101.741 1048.9 104.41C1048.35 105.734 1047.87 107.078 1047.41 108.25C1046.95 109.421 1046.55 110.688 1046.2 111.706C1045.86 112.723 1045.6 113.626 1045.42 114.144C1045.24 114.662 1045.12 115.085 1045.12 115.085C1042.65 123.187 1040.96 127.373 1041.81 129.907C1042.65 132.442 1046.2 133.286 1055.1 134.88C1061.67 136.051 1068.18 137.146 1074.64 138.221C1074.79 138.728 1074.82 139.259 1074.72 139.776C1074.63 140.294 1074.42 140.786 1074.1 141.216C1073.76 141.721 1073.38 142.197 1072.96 142.637C1072.53 143.098 1072.05 143.578 1071.55 144.058C1069.54 145.978 1067.31 148.032 1067.11 150.374C1067.01 151.785 1067.3 153.195 1067.96 154.464C1068.66 155.774 1069.65 156.921 1070.87 157.824C1073.77 159.871 1077.31 160.926 1080.91 160.819C1084.44 160.87 1087.91 159.986 1090.95 158.266C1092.17 157.582 1093.23 156.667 1094.06 155.578C1094.83 154.638 1095.29 153.503 1095.39 152.314C1095.57 150.259 1093.58 148.243 1091.91 146.246C1091.49 145.747 1091.09 145.248 1090.73 144.749C1090.4 144.303 1090.13 143.819 1089.93 143.309C1089.7 142.889 1089.61 142.417 1089.66 141.948C1089.7 141.479 1089.89 141.032 1090.19 140.659C1097.98 141.869 1105.79 143.021 1113.75 144.192C1121.7 145.363 1125.19 145.786 1126.78 145.037C1127.15 144.867 1127.46 144.593 1127.66 144.25C1127.9 143.863 1128.06 143.441 1128.15 143.002C1128.22 142.73 1128.28 142.454 1128.33 142.176C1128.33 141.888 1128.45 141.581 1128.53 141.235C1128.65 140.659 1128.79 139.987 1129.05 139.046Z" fill="#2A375F"/>
<path fill-rule="evenodd" clip-rule="evenodd" d="M1129.71 188.391C1129.39 187.143 1129.07 185.991 1128.85 184.935C1128.63 183.879 1128.37 182.899 1128.21 182.016C1128.05 181.133 1127.86 180.288 1127.7 179.539C1127.54 178.791 1127.46 178.08 1127.34 177.427C1127.22 176.775 1127.14 176.179 1127.06 175.623C1126.98 175.066 1126.9 174.528 1126.84 174.029C1126.7 173.031 1126.62 172.109 1126.5 171.226C1126.38 170.343 1126.36 169.44 1126.26 168.442C1126.26 167.962 1126.26 167.443 1126.26 166.906C1126.26 166.368 1126.26 165.773 1126.16 165.139C1126.02 161.715 1126.08 158.286 1126.32 154.867C1126.32 153.811 1126.56 152.947 1126.68 152.103C1126.8 151.258 1126.96 150.643 1127.02 150.067C1127.09 149.583 1127.09 149.092 1127.02 148.608C1126.95 148.199 1126.75 147.822 1126.44 147.533C1125.07 146.304 1121.36 145.728 1112.38 144.327L1090.29 140.851C1090.01 141.237 1089.85 141.688 1089.82 142.155C1089.79 142.622 1089.9 143.087 1090.13 143.501C1090.35 144 1090.63 144.476 1090.95 144.922C1091.31 145.421 1091.71 145.901 1092.14 146.4C1093.78 148.32 1095.73 150.375 1095.55 152.41C1095.45 153.599 1094.99 154.734 1094.22 155.674C1093.39 156.763 1092.33 157.678 1091.11 158.362C1088.07 160.082 1084.6 160.966 1081.07 160.915C1077.47 161.023 1073.93 159.968 1071.03 157.92C1069.81 157.017 1068.82 155.87 1068.12 154.56C1067.46 153.291 1067.17 151.881 1067.27 150.471C1067.47 148.147 1069.62 146.112 1071.63 144.211C1072.58 143.36 1073.44 142.421 1074.2 141.408C1074.53 140.99 1074.75 140.508 1074.86 139.998C1074.97 139.487 1074.97 138.959 1074.84 138.451L1056.27 135.552C1046.71 134.055 1042.81 133.632 1040.98 135.84C1040.47 136.484 1040.11 137.223 1039.92 138.01C1039.65 139.082 1039.46 140.174 1039.38 141.274C1039.38 141.927 1039.24 142.618 1039.18 143.367C1039.12 144.115 1039.18 144.922 1039.04 145.786C1038.93 147.514 1038.83 149.453 1038.69 151.68C1038.37 157.558 1038.37 163.447 1038.69 169.325C1038.89 173.453 1039.16 176.275 1039.44 179.117L1039.94 183.514C1040.16 185.069 1040.4 186.797 1040.7 188.832C1041.38 192.864 1042.29 198.144 1044.2 205.671C1045.14 209.511 1045.76 212.333 1046.33 214.503C1046.61 216.149 1047.36 217.689 1048.49 218.957C1050.5 220.647 1054.02 219.879 1062.69 217.479C1069.22 215.674 1075.67 213.869 1082.05 212.007C1081.43 210.375 1079.42 209.088 1077.35 207.725C1076.33 207.071 1075.37 206.332 1074.48 205.517C1073.66 204.81 1073.05 203.909 1072.72 202.906C1072.34 201.566 1072.34 200.156 1072.72 198.816C1073.15 197.425 1073.9 196.145 1074.92 195.072C1076.04 193.883 1077.36 192.895 1078.84 192.154C1080.48 191.319 1082.25 190.729 1084.08 190.407C1085.91 190.072 1087.77 189.982 1089.63 190.138C1091.28 190.257 1092.91 190.606 1094.47 191.175C1095.8 191.661 1097.02 192.391 1098.06 193.325C1099.03 194.137 1099.73 195.206 1100.07 196.397C1100.29 197.355 1100.2 198.357 1099.79 199.258C1099.35 200.296 1098.83 201.303 1098.24 202.272C1097.08 204.192 1095.85 206.266 1096.23 207.802C1103.84 205.536 1111.46 203.213 1119.23 200.813C1127 198.413 1130.15 197.319 1131.14 195.821C1131.36 195.387 1131.47 194.911 1131.47 194.429C1131.47 193.947 1131.36 193.471 1131.14 193.037C1130.96 192.461 1130.76 191.789 1130.5 191.117C1130.23 190.445 1129.95 189.389 1129.71 188.391Z" fill="#6CA3AE"/>
<path fill-rule="evenodd" clip-rule="evenodd" d="M1154.62 240.327C1154.62 240.327 1154.05 239.52 1153.23 238.291L1151.8 236.199L1150.26 233.779C1149.74 232.973 1149.19 232.147 1148.71 231.379C1148.23 230.611 1147.81 229.863 1147.45 229.248L1146.2 227.175C1144.7 228.534 1143.36 230.04 1142.18 231.667C1140.9 233.443 1139.24 234.946 1137.32 236.083C1134.63 237.607 1131.5 238.279 1128.39 238.003C1127.05 237.868 1125.77 237.462 1124.61 236.813C1123.55 236.191 1122.68 235.31 1122.1 234.259C1121.52 233.217 1121.26 232.04 1121.34 230.861C1121.45 229.614 1121.83 228.404 1122.46 227.309C1124.03 224.728 1126.43 222.706 1129.31 221.549C1131.37 220.784 1133.55 220.393 1135.76 220.397C1137.89 220.384 1140.02 220.152 1142.1 219.706L1141.04 217.651L1140.02 215.539C1139.65 214.752 1139.21 213.946 1138.85 213.101C1138.09 211.45 1137.32 209.799 1136.84 208.57C1136.36 207.341 1135.96 206.496 1135.96 206.496C1135.5 205.344 1135.14 204.307 1134.81 203.424C1134.49 202.541 1134.29 201.754 1134.05 201.101C1133.86 200.552 1133.6 200.029 1133.27 199.546C1133 199.158 1132.61 198.857 1132.16 198.682C1130.34 197.991 1126.72 199.085 1118.1 201.677L1096.45 208.109C1095.73 206.592 1096.92 204.538 1098.12 202.464C1098.42 201.946 1098.72 201.427 1099 200.909C1099.29 200.406 1099.53 199.886 1099.75 199.354C1100.19 198.422 1100.31 197.379 1100.09 196.378C1099.74 195.193 1099.04 194.128 1098.08 193.306C1097.03 192.374 1095.8 191.644 1094.47 191.155C1092.92 190.587 1091.3 190.237 1089.65 190.119C1087.79 189.963 1085.93 190.053 1084.1 190.387C1082.27 190.71 1080.5 191.299 1078.86 192.135C1077.38 192.875 1076.06 193.864 1074.94 195.053C1073.92 196.125 1073.17 197.405 1072.74 198.797C1072.35 200.135 1072.35 201.548 1072.74 202.887C1073.08 203.933 1073.72 204.869 1074.58 205.594C1075.52 206.419 1076.53 207.17 1077.6 207.84C1079.74 209.28 1081.77 210.605 1082.17 212.371L1063.96 217.786C1054.74 220.531 1051.09 221.799 1050.42 224.352C1049.76 226.906 1052.11 230.707 1055.28 238.195C1055.28 238.195 1055.74 239.29 1056.47 240.922C1057.19 242.554 1058.17 244.762 1059.18 246.874C1060.18 248.986 1061.19 251.117 1062.03 252.634L1063.4 255.245C1065.36 253.734 1067.1 251.978 1068.58 250.023C1070.11 247.999 1072.11 246.338 1074.42 245.165C1077.68 243.737 1081.32 243.308 1084.85 243.936C1086.35 244.226 1087.78 244.794 1089.06 245.607C1090.28 246.365 1091.27 247.402 1091.96 248.621C1092.63 249.838 1092.95 251.202 1092.9 252.576C1092.88 254.015 1092.54 255.435 1091.92 256.743C1090.66 259.542 1088.52 261.896 1085.79 263.476C1083.06 265.056 1079.89 265.783 1076.71 265.555C1074.16 265.397 1071.6 265.565 1069.1 266.055L1070.71 268.762C1071.21 269.568 1071.77 270.509 1072.37 271.527C1072.98 272.544 1073.68 273.581 1074.38 274.637C1075.73 276.749 1077.05 278.88 1078.14 280.397L1079.89 282.97C1081.89 286.08 1083.48 288.442 1084.69 290.227C1085.2 291.002 1085.77 291.74 1086.39 292.435C1086.87 292.942 1087.45 293.348 1088.1 293.626C1090.47 294.528 1093.56 292.781 1101.01 287.981C1106.54 284.448 1111.94 280.915 1117.3 277.383C1119.31 278.381 1119.31 280.8 1119.31 283.373C1119.31 285.946 1119.01 288.826 1120.47 290.573C1121.45 291.628 1122.67 292.449 1124.04 292.969C1125.4 293.489 1126.88 293.695 1128.35 293.568C1131.9 293.29 1135.26 291.946 1137.97 289.728C1140.71 287.673 1142.74 284.877 1143.79 281.703C1144.27 280.475 1144.42 279.154 1144.23 277.857C1144.04 276.56 1143.52 275.328 1142.71 274.272C1141.26 272.544 1138.31 272.237 1135.54 271.834C1132.77 271.431 1130.34 270.893 1130.01 268.839C1136.42 264.519 1142.81 260.179 1149.29 255.706C1155.78 251.232 1158.53 249.216 1158.87 247.431C1158.97 246.979 1158.92 246.511 1158.73 246.087C1158.51 245.558 1158.23 245.055 1157.89 244.589C1157.51 244.032 1157.03 243.418 1156.46 242.669L1155.58 241.536C1155.22 241.216 1154.9 240.813 1154.62 240.327Z" fill="#E8AD30"/>
<path fill-rule="evenodd" clip-rule="evenodd" d="M1196.77 286.887L1190.91 281.549L1186.79 277.709C1185.61 276.595 1184.64 275.616 1183.76 274.733L1181.29 272.237C1178.17 269.011 1174.94 265.843 1167.23 256.877C1163.75 252.691 1162.71 250.195 1160.7 249.984C1158.69 249.773 1155.6 251.904 1148.19 256.819L1129.93 269.031C1130.34 270.951 1132.77 271.527 1135.5 271.93C1138.23 272.333 1141.16 272.64 1142.59 274.349C1143.4 275.405 1143.92 276.637 1144.11 277.933C1144.3 279.23 1144.15 280.552 1143.67 281.779C1142.61 284.95 1140.58 287.744 1137.85 289.805C1135.14 292.016 1131.77 293.359 1128.23 293.645C1126.76 293.769 1125.28 293.561 1123.9 293.037C1122.53 292.514 1121.31 291.689 1120.33 290.631C1118.89 288.922 1119.11 286.119 1119.17 283.546C1119.23 280.973 1119.17 278.573 1117.3 277.517L1102 287.751C1094.12 293.031 1091.05 295.277 1091.19 297.811C1091.27 298.491 1091.5 299.147 1091.88 299.731C1092.4 300.556 1092.99 301.339 1093.64 302.074C1095.15 303.821 1097.2 306.067 1099.79 309.043L1103.06 312.883L1105.89 316.032C1107.64 317.952 1109.09 319.584 1110.37 320.928C1111.66 322.272 1112.76 323.424 1113.75 324.48C1114.73 325.536 1115.63 326.4 1116.56 327.36C1120.21 331.008 1123.81 334.848 1134.49 344.544C1135.82 345.773 1137 346.848 1138.01 347.808C1139.01 348.768 1139.88 349.632 1140.66 350.343C1141.28 350.963 1141.95 351.534 1142.67 352.051C1143.22 352.434 1143.86 352.69 1144.53 352.8C1146.98 353.165 1149.62 350.88 1155.78 344.64C1160.44 339.994 1164.98 335.386 1169.48 330.778C1168.68 330.206 1167.74 329.848 1166.75 329.741C1165.64 329.568 1164.42 329.511 1163.19 329.434C1160.9 329.54 1158.63 328.949 1156.71 327.744C1156.18 327.297 1155.73 326.78 1155.36 326.208C1154.99 325.607 1154.71 324.961 1154.52 324.288C1154.13 322.924 1154.05 321.499 1154.28 320.103C1154.89 316.817 1156.6 313.811 1159.16 311.539C1161.66 309.151 1164.83 307.516 1168.29 306.835C1169.72 306.556 1171.2 306.556 1172.63 306.835C1173.29 306.981 1173.92 307.2 1174.52 307.488C1175.11 307.77 1175.65 308.125 1176.15 308.544C1177.67 309.888 1177.87 312.231 1178.01 314.573C1178.15 316.915 1178.28 319.143 1179.5 320.333C1184.82 314.784 1190.12 309.159 1195.57 303.418C1201.01 297.677 1203.08 295.219 1202.96 293.357C1202.84 291.495 1200.53 290.17 1196.77 286.887Z" fill="#CF4745"/>
<path fill-rule="evenodd" clip-rule="evenodd" d="M1249.99 326.727C1249.99 326.727 1249.03 326.131 1247.64 325.21L1242.5 321.869C1241.58 321.274 1240.65 320.64 1239.79 319.949L1237.38 318.547L1235.09 316.992C1233.5 320.333 1234.09 325.171 1231.32 328.743C1229.49 331.179 1226.87 332.968 1223.86 333.831C1222.56 334.191 1221.19 334.296 1219.85 334.138C1218.54 333.974 1217.31 333.491 1216.25 332.736C1215.21 331.968 1214.37 330.97 1213.81 329.827C1213.26 328.684 1213 327.429 1213.06 326.17C1213.17 323.209 1214.31 320.368 1216.31 318.106C1219.02 314.919 1224.11 313.805 1227.1 311.309L1220.37 306.317L1215.81 302.842L1214.32 301.69L1213.76 301.229C1211.51 299.424 1209.95 297.946 1208.7 296.928C1207.87 296.039 1206.71 295.501 1205.47 295.431C1203.46 295.584 1200.87 298.253 1194.76 304.57L1179.56 320.333C1178.83 319.739 1178.34 318.915 1178.19 318.01C1177.98 316.895 1177.85 315.765 1177.81 314.631C1177.67 312.211 1177.51 309.735 1175.94 308.352C1174.95 307.505 1173.74 306.916 1172.43 306.643C1171 306.364 1169.52 306.364 1168.09 306.643C1164.63 307.306 1161.45 308.937 1158.95 311.328C1156.39 313.597 1154.67 316.604 1154.05 319.891C1153.83 321.281 1153.91 322.701 1154.29 324.058C1154.67 325.361 1155.42 326.538 1156.46 327.456C1158.03 328.819 1160.68 328.992 1163.23 329.165L1165.12 329.299C1165.71 329.344 1166.29 329.421 1166.87 329.53C1167.87 329.65 1168.8 330.082 1169.52 330.759L1156.75 344.007C1150.28 350.727 1147.81 353.607 1148.45 355.911C1149.09 358.215 1152.87 360.211 1158.93 365.011L1166.14 370.387L1173.41 375.763C1175.74 371.923 1175.42 366.048 1178.7 362.323C1180.91 359.681 1183.91 357.756 1187.31 356.813C1188.71 356.385 1190.19 356.266 1191.65 356.466C1193.1 356.665 1194.49 357.178 1195.71 357.965C1196.84 358.763 1197.73 359.837 1198.28 361.075C1198.86 362.369 1199.16 363.759 1199.16 365.165C1199.09 368.511 1197.9 371.749 1195.77 374.4C1192.51 378.605 1186.25 379.565 1182.89 382.503L1190.79 387.859L1198.82 393.063C1210.87 400.743 1209.56 403.757 1219.67 389.799C1223.4 384.615 1227.06 379.488 1230.67 374.439C1232.96 374.65 1233.89 376.858 1234.69 379.315C1235.49 381.773 1236.42 384.423 1238.38 385.575C1239.6 386.263 1240.99 386.64 1242.4 386.669C1243.91 386.673 1245.39 386.385 1246.78 385.824C1249.93 384.409 1252.59 382.143 1254.41 379.305C1256.23 376.466 1257.15 373.179 1257.04 369.85C1256.95 368.476 1256.56 367.135 1255.9 365.914C1255.28 364.778 1254.35 363.822 1253.21 363.149C1251.2 361.978 1248.23 362.669 1245.47 363.149C1242.72 363.629 1240.23 363.975 1239.11 362.151C1243.39 355.987 1247.6 349.747 1251.9 343.373C1256.2 336.999 1257.93 334.176 1257.46 332.333C1257 330.49 1254.39 329.472 1249.99 326.727Z" fill="#2A375F"/>
<path fill-rule="evenodd" clip-rule="evenodd" d="M1375.5 386.381L1374.73 386.112L1372.72 385.421L1366.7 383.251L1363.51 382.08L1360.73 381.043L1358.02 380.007C1357.4 383.635 1359.31 388.243 1357.58 392.333C1355.05 398.285 1348.9 401.587 1343.84 399.667C1338.78 397.747 1336.99 391.296 1339.83 385.421C1341.57 381.696 1346.25 379.411 1348.5 376.282L1345.93 375.283L1343.32 374.227L1340.35 372.999L1334.77 370.695C1334 370.387 1333.38 370.099 1332.94 369.907L1332.24 369.619C1326.61 367.181 1324.2 365.338 1322.19 365.991C1320.18 366.643 1318.58 369.831 1314.6 377.511L1304.74 396.595C1303.03 396 1302.19 393.811 1301.31 391.546C1300.42 389.28 1299.48 386.938 1297.53 386.016C1296.23 385.482 1294.81 385.246 1293.39 385.33C1291.98 385.413 1290.6 385.813 1289.38 386.496C1286.29 388.063 1283.77 390.495 1282.17 393.466C1280.43 396.374 1279.72 399.742 1280.16 403.066C1280.31 404.429 1280.81 405.736 1281.62 406.871C1282.42 408.006 1283.51 408.934 1284.78 409.575C1287.05 410.227 1289.48 410.16 1291.71 409.383C1294.2 408.826 1296.59 408.288 1298.19 409.229L1289.9 425.28C1281.48 441.543 1283.75 438.72 1297.73 444.768L1305.99 448.186L1309.02 449.434L1311.67 450.49L1314.26 451.507C1315.49 447.283 1313.7 441.696 1315.75 437.299C1317.14 434.203 1319.5 431.598 1322.51 429.85C1323.74 429.097 1325.13 428.626 1326.57 428.473C1328.02 428.319 1329.48 428.488 1330.85 428.967C1332.17 429.52 1333.33 430.366 1334.23 431.435C1335.14 432.504 1335.76 433.764 1336.05 435.111C1336.85 438.356 1336.54 441.761 1335.17 444.826C1333.16 449.645 1327.42 452.026 1324.94 455.655L1327.76 456.787L1330.59 457.863C1331.61 458.266 1332.72 458.65 1333.84 459.053L1342.7 462.259C1349.37 464.544 1352.56 466.56 1354.91 466.003C1357.26 465.447 1358.71 462.317 1361.88 454.483C1364.23 448.627 1366.52 442.867 1368.77 437.107C1371.04 436.8 1372.48 438.739 1373.93 440.947C1374.62 442.065 1375.38 443.142 1376.2 444.173C1376.9 445.118 1377.88 445.846 1379.01 446.266C1380.4 446.645 1381.87 446.706 1383.3 446.442C1384.72 446.179 1386.06 445.599 1387.2 444.749C1390.05 442.767 1392.16 439.969 1393.23 436.762C1394.37 433.63 1394.48 430.237 1393.53 427.047C1393.19 425.74 1392.52 424.533 1391.59 423.529C1390.65 422.526 1389.47 421.756 1388.15 421.287C1386.93 420.976 1385.65 421.037 1384.47 421.459C1383.15 421.877 1381.86 422.371 1380.6 422.938C1378.05 423.994 1375.68 424.858 1374.13 423.341C1376.74 416.41 1379.33 409.44 1381.92 402.317C1384.51 395.194 1385.5 392.064 1384.55 390.355C1383.61 388.647 1380.6 388.128 1375.5 386.381Z" fill="#E8AD30"/>
<path fill-rule="evenodd" clip-rule="evenodd" d="M1443.46 406.656C1430.32 403.335 1425.38 401.933 1420.64 400.589L1416.91 399.533C1415.58 399.168 1414.14 398.727 1412.43 398.227L1406.4 396.461C1404.07 395.77 1401.38 394.906 1398.19 393.927C1396.72 393.466 1395.44 393.024 1394.31 392.621C1393.19 392.218 1392.31 391.853 1391.44 391.584C1390.28 391.025 1388.93 390.915 1387.69 391.277C1385.68 392.16 1384.51 395.501 1381.46 403.527L1373.95 423.264C1375.52 424.685 1377.87 423.783 1380.4 422.727C1381.65 422.174 1382.93 421.687 1384.23 421.267C1385.4 420.866 1386.67 420.819 1387.87 421.133C1389.19 421.602 1390.37 422.372 1391.3 423.376C1392.24 424.38 1392.91 425.587 1393.25 426.893C1394.2 430.077 1394.09 433.464 1392.95 436.589C1391.89 439.799 1389.77 442.598 1386.92 444.576C1385.78 445.429 1384.44 446.011 1383.02 446.274C1381.59 446.538 1380.12 446.476 1378.73 446.093C1377.61 445.681 1376.65 444.959 1375.96 444.019C1375.14 443.004 1374.4 441.939 1373.73 440.832C1372.3 438.663 1370.86 436.704 1368.67 436.896L1362.34 453.447C1359.09 461.971 1357.94 465.427 1359.43 467.367C1360.92 469.306 1364.99 469.767 1372.24 471.994C1378.87 474.106 1383.43 475.373 1386.88 476.41C1390.34 477.447 1392.77 478.119 1395.18 478.791C1397.59 479.463 1400.02 480.154 1403.55 481.114L1409.8 482.784C1412.25 483.418 1415.1 484.205 1418.52 485.031C1421.93 485.856 1424.54 486.739 1426.45 487.277C1427.88 487.833 1429.45 487.967 1430.97 487.661C1433.24 486.874 1434.36 483.667 1436.73 475.527C1438.52 469.383 1440.23 463.335 1441.91 457.287C1439.74 457.221 1437.59 457.776 1435.75 458.88C1433.8 459.996 1431.52 460.488 1429.26 460.282C1427.91 459.882 1426.69 459.183 1425.68 458.242C1424.67 457.301 1423.91 456.144 1423.46 454.867C1422.31 451.726 1422.24 448.315 1423.25 445.133C1424.17 441.918 1426.1 439.05 1428.78 436.915C1429.83 436.009 1431.09 435.354 1432.46 435.004C1433.83 434.654 1435.26 434.618 1436.65 434.899C1438.66 435.399 1440.13 437.395 1441.43 439.392C1442.74 441.389 1444 443.232 1445.69 443.808C1447.7 436.57 1449.5 429.312 1451.37 421.901C1453.24 414.49 1453.9 411.36 1452.78 409.747C1451.99 408.865 1450.89 408.291 1449.68 408.135C1448.16 407.674 1446.09 407.309 1443.46 406.656Z" fill="#CF4745"/>
<path fill-rule="evenodd" clip-rule="evenodd" d="M1488.41 420.095L1485.52 419.634C1483.77 419.346 1481.5 418.923 1479.13 418.501L1472.72 417.387L1469.83 416.83C1470.08 418.833 1470.56 420.803 1471.26 422.706C1472.21 425.111 1472.36 427.742 1471.67 430.23C1470.99 432.718 1469.51 434.941 1467.44 436.587C1466.42 437.444 1465.22 438.071 1463.91 438.423C1462.6 438.775 1461.23 438.843 1459.89 438.623C1458.58 438.339 1457.35 437.771 1456.31 436.962C1455.26 436.153 1454.43 435.125 1453.87 433.957C1452.53 431.277 1452.21 428.239 1452.94 425.355C1453.87 421.381 1458.02 418.328 1459.59 414.891L1450.79 413.087C1448.6 412.645 1446.42 412.146 1444.77 411.8L1442.04 411.186C1435.91 409.88 1433.1 408.44 1431.25 409.477C1429.4 410.514 1428.5 413.951 1426.27 422.207L1420.71 442.731C1418.9 442.482 1417.62 440.504 1416.23 438.45C1414.84 436.395 1413.44 434.264 1411.31 433.746C1409.92 433.466 1408.48 433.502 1407.11 433.852C1405.74 434.203 1404.47 434.857 1403.42 435.762C1400.74 437.895 1398.82 440.765 1397.91 443.979C1396.87 447.151 1396.94 450.56 1398.09 453.695C1398.54 454.996 1399.32 456.175 1400.34 457.131C1401.37 458.087 1402.63 458.792 1404 459.186C1406.35 459.377 1408.71 458.846 1410.73 457.669C1413.04 456.671 1415.27 455.749 1417.03 456.306L1412.35 473.586C1409.98 482.341 1409.18 485.912 1410.85 487.717C1412.09 488.735 1413.63 489.365 1415.27 489.522C1417.43 489.963 1420.31 490.366 1424.02 491.173L1426.73 491.768L1429.53 492.363L1432.72 493.035L1441.43 494.821C1441.78 490.443 1438.9 485.221 1440.01 480.575C1440.73 477.307 1442.51 474.339 1445.09 472.088C1446.14 471.122 1447.42 470.404 1448.81 469.991C1450.21 469.577 1451.68 469.48 1453.12 469.707C1454.52 470.021 1455.83 470.65 1456.92 471.542C1458.02 472.433 1458.88 473.562 1459.43 474.834C1460.83 477.847 1461.2 481.206 1460.49 484.434C1459.83 486.9 1458.58 489.183 1456.82 491.096C1455.17 492.827 1453.78 494.765 1452.68 496.856L1455.57 497.413L1461.94 498.527L1468.29 499.659L1470.29 500.005L1471.1 500.139C1478.03 501.253 1481.52 502.674 1483.69 501.733C1485.86 500.792 1486.7 497.471 1488.31 489.176C1489.47 483.013 1490.62 476.965 1491.7 470.917C1493.87 470.245 1495.72 471.896 1497.51 473.816C1499.3 475.736 1501.22 477.925 1503.53 478.213C1509.16 478.962 1514.56 473.72 1515.58 466.52C1516.61 459.32 1513.07 452.888 1507.55 452.158C1505.16 451.851 1502.75 453.541 1500.44 455.019C1498.13 456.498 1495.96 457.746 1494.13 456.517C1495.38 449.24 1496.56 441.963 1497.73 434.514C1500.12 419.595 1499.24 421.861 1488.41 420.095Z" fill="#2A375F"/>
<path fill-rule="evenodd" clip-rule="evenodd" d="M90.7679 515.194L68.1538 506.707L45.881 497.76C34.0116 492.999 35.4175 490.464 28.0067 506.035L18.8887 525.235C21.8008 528.269 28.6493 522.336 33.0677 524.103C38.1488 526.138 39.7756 533.223 36.7229 539.923C33.6702 546.624 26.9824 550.33 21.8008 548.256C17.6636 546.586 17.0008 538.368 12.6025 538.483L4.95065 554.535C-2.92212 571.047 -0.733008 568.071 12.9841 573.543L34.3732 582.067L56.2843 590.323C69.0776 595.143 68.3345 598.522 75.2834 582.912C77.8541 577.037 80.3713 571.207 82.8349 565.421C79.4809 564.211 73.7571 568.32 70.0215 566.919C64.7998 564.999 62.932 557.895 65.8642 551.155C68.7964 544.416 75.3437 540.519 80.465 542.439C84.4817 543.936 85.0842 551.04 88.2976 552.403C91.1695 545.472 94.0214 538.464 96.8532 531.283C102.537 517.133 101.191 519.111 90.7679 515.194Z" fill="#E8AD30"/>
<path fill-rule="evenodd" clip-rule="evenodd" d="M159.575 539.04L141.319 533.088C140.897 536.736 143.106 541.268 141.54 545.415C139.25 551.463 133.165 555.015 127.963 553.287C122.762 551.559 120.552 545.127 122.942 539.136C124.449 535.296 129.088 532.877 131.177 529.671L113.925 523.603C101.875 519.379 103.14 516.788 96.4923 532.647L88.238 552.365C84.7435 551.405 84.2213 543.821 80.0439 542.285C74.9426 540.365 68.3954 544.205 65.4632 551.002C62.531 557.799 64.3786 564.787 69.6004 566.746C73.4765 568.205 79.5016 563.731 82.7752 565.421L75.8264 582.01C68.777 598.848 70.8055 595.776 84.7435 600.672L101.071 606.432C102.096 602.17 100.107 596.679 101.895 592.186C104.626 585.351 111.073 581.338 116.355 583.162C121.637 584.986 123.846 591.86 121.235 598.714C119.388 603.61 113.865 606.259 111.615 610.003L129.028 615.763C135.555 617.895 138.688 619.795 140.957 619.2C143.227 618.605 144.633 615.36 147.645 607.469C149.881 601.594 152.057 595.763 154.172 589.978C158.671 589.267 160.197 597.658 164.495 598.887C169.858 600.519 176.124 596.199 178.554 589.287C180.984 582.375 178.554 575.444 173.312 573.927C168.713 572.544 162.407 579.207 159.254 576.212C161.724 569.242 164.154 562.215 166.604 555.092C169.054 547.968 169.978 544.781 168.934 543.092C167.89 541.402 164.917 540.768 159.575 539.04Z" fill="#CF4745"/>
<path fill-rule="evenodd" clip-rule="evenodd" d="M229.607 559.719L206.31 553.268L202.454 552.212L197.874 550.829L183.294 546.432C171.043 542.746 172.188 540.096 166.383 556.244L159.254 576.116C162.467 578.88 168.673 572.276 173.312 573.735C178.554 575.309 180.904 582.221 178.554 589.095C176.204 595.968 169.938 600.346 164.496 598.695C160.178 597.408 158.711 589.268 154.313 589.767L148.288 606.413C142.142 623.559 144.01 620.391 158.189 624.672C171.183 628.512 175.823 630.049 180.562 631.297L203.317 637.594C206.631 638.516 209.101 639.514 211.029 639.994C212.434 640.546 213.979 640.686 215.468 640.397C217.697 639.648 218.902 636.461 221.493 628.359C223.421 622.279 225.295 616.244 227.116 610.253C223.642 609.408 218.34 614.093 214.484 613.037C209.081 611.54 206.45 604.666 208.679 597.677C210.909 590.688 216.974 586.157 222.276 587.693C226.293 588.864 227.819 595.757 231.153 596.775C233.161 589.594 235.33 582.375 237.399 575.002C239.468 567.629 240.191 564.538 239.066 562.887C237.941 561.236 234.969 561.236 229.607 559.719Z" fill="#2A375F"/>
<path fill-rule="evenodd" clip-rule="evenodd" d="M300.823 576.883L299.999 576.711C299.497 576.711 298.754 576.48 297.87 576.269L291.444 574.81L282.085 572.679C282.085 576.346 284.776 580.666 283.671 584.947C282.065 591.168 276.441 595.258 271.079 594.029C265.717 592.8 262.784 586.791 264.492 580.589C265.576 576.653 269.934 573.715 271.661 570.298L268.87 569.683C268.026 569.472 267.062 569.28 266.018 569.011L262.764 568.186L253.887 565.959C241.496 562.829 242.48 560.199 237.6 576.538L231.575 596.947C227.959 596.352 226.554 588.999 222.316 587.789C217.014 586.33 210.929 590.784 208.719 597.773C206.51 604.762 209.121 611.616 214.524 613.133C218.54 614.266 224.083 609.139 227.558 610.464L222.436 627.629C217.255 645.043 218.942 641.799 233.342 645.427L241.797 647.539L244.91 648.327L247.641 648.941L250.292 649.555C250.835 645.216 248.284 639.955 249.489 635.347C251.497 628.301 257.522 623.616 262.925 624.845C268.327 626.074 271.36 632.832 269.533 639.917C268.247 644.967 263.066 648.115 261.218 652.032L279.293 656.122C292.85 658.867 292.769 662.304 296.926 645.888C298.473 639.802 299.959 633.811 301.385 627.821C305.783 626.707 308.193 634.867 312.672 635.77C314.041 636.05 315.464 635.97 316.789 635.539C317.491 635.334 318.165 635.05 318.798 634.695C319.45 634.317 320.062 633.88 320.625 633.389C323.112 631.069 324.822 628.094 325.537 624.843C326.252 621.592 325.941 618.211 324.642 615.13C324.326 614.494 323.957 613.884 323.537 613.306C323.127 612.747 322.656 612.233 322.131 611.77C321.118 610.883 319.878 610.268 318.536 609.984C313.817 609.024 308.334 616.263 304.839 613.575C306.506 606.394 308.113 599.175 309.72 591.802C312.732 576.922 311.728 579.091 300.823 576.883Z" fill="#6CA3AE"/>
<path fill-rule="evenodd" clip-rule="evenodd" d="M372.481 590.093C358.784 588.058 353.723 586.983 348.662 586.119L340.026 584.583L333.619 583.507L329.603 582.797L324.943 581.856C312.411 579.303 313.234 576.557 309.338 593.203L304.538 613.671C308.033 616.128 313.435 609.063 318.115 610.003C319.453 610.28 320.688 610.897 321.69 611.789C322.22 612.246 322.692 612.762 323.096 613.325C323.529 613.898 323.905 614.509 324.22 615.149C325.564 618.18 325.88 621.537 325.124 624.749C324.522 628.045 322.858 631.08 320.364 633.427C319.797 633.914 319.185 634.351 318.537 634.733C317.902 635.085 317.228 635.368 316.528 635.578C315.23 635.973 313.85 636.052 312.511 635.808C308.093 634.906 305.663 626.938 301.385 627.821L297.368 645.005C293.231 662.65 294.717 659.328 309.419 662.285C312.753 662.995 315.584 663.437 318.014 663.898L324.2 664.992L332.555 666.49L340.95 667.987L343.822 668.487L345.449 668.775L347.216 669.063L355.992 670.407C369.69 672.519 369.83 675.955 372.963 659.328C374.128 653.069 375.253 646.887 376.337 640.743C372.782 640.243 368.083 645.408 364.106 644.794C358.543 643.93 355.109 637.44 356.474 630.279C357.84 623.117 363.323 617.991 368.766 618.759C372.983 619.411 375.233 626.189 378.687 626.88C379.892 619.527 381.077 612.135 382.222 604.589C384.351 589.555 383.507 591.783 372.481 590.093Z" fill="#E8AD30"/>
<path fill-rule="evenodd" clip-rule="evenodd" d="M444.641 599.328L425.561 597.408C426.023 601.037 429.236 604.992 428.674 609.37C428.322 612.352 426.903 615.126 424.657 617.223C423.667 618.148 422.493 618.872 421.203 619.354C419.932 619.849 418.546 620.015 417.186 619.834C411.744 619.123 408.068 613.402 409.012 607.047C409.595 603.015 413.511 599.674 414.796 596.122L396.721 593.779C390.375 593.011 387.402 591.744 385.635 592.915C383.868 594.087 383.305 597.581 381.879 605.991L378.345 626.919C374.689 626.688 372.32 619.431 368.042 618.759C362.619 617.914 357.096 623.04 355.751 630.279C354.405 637.517 357.759 643.949 363.382 644.794C367.52 645.427 372.4 639.859 375.995 640.839L373.022 658.426C371.496 667.354 371.014 670.963 372.862 672.634C374.173 673.543 375.741 674.051 377.361 674.093C379.51 674.362 382.381 674.477 386.097 674.957L403.509 677.223C403.509 672.845 400.236 667.891 400.939 663.13C401.983 655.93 407.365 650.669 412.989 651.399C414.367 651.578 415.677 652.079 416.805 652.858C417.978 653.707 418.956 654.779 419.677 656.007C421.335 658.94 421.968 662.304 421.484 665.607C420.842 670.771 416.062 674.496 414.736 678.605L433.233 680.525C436.687 680.89 439.258 681.37 441.266 681.639L442.672 681.792H443.857C444.507 681.78 445.145 681.63 445.725 681.351C447.733 680.237 448.396 676.896 449.4 668.506C450.144 662.304 450.846 656.179 451.409 650.093C455.626 648.461 459.081 656.256 463.66 656.621C469.303 657.082 474.344 651.571 474.906 644.314C475.469 637.056 471.512 630.874 466.03 630.375C461.21 629.991 456.711 637.805 452.895 635.559C453.618 628.243 454.281 620.89 454.903 613.383C455.526 605.875 455.666 602.631 454.281 601.191C453.326 600.439 452.123 600.038 450.887 600.058C449.521 599.693 447.392 599.616 444.641 599.328Z" fill="#CF4745"/>
<path fill-rule="evenodd" clip-rule="evenodd" d="M517.323 604.282L512.523 604.129C511.057 604.129 509.692 604.129 508.507 603.975L502.08 603.61L493.283 603.111L484.547 602.612C480.912 602.458 476.232 602.017 469.384 601.479C456.671 600.461 457.133 597.639 455.325 614.593L453.196 635.444C456.992 637.479 461.451 629.818 466.211 630.202C471.694 630.644 475.67 636.884 475.088 644.141C474.505 651.399 469.484 656.909 463.841 656.449C459.322 656.084 455.807 648.461 451.791 649.863L450.003 667.354C448.176 685.345 449.24 681.869 464.202 683.079L472.959 683.789L476.373 684.001L479.265 684.173L487.801 684.653L496.376 685.133C499.971 685.325 504.691 685.671 511.66 685.844C525.598 686.305 526.2 689.684 527.024 672.826C527.345 666.49 527.626 660.231 527.847 653.991C524.252 653.991 520.316 659.597 516.259 659.482C514.829 659.385 513.443 658.964 512.217 658.253C510.991 657.541 509.96 656.561 509.21 655.393C508.301 654.093 507.622 652.66 507.201 651.149C506.76 649.462 506.584 647.721 506.679 645.985C506.758 644.248 507.11 642.533 507.723 640.897C508.277 639.414 509.077 638.026 510.093 636.788C510.914 635.681 511.996 634.775 513.253 634.144C514.51 633.513 515.904 633.176 517.323 633.159C521.601 633.293 524.754 639.745 528.269 640.033C528.47 632.583 528.631 625.114 528.731 617.492C528.972 602.343 528.43 604.628 517.323 604.282Z" fill="#2A375F"/>
<path fill-rule="evenodd" clip-rule="evenodd" d="M590.288 604.762L571.168 605.069C572.132 608.64 575.868 612.173 575.928 616.589C576.049 622.983 571.67 628.282 566.187 628.359C560.705 628.435 556.266 623.079 556.306 616.666C556.306 612.595 559.761 608.813 560.524 605.146L542.308 604.992C540.722 604.992 539.316 604.992 538.111 604.877L534.978 604.685C533.669 604.466 532.322 604.741 531.222 605.453C529.635 606.816 529.575 610.368 529.214 618.893L528.571 640.013C524.916 640.205 521.662 633.274 517.244 633.139C515.824 633.153 514.428 633.489 513.171 634.12C511.914 634.751 510.832 635.659 510.014 636.768C508.997 638.007 508.197 639.394 507.644 640.877C506.43 644.167 506.249 647.724 507.122 651.111C507.539 652.628 508.217 654.069 509.13 655.373C509.88 656.541 510.911 657.522 512.137 658.233C513.363 658.945 514.749 659.366 516.179 659.463C520.377 659.597 524.474 653.472 528.23 654.01L527.687 671.808C527.406 680.851 527.446 684.48 529.455 685.92C531.463 687.36 535.48 686.65 542.951 686.669L560.584 686.803C559.962 682.464 556.045 677.952 556.065 673.152C556.065 665.875 560.725 660.019 566.368 660.058C572.012 660.096 576.671 665.818 576.792 673.056C576.892 678.259 572.675 682.522 571.931 686.765L590.589 686.439C597.578 686.439 601.274 686.976 603.181 685.651C605.089 684.327 605.19 680.928 604.989 672.48C604.848 666.24 604.668 660.096 604.427 653.971C608.443 651.84 612.942 659.136 617.541 658.944C618.97 658.843 620.352 658.413 621.569 657.691C622.786 656.969 623.802 655.976 624.53 654.797C626.324 651.953 627.132 648.64 626.84 645.331C626.679 642.02 625.444 638.84 623.305 636.231C622.469 635.131 621.373 634.236 620.106 633.619C618.839 633.001 617.437 632.679 616.015 632.679C611.195 632.871 607.861 641.165 603.764 639.399C603.423 632.045 603.021 624.691 602.579 617.184C602.137 609.677 601.816 606.413 600.229 605.165C599.186 604.53 597.937 604.278 596.715 604.455C595.911 604.455 594.987 604.455 593.903 604.627C592.818 604.8 591.674 604.743 590.288 604.762Z" fill="#6CA3AE"/>
<path fill-rule="evenodd" clip-rule="evenodd" d="M662.649 600.48L647.466 601.843L638.709 602.419L630.013 602.976C626.398 603.206 621.739 603.61 614.89 603.821C602.177 604.358 602.237 601.498 602.96 618.509L603.844 639.456C607.861 640.992 611.195 632.87 615.894 632.678C617.313 632.682 618.711 633.006 619.974 633.623C621.237 634.24 622.33 635.133 623.165 636.23C625.264 638.869 626.495 642.045 626.703 645.354C626.91 648.663 626.084 651.957 624.329 654.816C623.597 655.998 622.578 656.994 621.358 657.719C620.138 658.444 618.753 658.878 617.32 658.982C612.781 659.174 608.283 652.032 604.366 653.914L605.109 671.482C605.873 689.53 606.415 685.958 621.457 685.344L626.237 685.133L630.254 684.864L636.58 684.461L645.116 683.885L653.732 683.328C654.615 683.328 655.6 683.194 656.664 683.078L660.118 682.771L669.015 681.984C682.933 680.717 684.058 683.904 682.351 667.181C681.728 660.864 681.046 654.624 680.343 648.422C676.768 648.826 673.695 654.912 669.658 655.277C664.015 655.795 658.893 650.342 658.19 643.104C657.487 635.866 661.384 629.568 666.846 629.088C671.084 628.685 675.181 634.733 678.696 634.541C677.792 627.13 676.828 619.718 675.804 612.154C673.876 597.139 673.675 599.482 662.649 600.48Z" fill="#E8AD30"/>
<path fill-rule="evenodd" clip-rule="evenodd" d="M734.307 591.418L724.928 592.973L715.489 594.279C716.975 597.696 721.213 600.73 721.956 605.088C723.04 611.405 719.526 617.165 714.103 617.914C708.681 618.663 703.519 614.074 702.595 607.796C701.993 603.764 704.804 599.501 704.985 595.757L702.194 596.141L699.302 596.544L696.008 596.909L686.99 597.946C674.378 599.405 674.217 596.564 676.225 613.479L678.736 634.599C675.141 635.271 670.903 628.839 666.505 629.184C661.042 629.664 657.166 635.943 657.849 643.2C658.532 650.458 663.673 655.892 669.297 655.392C673.474 655.008 676.627 648.461 680.383 648.519L682.391 666.221C684.52 684.173 684.801 680.583 699.763 678.855L708.54 677.837L711.773 677.453L714.585 677.069L717.316 676.685C716.031 672.48 711.472 668.583 710.769 663.84C709.725 656.621 713.38 650.151 718.963 649.364C724.547 648.576 730.09 653.78 731.315 660.884C732.178 666.01 728.644 670.772 728.563 675.034L737.802 673.748C738.967 673.594 740.111 673.402 741.196 673.229L744.148 672.73L747.02 672.269C760.818 669.984 762.183 673.191 759.191 656.544C758.066 650.381 756.941 644.333 755.777 638.304C759.372 635.751 764.995 642.279 769.494 641.434C775.057 640.378 778.27 633.754 776.643 626.65C775.017 619.546 769.373 614.592 763.991 615.61C761.621 616.052 759.974 618.452 758.327 620.583C756.68 622.714 755.074 624.557 752.925 623.943C751.459 616.724 749.932 609.485 748.326 602.112C745.193 587.348 745.193 589.632 734.307 591.418Z" fill="#CF4745"/>
<path fill-rule="evenodd" clip-rule="evenodd" d="M805.122 577.421L800.523 578.535L798.514 579.034L796.626 579.437L790.38 580.781L781.865 582.701L778.009 583.527L775.84 583.988L774.655 584.237L773.369 584.487L758.568 587.29C755.475 587.885 753.105 588.154 751.378 588.48C749.651 588.807 748.526 589.152 747.924 589.978C746.678 591.629 747.401 595.104 749.088 603.418L753.105 624.02C757.383 625.095 759.371 616.512 764.051 615.648C769.433 614.631 775.097 619.488 776.703 626.688C778.31 633.888 775.117 640.416 769.554 641.472C765.095 642.298 759.512 635.962 755.957 638.247L759.391 655.527C762.926 673.248 762.966 669.812 777.768 667.047L792.71 664.148L801.085 662.362L809.5 660.557L815.766 659.194L819.783 658.33L824.482 657.197C838.079 653.933 839.706 657.005 835.347 640.628C833.701 634.464 832.054 628.397 830.367 622.368C826.892 623.232 824.824 629.741 820.907 630.682C819.494 630.971 818.029 630.936 816.632 630.579C815.235 630.222 813.948 629.553 812.874 628.628C810.237 626.432 808.395 623.495 807.612 620.237C806.725 617.035 806.893 613.649 808.094 610.541C808.549 609.262 809.316 608.105 810.333 607.167C811.349 606.228 812.585 605.536 813.938 605.146C817.955 604.167 823.056 609.524 826.511 608.852C824.502 601.671 822.293 594.452 820.064 587.117C815.625 572.506 815.826 574.848 805.122 577.421Z" fill="#2A375F"/>
<path fill-rule="evenodd" clip-rule="evenodd" d="M874.712 558.356L871.9 559.258L869.028 560.161L867.401 560.679L865.694 561.178L856.637 563.828C858.645 566.977 863.324 569.396 864.77 573.581C866.779 579.668 864.349 585.869 859.107 587.405C857.798 587.759 856.423 587.825 855.084 587.599C853.745 587.373 852.477 586.861 851.375 586.1C848.834 584.354 846.975 581.847 846.093 578.977C844.868 575.137 846.956 570.548 846.535 566.785L845.791 567.015L843.783 567.553L837.758 569.146L829.062 571.469C826.009 572.276 823.679 572.717 821.992 573.159C820.305 573.601 819.201 574.023 818.659 574.887C817.554 576.615 818.659 580.033 820.928 588.327L826.772 608.794C823.318 609.965 818.116 604.167 813.838 605.204C812.486 605.584 811.25 606.272 810.236 607.208C809.221 608.144 808.459 609.301 808.014 610.58C807.418 612.034 807.072 613.57 806.99 615.13C806.804 618.624 807.705 622.091 809.581 625.095C810.426 626.449 811.506 627.657 812.774 628.666C813.845 629.596 815.133 630.267 816.53 630.625C817.928 630.982 819.394 631.015 820.807 630.721C824.824 629.741 826.933 622.791 830.648 622.33L835.569 639.61C838.059 648.327 839.224 651.802 841.594 652.647C842.241 652.849 842.928 652.908 843.602 652.82C844.028 652.781 844.45 652.717 844.868 652.628C845.33 652.532 845.812 652.397 846.334 652.244C848.342 651.629 851.134 650.689 854.769 649.709L863.304 647.444L869.149 645.869L871.157 645.332L871.86 644.948C870.635 642.879 869.129 640.975 867.381 639.284C865.578 637.523 864.177 635.425 863.264 633.121C862.185 629.964 862.185 626.562 863.264 623.405C863.673 622.08 864.405 620.867 865.4 619.866C866.395 618.864 867.625 618.103 868.988 617.645C874.391 616.071 880.697 620.41 883.047 627.245C884.754 632.199 882.022 637.402 882.625 641.645L891.763 639.188L895.036 638.209L897.969 637.268L900.74 636.385C914.036 632.141 915.903 635.098 910.179 619.105C908.071 613.172 905.962 607.354 903.793 601.556C906.946 598.522 913.574 604.167 917.851 602.669C923.174 600.749 925.242 593.818 922.471 587.041C919.699 580.263 913.252 576.173 908.111 577.94C903.592 579.495 903.07 588.423 898.571 587.789C895.92 580.858 893.209 573.927 890.417 566.861C884.754 552.788 885.135 555.015 874.712 558.356Z" fill="#6CA3AE"/>
<path fill-rule="evenodd" clip-rule="evenodd" d="M942.051 534.355L934.018 537.581L932.371 538.253L930.824 538.81L928.093 539.827L920.059 542.861L912.026 545.856C908.672 547.066 904.294 548.544 897.967 550.771C895.015 551.789 892.726 552.384 891.079 552.96C889.432 553.536 888.388 554.035 887.906 554.88C886.962 556.685 888.267 560.007 891.3 568.051L898.751 587.808C903.149 588.25 903.691 579.495 908.17 577.959C913.311 576.192 919.738 580.243 922.51 587.059C925.281 593.875 923.233 600.845 917.91 602.688C913.633 604.147 907.105 598.675 903.852 601.459L910.018 618.067C916.424 635.079 915.882 631.661 930.101 626.707L938.436 623.827C940.766 623.021 942.734 622.368 944.461 621.735L952.494 618.739L960.528 615.744C962.215 615.111 964.183 614.4 966.553 613.498L974.807 610.195C987.721 605.011 989.85 607.815 982.841 592.301C980.163 586.439 977.485 580.679 974.807 575.021C971.514 576.403 970.57 583.085 966.774 584.621C961.572 586.714 954.904 582.97 951.912 576.269C948.919 569.568 950.566 562.464 955.607 560.448C959.504 558.874 965.368 563.443 968.662 562.368C965.388 555.571 962.054 548.775 958.62 541.863C951.571 528.019 952.193 530.285 942.051 534.355Z" fill="#E8AD30"/>
<path fill-rule="evenodd" clip-rule="evenodd" d="M1006.9 505.421L998.506 509.511L992.742 512.333L990.071 513.562C991.588 515.011 993.264 516.299 995.072 517.402C996.997 518.553 998.608 520.126 999.771 521.991C1000.52 523.353 1001.03 524.826 1001.28 526.349C1001.55 527.732 1001.55 529.151 1001.28 530.535C1001.04 531.796 1000.49 532.987 999.685 534.013C998.88 535.039 997.837 535.872 996.638 536.448C991.738 538.695 985.331 535.834 982.359 530.055C980.471 526.387 981.736 521.549 980.672 517.939L972.638 521.626L964.444 525.158C952.977 530.074 951.892 527.405 959.323 542.957L968.561 562.311C965.348 563.943 959.202 558.989 955.166 560.602C950.125 562.637 948.478 569.703 951.47 576.423C954.463 583.143 961.11 586.887 966.332 584.794C970.188 583.258 971.072 576.096 974.667 575.194L982.319 591.341C990.191 607.853 989.288 604.339 1003.06 598.426L1005.6 597.351L1011.1 595.027L1019.13 591.379C1016.52 587.731 1010.86 585.331 1008.63 581.011C1005.25 574.445 1006.62 567.245 1011.72 564.922C1013.06 564.373 1014.51 564.129 1015.97 564.209C1017.42 564.289 1018.83 564.691 1020.1 565.383C1021.59 566.094 1022.94 567.034 1024.11 568.167C1025.41 569.41 1026.5 570.835 1027.35 572.391C1028.44 574.702 1028.95 577.228 1028.83 579.763C1028.69 582.081 1028.88 584.406 1029.39 586.675L1032.05 585.466L1037.77 582.682L1046.1 578.611C1049.24 577.095 1051.73 576.115 1053.56 575.271C1054.99 574.761 1056.23 573.851 1057.11 572.659C1058.19 570.643 1056.67 567.571 1052.45 560.103C1049.34 554.573 1046.22 549.158 1043.09 543.763C1045.62 540.211 1053.13 544.858 1057.15 542.765C1058.38 542.065 1059.41 541.085 1060.14 539.912C1060.88 538.74 1061.3 537.411 1061.37 536.045C1061.63 532.729 1060.78 529.421 1058.94 526.598C1057.18 523.687 1054.54 521.356 1051.37 519.917C1050.1 519.321 1048.7 519.01 1047.29 519.01C1045.88 519.01 1044.48 519.321 1043.21 519.917C1039.01 522.087 1040 530.899 1035.48 531.015C1031.66 524.583 1027.79 518.17 1023.81 511.623C1019.83 505.075 1017.97 502.311 1015.96 501.85C1014.74 501.703 1013.51 501.99 1012.5 502.656L1010.07 503.923C1009.17 504.288 1008.13 504.787 1006.9 505.421Z" fill="#CF4745"/>
<path fill-rule="evenodd" clip-rule="evenodd" d="M1068.94 471.495C1067.51 472.359 1066.21 473.184 1064.92 473.914L1061.49 475.834L1056.09 478.963L1048.72 483.245C1046.57 484.474 1044.36 485.645 1041.28 487.354L1035.84 490.33L1032.39 492.25C1031.14 492.941 1029.82 493.69 1028.37 494.439C1017.36 500.199 1016.04 497.568 1024.84 512.487L1035.64 530.861C1040 530.554 1039.08 521.914 1043.23 519.763C1044.5 519.167 1045.9 518.857 1047.31 518.857C1048.72 518.857 1050.12 519.167 1051.39 519.763C1054.56 521.202 1057.2 523.533 1058.96 526.445C1060.8 529.267 1061.65 532.576 1061.39 535.891C1061.32 537.257 1060.9 538.586 1060.16 539.759C1059.43 540.932 1058.4 541.912 1057.17 542.611C1053.15 544.666 1045.72 540.173 1043.11 543.495L1052.19 558.855C1061.51 574.695 1060.22 571.277 1073.58 564.384C1085.63 557.799 1089.89 555.475 1094.2 553.056L1101.6 548.947L1107.1 545.76L1110.59 543.725L1112.6 542.554L1114.73 541.267C1126.54 534.029 1129.15 536.467 1119.35 522.279C1115.65 516.941 1112 511.68 1108.3 506.477C1105.31 508.397 1105.61 515.136 1102.28 517.229C1101.08 517.962 1099.69 518.367 1098.26 518.4C1097.54 518.441 1096.82 518.396 1096.11 518.266C1095.36 518.142 1094.62 517.942 1093.9 517.671C1090.64 516.372 1087.89 514.138 1086.01 511.277C1084.07 508.533 1083.07 505.277 1083.16 501.965C1083.2 501.26 1083.31 500.56 1083.48 499.872C1083.65 499.209 1083.89 498.566 1084.2 497.952C1084.79 496.787 1085.7 495.798 1086.83 495.091C1090.39 492.922 1096.88 496.493 1099.99 494.823C1095.53 488.64 1091.01 482.458 1086.37 476.199C1077.09 463.719 1078.1 465.869 1068.94 471.495Z" fill="#2A375F"/>
<path fill-rule="evenodd" clip-rule="evenodd" d="M1127.5 432.557L1120.05 437.933L1114.87 441.62C1114.19 442.119 1113.59 442.503 1113.16 442.791L1112.5 443.252C1114.27 444.415 1116.16 445.399 1118.14 446.189C1120.26 447.033 1122.13 448.35 1123.61 450.029C1125.56 452.338 1126.63 455.219 1126.62 458.189C1126.62 459.464 1126.32 460.722 1125.72 461.862C1125.12 463.003 1124.26 463.994 1123.19 464.756C1118.77 467.77 1111.96 465.965 1107.96 460.762C1105.43 457.44 1105.75 452.487 1103.95 449.108L1101.68 450.644C1100.31 451.565 1098.52 452.832 1096.66 454.004L1089.28 458.765C1086.69 460.436 1084.67 461.549 1083.26 462.471C1081.85 463.392 1080.95 464.122 1080.75 465.12C1080.31 467.04 1082.46 469.997 1087.54 477.082L1100.17 494.688C1097.3 496.82 1090.37 492.903 1086.69 495.168C1085.56 495.863 1084.65 496.847 1084.06 498.01C1083.75 498.622 1083.52 499.266 1083.36 499.93C1083.17 500.608 1083.06 501.303 1083.02 502.004C1082.94 505.315 1083.94 508.568 1085.87 511.316C1087.75 514.177 1090.5 516.411 1093.76 517.709C1094.48 517.978 1095.22 518.184 1095.97 518.324C1096.69 518.435 1097.42 518.48 1098.14 518.458C1099.57 518.409 1100.95 517.998 1102.16 517.268C1105.67 515.117 1105.23 507.917 1108.59 506.343L1119.21 521.146C1129.95 536.141 1128.53 532.973 1141.02 524.832L1148.35 520.09L1149.72 519.207L1151.02 518.228L1153.33 516.653L1155.6 515.117C1152.35 511.968 1146.32 510.528 1143.33 506.612C1138.79 500.698 1138.81 493.364 1143.33 490.253C1144.55 489.49 1145.94 489.009 1147.39 488.849C1148.84 488.689 1150.31 488.854 1151.68 489.332C1155.05 490.375 1158 492.387 1160.12 495.092C1161.63 497.179 1162.6 499.582 1162.95 502.1C1163.25 504.414 1163.87 506.68 1164.8 508.839L1167.19 507.207L1172.33 503.501L1179.84 498.106C1181.18 497.108 1182.45 496.244 1183.64 495.514C1184.76 494.784 1185.65 494.112 1186.53 493.594C1187.86 492.852 1188.92 491.74 1189.56 490.407C1190.24 488.256 1188.16 485.492 1182.57 478.887C1178.46 473.972 1174.36 469.152 1170.24 464.372C1171.15 462.452 1173.7 462.26 1176.47 462.26C1179.24 462.26 1182.25 462.413 1183.98 461.012C1188.32 457.536 1187.69 450.279 1182.59 444.788C1177.49 439.296 1169.98 437.511 1165.82 440.832C1164.02 442.311 1163.81 445.095 1163.39 447.687C1162.97 450.279 1162.59 452.602 1160.38 453.024C1155.4 447.264 1150.34 441.658 1145.16 435.898C1139.98 430.138 1137.65 427.7 1135.58 427.565C1134.37 427.628 1133.22 428.105 1132.34 428.909C1131.72 429.37 1131.04 429.927 1130.24 430.58C1129.43 431.232 1128.57 431.828 1127.5 432.557Z" fill="#6CA3AE"/>
<path fill-rule="evenodd" clip-rule="evenodd" d="M1181.29 389.012L1175 394.599L1172.55 396.768C1171.79 397.44 1171.07 398.036 1170.4 398.592L1164.02 403.968L1161.12 406.388L1159.5 407.77L1158.59 408.519L1157.63 409.287L1146.3 418.33L1144.61 419.636L1143.09 420.73C1142.12 421.383 1141.3 421.959 1140.64 422.477C1139.27 423.495 1138.51 424.301 1138.39 425.3C1138.17 427.22 1140.6 430.023 1146.42 436.628L1160.48 452.909C1162.59 452.41 1163.01 450.068 1163.35 447.514C1163.48 446.22 1163.71 444.936 1164.04 443.674C1164.19 443.1 1164.41 442.546 1164.7 442.023C1164.97 441.519 1165.34 441.069 1165.78 440.698C1169.94 437.376 1177.45 439.162 1182.55 444.653C1187.65 450.144 1188.28 457.421 1183.94 460.877C1182.23 462.279 1179.24 462.125 1176.51 462.144C1173.78 462.164 1171.25 462.26 1170.26 464.064L1182.13 477.716C1188.16 484.724 1190.83 487.45 1193.38 487.316C1194.99 487.003 1196.46 486.226 1197.6 485.088C1198.44 484.416 1199.38 483.61 1200.49 482.688C1201.59 481.767 1202.82 480.768 1204.28 479.54L1216.03 470.228C1218.76 467.962 1220.61 466.388 1222.5 464.794C1226.23 461.607 1230.15 458.554 1240.41 449.434C1242.98 447.149 1245.11 445.594 1246.66 444.25C1247.89 443.372 1248.82 442.162 1249.33 440.775C1249.79 438.548 1247.42 435.994 1241.14 429.908C1236.42 425.319 1231.74 420.845 1227.08 416.468C1225.81 417.677 1225.61 419.943 1225.37 422.228C1225.37 422.804 1225.25 423.38 1225.15 423.956C1225.07 424.495 1224.95 425.028 1224.79 425.549C1224.54 426.473 1224.03 427.315 1223.32 427.988C1222.23 428.88 1220.94 429.519 1219.54 429.852C1218.15 430.185 1216.69 430.204 1215.29 429.908C1211.88 429.163 1208.77 427.488 1206.33 425.085C1203.9 422.682 1202.24 419.655 1201.57 416.372C1201.28 415.074 1201.33 413.728 1201.72 412.454C1202.11 411.18 1202.82 410.019 1203.8 409.076C1205.33 407.712 1207.82 407.655 1210.39 407.578C1212.96 407.501 1215.33 407.578 1216.61 406.464C1210.97 401.204 1205.27 395.962 1199.4 390.644C1193.54 385.325 1191.03 383.194 1188.98 383.252C1187.79 383.42 1186.7 384.001 1185.93 384.884L1183.92 386.804C1183.16 387.36 1182.27 388.148 1181.29 389.012Z" fill="#E8AD30"/>
<path fill-rule="evenodd" clip-rule="evenodd" d="M1476.29 514.41C1476.17 510.837 1471.09 511.049 1467.58 510.261C1413.85 498.429 1360.18 481.449 1308.84 462.241C1299.27 458.669 1299.59 464.412 1304.83 466.409C1349.61 483.614 1395.49 498.087 1442.18 509.743C1446.38 510.78 1472.62 517.637 1474.77 516.696C1475.23 516.491 1475.62 516.169 1475.9 515.766C1476.19 515.364 1476.35 514.895 1476.38 514.41H1476.29ZM686.822 699.613C522.181 713.059 369.286 695.023 209.143 658.182C192.92 654.455 176.743 650.524 160.614 646.388C124.875 637.226 89.6577 626.93 54.782 615.079C48.2766 612.851 49.14 618.344 50.7663 619.305C55.1032 621.84 106.403 637.111 115.016 639.588C217.977 668.957 336.88 692.698 443.836 702.975C609.059 718.936 786.751 706.451 943.561 652.419C1047.97 616.116 1146.63 562.622 1229.09 490.823C1234.77 485.886 1271.64 453.002 1271.48 448.565C1271.48 446.395 1268.27 445.665 1266.34 447.374C1257.66 455.058 1248.79 465.353 1239.75 473.689C1161.45 546.026 1058.83 605.302 957.194 641.951C870.336 673.356 779.141 691.872 686.782 699.613H686.822Z" fill="#E9EBEC"/>
<path fill-rule="evenodd" clip-rule="evenodd" d="M662.092 583.39C508.696 595.157 368.839 576.107 221.249 536.666C186.982 527.448 153.158 516.946 119.936 504.738C113.569 502.4 113.348 507.881 116.24 509.031C140.343 518.613 171.054 527.908 196.262 535.172C375.929 586.59 565.841 609.741 751.915 577.813C897.437 552.171 1036.11 492.377 1149.35 401.154C1159.78 392.76 1154.23 390.421 1149.03 394.139C1136.98 402.763 1125.53 412.882 1113.12 421.871C980.974 517.598 826.976 570.051 662.092 583.39Z" fill="#2A375F"/>
<path fill-rule="evenodd" clip-rule="evenodd" d="M1069.33 33.0027C967.26 132.237 1034.17 281.28 1129.37 359.112C1131.06 360.497 1140.4 368.138 1140.6 362.191C1140.6 359.42 1126.99 349.373 1123.91 346.64C1070.81 299.949 1030.38 235.454 1024.46 165.513C1020.34 113.106 1038.37 67.3573 1078.78 31.6747C1083.04 27.8255 1079.3 23.0524 1072.63 29.8656C1071.49 30.9819 1070.49 31.9249 1069.33 33.0027Z" fill="#2A375F"/>
<path fill-rule="evenodd" clip-rule="evenodd" d="M1277.92 118.905C1315.78 180.843 1278.74 234.146 1281.77 241.03C1283.8 245.742 1288.06 237.185 1288.73 235.262C1299.11 205.745 1304.67 180.496 1297.22 149.595C1294.23 137.807 1285.51 117.636 1277.25 108.617C1275.01 106.194 1268.82 107.06 1275.21 115.097C1276.19 116.316 1277.1 117.587 1277.92 118.905Z" fill="#2A375F"/>
<path fill-rule="evenodd" clip-rule="evenodd" d="M1310.16 359.763L1306 357.843L1302.5 356.114L1297 353.407L1289.57 349.567C1285.27 347.283 1280.93 345.094 1269.69 338.7C1267.1 337.183 1265.25 335.935 1263.82 335.091C1262.85 334.302 1261.58 333.916 1260.31 334.015C1258.3 334.457 1256.29 337.452 1251.23 344.594L1239.02 362.182C1240.18 363.89 1242.69 363.545 1245.41 363.046C1248.12 362.547 1251.03 361.875 1253.04 363.046C1254.18 363.719 1255.11 364.674 1255.73 365.811C1256.39 367.032 1256.78 368.373 1256.87 369.747C1256.98 373.076 1256.06 376.363 1254.24 379.201C1252.42 382.04 1249.77 384.306 1246.61 385.721C1245.23 386.282 1243.74 386.569 1242.23 386.566C1240.82 386.537 1239.43 386.16 1238.22 385.471C1236.21 384.339 1235.42 381.631 1234.56 379.308C1233.7 376.985 1232.77 374.662 1230.54 374.354L1220.3 389.1C1215.04 396.684 1213.05 399.814 1214.06 402.041C1214.92 403.412 1216.2 404.497 1217.73 405.151C1219.74 406.207 1222.33 407.494 1225.76 409.414C1228.8 411.142 1231.39 412.543 1233.58 413.772L1236.63 415.462L1239.24 416.844C1242.45 418.553 1244.66 419.762 1246.91 420.914L1254.68 424.889C1256.31 425.753 1258.24 426.655 1260.51 427.788C1262.78 428.921 1265.45 430.246 1268.66 431.724C1271.88 433.202 1274.21 434.585 1276.03 435.564C1277.35 436.377 1278.88 436.804 1280.45 436.793C1282.84 436.467 1284.65 433.529 1288.73 426.003C1291.8 420.243 1294.75 414.713 1297.72 409.106C1295.6 408.627 1293.38 408.761 1291.34 409.491C1289.19 410.232 1286.85 410.279 1284.67 409.625C1283.4 408.986 1282.31 408.058 1281.51 406.923C1280.7 405.788 1280.2 404.48 1280.05 403.116C1279.61 399.792 1280.31 396.421 1282.06 393.516C1283.66 390.539 1286.18 388.101 1289.27 386.527C1290.49 385.845 1291.87 385.448 1293.29 385.368C1294.7 385.288 1296.12 385.527 1297.42 386.067C1299.31 386.931 1300.23 389.177 1301.1 391.347C1301.96 393.516 1302.74 395.705 1304.29 396.473C1307.72 389.753 1311.14 383.033 1314.59 376.083C1318.05 369.132 1319.33 366.252 1318.61 364.447C1318.03 363.446 1317.09 362.681 1315.96 362.297C1314.43 361.625 1312.55 360.876 1310.16 359.763Z" fill="#6CA3AE"/>
</svg>
