<svg width="65" height="64" viewBox="0 0 65 64" fill="none" xmlns="http://www.w3.org/2000/svg">
<g id="Group 1000003469">
<path id="Vector" d="M42.6754 63.944C40.35 64.1426 38.0281 63.523 36.108 62.1914C33.2096 59.9821 30.8468 60.7185 27.9704 62.2429C21.0067 65.8587 13.7056 63.7894 9.86052 57.0291C3.76276 46.3289 1.43666 34.4873 0.0498013 22.4174C-0.397808 18.5585 2.25115 18.4849 4.81207 18.1682C7.80591 17.8 9.07537 19.0225 9.28817 22.1375C9.85318 30.6432 11.0346 39.0752 14.4247 46.999C15.6032 49.9252 17.5385 52.4826 20.0308 54.4074C21.535 55.5415 23.2594 56.0275 24.9545 54.6283C26.6495 53.2291 26.378 51.5206 25.4681 49.79C22.3936 43.965 19.4438 38.1252 19.7153 31.2176C20.0161 23.7503 25.16 18.2639 32.1896 18.1461C38.4782 18.0504 44.4879 24.0375 44.5612 31.0335C44.62 37.2047 42.4406 42.8824 39.5862 48.3025C38.4635 50.4307 36.1814 52.8167 39.4688 54.864C42.4773 56.7271 44.4952 54.5178 46.2783 52.4411C51.158 46.7486 52.5962 39.7011 53.7556 32.6094C54.3279 29.0819 54.5481 25.4956 54.8563 21.9387C55.1791 18.1903 57.564 17.9105 60.5651 18.1977C63.5663 18.4849 64.7844 20.105 64.2928 23.0065C62.583 33.1691 60.932 43.339 56.5734 52.8167C53.0585 60.4681 48.8025 63.9661 42.6681 63.9661M31.9328 44.5173C34.5524 40.0546 36.0347 36.1884 36.0273 31.7846C36.0273 29.0525 35.1248 27.0347 32.0869 26.9684C29.049 26.9021 28.1465 29.2439 28.0144 31.7478C27.7722 36.0558 29.7388 39.7453 31.9328 44.5173Z" fill="#58B8C2"/>
<path id="Vector_2" d="M32.4032 0.00709648C36.6225 0.15438 39.7411 3.43881 39.4622 7.48912C39.2786 9.34547 38.4254 11.0705 37.0633 12.3399C35.7012 13.6092 33.9239 14.3355 32.0657 14.382C31.1039 14.374 30.1536 14.1718 29.2714 13.7875C28.3891 13.4033 27.5929 12.8448 26.9301 12.1453C26.2674 11.4458 25.7516 10.6196 25.4136 9.71598C25.0756 8.81231 24.9222 7.84963 24.9626 6.88525C25.0213 2.46673 27.8978 -0.154916 32.4032 0.00709648Z" fill="#58B8C2"/>
</g>
</svg>
