<svg width="100" height="87" viewBox="0 0 100 87" fill="none" xmlns="http://www.w3.org/2000/svg">
<g id="Group 1000003476">
<g id="Group 1000003468">
<path id="Vector" d="M58.0061 47.957C56.262 48.106 54.5206 47.6413 53.0806 46.6426C50.9068 44.9857 49.1347 45.5379 46.9774 46.6812C41.7548 49.393 36.279 47.8411 33.3953 42.7709C28.822 34.7459 27.0775 25.8648 26.0374 16.8125C25.7016 13.9185 27.6883 13.8632 29.609 13.6257C31.8543 13.3496 32.8064 14.2664 32.966 16.6027C33.3898 22.9818 34.2758 29.3057 36.8183 35.2485C37.7022 37.4431 39.1536 39.3611 41.0229 40.8047C42.151 41.6553 43.4443 42.0198 44.7156 40.9704C45.9868 39.921 45.7832 38.6397 45.1008 37.3417C42.7949 32.973 40.5826 28.5932 40.7862 23.4126C41.0119 17.8122 44.8697 13.6975 50.1418 13.6092C54.8582 13.5374 59.3654 18.0276 59.4204 23.2745C59.4644 27.9028 57.83 32.1611 55.6892 36.2261C54.8472 37.8222 53.1357 39.6117 55.6011 41.1471C57.8575 42.5445 59.3709 40.8875 60.7082 39.33C64.3679 35.0607 65.4465 29.7751 66.3161 24.4564C66.7453 21.8109 66.9104 19.1212 67.1416 16.4535C67.3837 13.6423 69.1723 13.4324 71.4232 13.6478C73.674 13.8632 74.5875 15.0783 74.2188 17.2544C72.9365 24.8762 71.6983 32.5035 68.4294 39.6117C65.7933 45.3502 62.6013 47.9736 58.0006 47.9736M49.9492 33.3872C51.9139 30.0403 53.0256 27.1406 53.0201 23.8379C53.0201 21.7888 52.3432 20.2755 50.0648 20.2258C47.7864 20.1761 47.1095 21.9324 47.0105 23.8102C46.8289 27.0412 48.3037 29.8083 49.9492 33.3872Z" fill="#58B8C2"/>
<path id="Vector_2" d="M50.3019 0.00532228C53.4663 0.115783 55.8052 2.57907 55.5961 5.61675C55.4583 7.00899 54.8185 8.30275 53.7969 9.25476C52.7753 10.2068 51.4424 10.7515 50.0487 10.7863C49.3274 10.7803 48.6147 10.6287 47.953 10.3405C47.2913 10.0523 46.6942 9.63344 46.1971 9.10883C45.7001 8.58423 45.3133 7.9646 45.0598 7.28687C44.8063 6.60913 44.6912 5.88713 44.7215 5.16386C44.7656 1.85002 46.9229 -0.116185 50.3019 0.00532228Z" fill="#58B8C2"/>
</g>
<g id="Group 1000003475">
<path id="Layer 2" fill-rule="evenodd" clip-rule="evenodd" d="M0 39.277V59.554L7 66.5L14 73.446V80.223V87H26.5H39V75.23V63.46L29.731 54.23C22.128 46.658 19.918 45 17.431 45C15.764 45 13.86 45.54 13.2 46.2C12.267 47.133 12 44.789 12 35.652C12 24.233 11.926 23.836 9.354 21.452C7.639 19.863 5.528 19 3.354 19H0V39.277ZM90.687 21.805C88.092 24.513 88 25.001 88 36.005C88 44.868 87.733 47.133 86.8 46.2C86.14 45.54 84.219 45 82.53 45C79.989 45 77.873 46.595 70.23 54.269L61 63.538V75.269V87H73.5H86V80.223V73.446L93 66.5L100 59.554V39.277V19H96.687C94.363 19 92.572 19.837 90.687 21.805Z" fill="#E5036F"/>
<path id="Layer 4" fill-rule="evenodd" clip-rule="evenodd" d="M0 39.277V59.554L7 66.5L14 73.446V80.223V87H26.5H39V75.23V63.46L29.731 54.23C22.128 46.658 19.918 45 17.431 45C15.764 45 13.86 45.54 13.2 46.2C12.267 47.133 12 44.789 12 35.652C12 24.233 11.926 23.836 9.354 21.452C7.639 19.863 5.528 19 3.354 19H0V39.277ZM90.687 21.805C88.092 24.513 88 25.001 88 36.005C88 44.868 87.733 47.133 86.8 46.2C86.14 45.54 84.219 45 82.53 45C79.989 45 77.873 46.595 70.23 54.269L61 63.538V72.269V81H73.5H86V77.223C86 73.875 86.795 72.657 93 66.5L100 59.554V39.277V19H96.687C94.363 19 92.572 19.837 90.687 21.805Z" fill="#006E9E"/>
<path id="Layer 7" fill-rule="evenodd" clip-rule="evenodd" d="M0 39.277V59.554L7 66.5C13.205 72.657 14 73.875 14 77.223V81H26.5H39V72.23V63.46L29.731 54.23C22.128 46.658 19.918 45 17.431 45C15.764 45 13.86 45.54 13.2 46.2C12.267 47.133 12 44.789 12 35.652C12 24.233 11.926 23.836 9.354 21.452C7.639 19.863 5.528 19 3.354 19H0V39.277ZM90.687 21.805C88.092 24.513 88 25.001 88 36.005C88 44.868 87.733 47.133 86.8 46.2C86.14 45.54 84.219 45 82.53 45C79.989 45 77.873 46.595 70.23 54.269L61 63.538V72.269V81H73.5H86V77.223C86 73.875 86.795 72.657 93 66.5L100 59.554V39.277V19H96.687C94.363 19 92.572 19.837 90.687 21.805Z" fill="#FDB7A8"/>
<path id="Vector 1" d="M70 63.9024L86.5343 47.4855C86.7755 47.246 87.1807 47.3125 87.3132 47.6256C88.4342 50.2747 88.0343 52.5532 87.1736 54.8118C87.0769 55.0656 86.9239 55.2938 86.7312 55.4852L74.1269 68L70 63.9024Z" fill="#F89E99"/>
<path id="Vector 2" d="M30 63.9024L13.4657 47.4855C13.2245 47.246 12.8193 47.3125 12.6868 47.6256C11.5658 50.2747 11.9657 52.5532 12.8264 54.8118C12.9231 55.0656 13.0761 55.2938 13.2688 55.4852L25.8731 68L30 63.9024Z" fill="#F89E99"/>
</g>
</g>
</svg>
