<svg width="40" height="40" viewBox="0 0 40 40" fill="none" xmlns="http://www.w3.org/2000/svg">
<path fill-rule="evenodd" clip-rule="evenodd" d="M12.5 5H27.5067C31.645 5 35 8.355 35 12.4933V27.5083C35 31.645 31.645 35 27.5067 35H12.4933C8.355 35 5 31.645 5 27.5067V12.5C5 8.35833 8.35833 5 12.5 5V5Z" stroke="white" stroke-width="1.5" stroke-linecap="round" stroke-linejoin="round"/>
<path fill-rule="evenodd" clip-rule="evenodd" d="M25.425 15.375C25.425 12.38 22.9967 9.95 20 9.95C17.0033 9.95 14.575 12.3783 14.575 15.375C14.575 20.1233 14.3383 22.4967 10 24.395C12.2217 25.375 12.2217 25.375 13.3333 27.7283C16.6667 27.7283 17.7783 29.95 20 29.95C22.2217 29.95 23.3333 27.7283 26.6667 27.7283C27.7783 25.375 27.7783 25.375 30 24.395C25.66 22.495 25.425 20.1217 25.425 15.375Z" stroke="white" stroke-width="1.5" stroke-linecap="round" stroke-linejoin="round"/>
<path d="M10 24.395C14.445 22.0417 14.445 19.82 11.1117 16.4867" stroke="white" stroke-width="1.5" stroke-linecap="round" stroke-linejoin="round"/>
<path d="M29.9999 24.395C25.5549 22.0417 25.5549 19.82 28.8882 16.4867" stroke="white" stroke-width="1.5" stroke-linecap="round" stroke-linejoin="round"/>
</svg>
