<svg width="40" height="40" viewBox="0 0 40 40" fill="none" xmlns="http://www.w3.org/2000/svg">
<path fill-rule="evenodd" clip-rule="evenodd" d="M12.5 5H27.5067C31.645 5 35 8.355 35 12.4933V27.5083C35 31.645 31.645 35 27.5067 35H12.4933C8.355 35 5 31.645 5 27.5067V12.5C5 8.35833 8.35833 5 12.5 5V5Z" stroke="white" stroke-width="1.5" stroke-linecap="round" stroke-linejoin="round"/>
<path d="M29.1665 17.5833C29.1665 17.1691 28.8307 16.8333 28.4165 16.8333C28.0023 16.8333 27.6665 17.1691 27.6665 17.5833H29.1665ZM11.0221 25.1409C10.7777 24.8064 10.3085 24.7334 9.97406 24.9777C9.6396 25.2221 9.56656 25.6913 9.81091 26.0258L11.0221 25.1409ZM10.2995 24.8425C9.89039 24.9071 9.61108 25.2912 9.67568 25.7003C9.74028 26.1094 10.1243 26.3888 10.5335 26.3242L10.2995 24.8425ZM13.4165 24.5833L13.6549 25.2944C13.9004 25.2121 14.0861 25.009 14.1461 24.757C14.2061 24.5051 14.1318 24.24 13.9497 24.0559L13.4165 24.5833ZM12.4165 12.5833L13.0771 12.2282C12.9545 12.0002 12.723 11.8515 12.4646 11.8349C12.2062 11.8183 11.9575 11.9362 11.8067 12.1467L12.4165 12.5833ZM18.4165 17.5833L18.2392 18.3121C18.4586 18.3654 18.6904 18.3171 18.8702 18.1806C19.05 18.044 19.1587 17.8337 19.1661 17.608L18.4165 17.5833ZM27.4165 14.5833L26.7905 14.9964C26.9293 15.2068 27.1645 15.3333 27.4165 15.3333V14.5833ZM30.4165 14.5833L31.0405 14.9994C31.194 14.7692 31.2083 14.4733 31.0778 14.2294C30.9472 13.9856 30.6931 13.8333 30.4165 13.8333V14.5833ZM27.7925 17.1673C27.5627 17.5119 27.6558 17.9776 28.0005 18.2074C28.3451 18.4371 28.8108 18.344 29.0405 17.9994L27.7925 17.1673ZM27.6665 17.5833C27.6665 20.9453 26.7066 23.7543 24.9791 25.7121C23.2619 27.6583 20.7258 28.8333 17.4165 28.8333V30.3333C21.1072 30.3333 24.0711 29.0084 26.1039 26.7045C28.1264 24.4123 29.1665 21.2214 29.1665 17.5833H27.6665ZM17.4165 28.8333C15.5611 28.8333 14.3139 28.3535 13.3735 27.688C12.4102 27.0063 11.724 26.1017 11.0221 25.1409L9.81091 26.0258C10.5056 26.9767 11.3195 28.072 12.507 28.9124C13.7175 29.769 15.2719 30.3333 17.4165 30.3333V28.8333ZM10.5335 26.3242C10.5599 26.32 10.5804 26.3153 10.5872 26.3137C10.5967 26.3114 10.6044 26.3095 10.6089 26.3083C10.6181 26.3058 10.6256 26.3037 10.6294 26.3026C10.6376 26.3002 10.6451 26.2979 10.65 26.2964C10.6605 26.2931 10.6728 26.2892 10.6853 26.2852C10.711 26.2769 10.7463 26.2654 10.7888 26.2514C10.8742 26.2233 10.9936 26.1837 11.1352 26.1367C11.4185 26.0425 11.793 25.9175 12.1661 25.7928C12.5393 25.668 12.9115 25.5434 13.1904 25.4501C13.3298 25.4034 13.4459 25.3645 13.5272 25.3372C13.5678 25.3236 13.5997 25.3129 13.6215 25.3056C13.6324 25.302 13.6407 25.2992 13.6463 25.2973C13.6491 25.2964 13.6513 25.2956 13.6527 25.2952C13.6534 25.2949 13.654 25.2947 13.6543 25.2946C13.6545 25.2946 13.6546 25.2945 13.6547 25.2945C13.6548 25.2945 13.6548 25.2945 13.6548 25.2945C13.6549 25.2944 13.6549 25.2944 13.4165 24.5833C13.1781 23.8722 13.1781 23.8722 13.1781 23.8722C13.1781 23.8722 13.178 23.8722 13.178 23.8723C13.1779 23.8723 13.1778 23.8723 13.1776 23.8724C13.1772 23.8725 13.1767 23.8727 13.176 23.8729C13.1746 23.8734 13.1724 23.8741 13.1696 23.8751C13.164 23.8769 13.1557 23.8797 13.1448 23.8834C13.1231 23.8907 13.0912 23.9013 13.0506 23.915C12.9694 23.9422 12.8534 23.981 12.714 24.0277C12.4353 24.121 12.0635 24.2455 11.6906 24.3701C11.3177 24.4948 10.9442 24.6195 10.662 24.7133C10.5209 24.7602 10.4032 24.7992 10.3202 24.8265C10.2785 24.8402 10.2467 24.8505 10.2255 24.8574C10.2146 24.8609 10.2084 24.8629 10.2058 24.8637C10.2041 24.8642 10.2064 24.8634 10.2108 24.8622C10.2128 24.8616 10.2187 24.8599 10.2266 24.8578C10.2306 24.8568 10.2377 24.8549 10.2468 24.8528C10.2532 24.8513 10.2733 24.8466 10.2995 24.8425L10.5335 26.3242ZM13.9497 24.0559C10.8719 20.9443 10.6414 16.3506 13.0263 13.02L11.8067 12.1467C9.00498 16.0594 9.28111 21.469 12.8833 25.1108L13.9497 24.0559ZM11.7559 12.9384C13.0591 15.3629 15.5085 17.6478 18.2392 18.3121L18.5938 16.8546C16.3779 16.3155 14.2339 14.3804 13.0771 12.2282L11.7559 12.9384ZM19.1661 17.608C19.2082 16.328 19.6604 15.2639 20.3838 14.5248C21.1031 13.7897 22.1317 13.3333 23.4165 13.3333V11.8333C21.7564 11.8333 20.3324 12.4327 19.3117 13.4756C18.2951 14.5144 17.7198 15.9503 17.6669 17.5587L19.1661 17.608ZM23.4165 13.3333C24.322 13.3333 24.9918 13.5054 25.5096 13.7818C26.0258 14.0574 26.4374 14.4613 26.7905 14.9964L28.0425 14.1702C27.5806 13.4703 26.9947 12.8742 26.2159 12.4586C25.4388 12.0437 24.516 11.8333 23.4165 11.8333V13.3333ZM27.4165 15.3333H30.4165V13.8333H27.4165V15.3333ZM29.7925 14.1673L27.7925 17.1673L29.0405 17.9994L31.0405 14.9994L29.7925 14.1673Z" fill="white"/>
</svg>
