<svg width="1688" height="1121" viewBox="0 0 1688 1121" fill="none" xmlns="http://www.w3.org/2000/svg">
<path fill-rule="evenodd" clip-rule="evenodd" d="M0 599.9V1121H1686.3L1686.3 541.777C1654.22 531.218 1615.76 529.095 1580.32 511.223C1507.5 494.597 1447.17 455.881 1439.21 450.766C1431.25 445.65 1383 373.667 1383 373.667L1359.58 406.56C1359.58 406.56 1299.27 538.83 1157.58 615.428C1036.45 707.607 889.415 728.069 796.309 740.891C703.203 753.713 592.791 789.522 401.43 740.891C210.068 692.26 101.313 656.549 50.409 615.428C24.3725 594.474 8.99361 610.131 0 599.9Z" fill="#171E46"/>
<path fill-rule="evenodd" clip-rule="evenodd" d="M1383.21 382.133L1382.67 382.83L1382.06 383.617C1381.82 383.932 1381.55 384.269 1381.23 384.629C1380.04 386.113 1378.42 388.07 1376.74 390.027C1375.05 391.984 1373.52 393.985 1372.24 395.447L1370.78 397.246L1370.21 397.898C1372.43 398.788 1374.74 399.422 1377.09 399.788C1379.62 400.216 1382.01 401.199 1384.11 402.666C1386.88 404.801 1388.87 407.788 1389.78 411.168C1390.11 412.649 1390.11 414.185 1389.78 415.666C1389.47 417.097 1388.8 418.427 1387.84 419.534C1386.82 420.642 1385.56 421.503 1384.16 422.052C1382.76 422.601 1381.25 422.825 1379.75 422.705C1376.23 422.481 1372.89 421.097 1370.24 418.769C1366.55 415.643 1365.47 409.976 1362.64 406.557L1360.66 408.806L1358.61 411.055L1356.18 413.709L1349.57 420.906C1348.43 422.165 1347.33 423.155 1346.45 424.145C1345.57 425.134 1344.7 425.809 1344.04 426.506C1342.69 427.878 1341.97 428.913 1342.02 430.082C1342.02 432.331 1321.09 445.105 1328.53 451.965L1353.82 475.355C1352.56 476.907 1349.78 477.019 1346.9 477.154C1345.48 477.179 1344.07 477.322 1342.67 477.581C1342.04 477.701 1341.42 477.898 1340.83 478.166C1340.27 478.399 1339.76 478.735 1339.32 479.156C1337.07 481.405 1336.65 486.375 1337.68 490.064C1339.02 493.586 1341.21 496.723 1344.06 499.198C1346.9 501.673 1350.31 503.41 1353.98 504.255C1355.57 504.574 1357.21 504.518 1358.77 504.092C1360.33 503.667 1361.77 502.883 1362.97 501.803C1363.39 501.389 1363.73 500.911 1363.99 500.387C1364.24 499.806 1364.43 499.203 1364.57 498.587C1364.82 497.236 1364.98 495.868 1365.04 494.494C1365.27 491.705 1365.45 489.029 1367.09 487.747C1371.92 492.852 1389.57 513.229 1395.78 511.992C1397.17 511.699 1404.62 504.862 1406.28 502.995L1407.63 501.489L1409.11 499.712C1410.17 498.452 1411.36 497.013 1412.84 495.461L1419.59 488.084L1422.06 485.363L1424.18 482.934L1426.22 480.573C1421.73 477.806 1414.8 477.761 1410.48 474.051C1407.45 471.557 1405.27 468.175 1404.26 464.38C1403.81 462.848 1403.73 461.23 1404.04 459.664C1404.35 458.098 1405.03 456.629 1406.03 455.384C1407.07 454.197 1408.41 453.305 1409.9 452.797C1411.5 452.259 1413.18 452.03 1414.87 452.122C1418.83 452.397 1422.6 453.89 1425.68 456.396C1427.93 458.367 1429.68 460.851 1430.76 463.637C1431.39 464.987 1431.96 466.314 1432.59 467.573C1433.15 468.768 1433.86 469.887 1434.7 470.902L1435.31 470.205L1436.83 468.338C1438.09 466.809 1450.75 452.595 1452.42 450.616L1459.16 442.407C1468.9 429.812 1472.65 431.476 1456.53 419.489C1450.57 414.991 1444.68 410.74 1438.77 406.445C1438.89 405.863 1439.14 405.316 1439.51 404.848C1439.88 404.38 1440.35 404.003 1440.88 403.746C1442.14 403.095 1443.48 402.604 1444.86 402.284C1447.83 401.474 1451.11 400.755 1452.62 398.686C1453.52 397.423 1454.07 395.938 1454.19 394.39C1454.33 392.746 1454.09 391.092 1453.5 389.555C1452.02 385.909 1449.43 382.823 1446.1 380.738C1442.83 378.52 1438.97 377.322 1435.01 377.297C1433.37 377.311 1431.73 377.631 1430.2 378.242C1428.82 378.828 1427.61 379.776 1426.72 380.986C1425.17 383.122 1425.8 386.383 1426.24 389.397C1426.51 390.782 1426.59 392.196 1426.49 393.603C1426.46 394.174 1426.27 394.725 1425.95 395.2C1425.63 395.674 1425.19 396.055 1424.67 396.302C1417.54 391.219 1410.35 386.181 1403 381.053C1388.45 370.888 1390.38 372.799 1383.21 382.133Z" fill="#CF4745"/>
<path fill-rule="evenodd" clip-rule="evenodd" d="M1425.98 319.16L1421.48 327.054C1420.8 328.179 1420.22 329.303 1419.66 330.158C1419.1 331.012 1418.51 331.957 1418.02 332.744C1415.97 335.96 1414.55 338.232 1413.14 340.481L1412.06 342.19C1411.88 342.482 1411.7 342.775 1411.5 343.067L1410.89 343.967L1408.08 348.105L1404.35 353.638C1403.6 354.717 1402.84 355.887 1401.94 357.146L1399.02 361.194C1395.06 366.615 1392.47 368.819 1392.86 371.09C1393.24 373.362 1396.68 375.813 1404.91 381.706L1425.14 396.257C1425.64 395.983 1426.06 395.583 1426.35 395.098C1426.65 394.613 1426.81 394.059 1426.83 393.49C1426.91 392.098 1426.82 390.7 1426.56 389.33C1426.13 386.339 1425.53 383.122 1427.05 381.008C1427.95 379.798 1429.15 378.851 1430.54 378.265C1432.07 377.654 1433.7 377.333 1435.35 377.32C1439.3 377.345 1443.16 378.543 1446.44 380.761C1449.77 382.846 1452.36 385.932 1453.83 389.577C1454.43 391.115 1454.67 392.769 1454.53 394.413C1454.41 395.961 1453.86 397.446 1452.96 398.708C1451.47 400.755 1448.26 401.474 1445.31 402.284C1443.93 402.594 1442.6 403.07 1441.33 403.701C1440.79 403.943 1440.31 404.299 1439.92 404.746C1439.53 405.193 1439.25 405.719 1439.08 406.287L1456.08 418.477C1464.81 424.752 1468.45 427.113 1471.21 426.214C1473.98 425.314 1475.71 420.996 1480.77 414.002L1482.43 411.753L1483.2 410.673L1483.94 409.593C1484.88 408.199 1485.74 406.917 1486.55 405.748L1490.64 399.72C1491.79 398.011 1492.75 396.572 1493.65 395.222C1494.55 393.873 1495.27 392.658 1496.04 391.466C1497.59 389.037 1499.12 386.586 1501.34 383.055L1503.16 380.176L1504.17 378.557L1505.23 376.758L1510.47 367.762C1511.48 366.03 1512.43 364.5 1513.28 363.263C1514.14 362.026 1514.83 360.745 1515.53 359.733C1516.57 358.295 1517.17 356.582 1517.24 354.807C1516.97 352.108 1513.51 350.039 1504.6 345.316C1497.9 341.793 1491.24 338.337 1484.61 334.948C1483.69 336.725 1484.28 339.311 1484.82 341.988C1485.11 343.283 1485.31 344.599 1485.42 345.923C1485.46 346.533 1485.42 347.144 1485.31 347.745C1485.22 348.307 1485.03 348.849 1484.75 349.342C1483.87 350.719 1482.67 351.868 1481.26 352.696C1479.85 353.524 1478.26 354.009 1476.63 354.11C1472.71 354.41 1468.78 353.499 1465.39 351.501C1461.94 349.627 1459.14 346.759 1457.34 343.27C1456.58 341.926 1456.17 340.415 1456.14 338.873C1456.11 337.331 1456.46 335.804 1457.16 334.431C1457.47 333.936 1457.86 333.495 1458.31 333.127C1458.78 332.733 1459.29 332.394 1459.84 332.114C1461.05 331.529 1462.3 331.04 1463.59 330.653C1466.24 329.82 1468.85 329.033 1469.84 327.414C1461.9 323.411 1453.88 319.452 1445.69 315.472C1437.51 311.491 1434.05 309.962 1431.89 310.636C1430.71 311.156 1429.78 312.117 1429.3 313.313C1428.29 314.662 1427.41 316.709 1425.98 319.16Z" fill="#6CA3AE"/>
<path fill-rule="evenodd" clip-rule="evenodd" d="M1453.56 254.14C1453.56 254.14 1453.32 255.22 1452.82 256.839C1452.6 257.649 1452.33 258.593 1452.06 259.605C1451.9 260.123 1451.76 260.64 1451.61 261.18C1451.45 261.72 1451.27 262.259 1451.11 262.777C1450.42 265.026 1449.81 267.117 1449.22 268.714C1448.64 270.311 1448.3 271.39 1448.3 271.39C1450.66 271.52 1453.03 271.4 1455.36 271.031C1457.89 270.623 1460.47 270.746 1462.94 271.39C1466.29 272.347 1469.25 274.358 1471.37 277.125C1472.25 278.307 1472.86 279.665 1473.17 281.106C1473.43 282.483 1473.31 283.905 1472.83 285.222C1472.32 286.528 1471.49 287.682 1470.4 288.573C1469.22 289.494 1467.86 290.16 1466.4 290.53C1462.98 291.336 1459.39 291.045 1456.15 289.697C1453.92 288.665 1451.91 287.223 1450.21 285.447C1448.56 283.759 1446.74 282.251 1444.77 280.949C1444.77 280.949 1444.34 281.961 1443.74 283.468C1443.42 284.232 1443.11 285.132 1442.68 286.054C1442.25 286.976 1441.83 288.011 1441.4 289.023C1440.97 290.035 1440.55 291.024 1440.12 291.969L1438.9 294.51C1438.23 296.017 1437.76 297.007 1437.76 297.007C1436.41 299.773 1435.17 301.73 1434.41 303.282C1434.05 303.941 1433.77 304.634 1433.55 305.351C1433.38 305.916 1433.38 306.518 1433.55 307.082C1434.32 309.219 1438.05 311.108 1447.2 315.674L1469.68 327.076C1468.92 328.898 1466.27 329.73 1463.55 330.607C1462.19 330.989 1460.88 331.486 1459.61 332.092C1459.04 332.376 1458.51 332.723 1458.02 333.126C1457.54 333.503 1457.14 333.96 1456.82 334.476C1456.11 335.842 1455.76 337.364 1455.78 338.904C1455.81 340.443 1456.22 341.952 1456.98 343.292C1458.79 346.784 1461.6 349.657 1465.05 351.546C1468.44 353.548 1472.37 354.459 1476.29 354.155C1477.93 354.059 1479.52 353.577 1480.93 352.748C1482.34 351.919 1483.53 350.767 1484.41 349.387C1484.71 348.876 1484.91 348.31 1485 347.722C1485.06 347.095 1485.06 346.461 1485 345.833C1484.87 344.448 1484.65 343.073 1484.34 341.717C1483.78 338.974 1483.24 336.32 1484.34 334.611L1503.86 344.146C1513.48 349.004 1517.35 350.781 1520.05 349.409C1521.63 348.312 1522.82 346.736 1523.44 344.911C1524.01 343.719 1524.61 342.302 1525.35 340.683L1526.34 338.029C1526.75 337.107 1527.2 336.117 1527.69 335.083L1529.11 332.024C1529.99 330.225 1531.02 327.729 1532.1 325.277C1532.64 324.04 1533.18 322.803 1533.67 321.634L1534.98 318.44L1536.24 315.314C1533.39 314.931 1530.51 314.931 1527.67 315.314C1524.76 315.695 1521.79 315.426 1518.99 314.527C1515.3 313.101 1512.15 310.543 1510 307.217C1509.1 305.801 1508.51 304.217 1508.24 302.562C1507.98 300.984 1508.13 299.365 1508.67 297.861C1509.25 296.366 1510.2 295.037 1511.41 293.993C1512.73 292.868 1514.26 292.019 1515.91 291.497C1519.74 290.28 1523.85 290.28 1527.67 291.497C1530.49 292.584 1532.98 294.363 1534.93 296.669C1536.74 298.835 1538.84 300.743 1541.16 302.337C1541.16 302.337 1541.61 300.965 1542.31 298.941C1542.64 297.906 1543.07 296.692 1543.48 295.455L1544.74 291.407C1545.16 290.035 1545.59 288.663 1545.97 287.381C1546.35 286.099 1546.69 284.862 1546.98 283.805C1547.57 281.736 1547.95 280.342 1547.95 280.342C1548.54 278.272 1549.03 276.428 1549.53 274.809C1550.02 273.19 1550.42 271.795 1550.76 270.581C1551.4 268.807 1551.53 266.892 1551.14 265.048C1550.18 262.372 1546.26 261.292 1536.37 259.156C1529.04 257.581 1521.82 256.097 1514.61 254.658C1513.89 252.184 1515.93 250.16 1518.32 248.158C1520.7 246.156 1523.26 243.952 1523.67 241.411C1523.84 239.772 1523.61 238.115 1523 236.585C1522.38 235.056 1521.4 233.701 1520.14 232.64C1517.13 230.013 1513.35 228.435 1509.37 228.142C1505.44 227.716 1501.47 228.418 1497.92 230.166C1496.53 230.763 1495.29 231.688 1494.32 232.862C1493.36 234.036 1492.69 235.425 1492.37 236.913C1491.97 239.409 1494.03 241.973 1495.81 244.469C1497.59 246.966 1498.96 249.35 1497.43 251.217C1488.77 249.552 1480.07 247.933 1471.19 246.336C1462.31 244.739 1458.42 244.087 1456.58 245.234C1456.1 245.578 1455.7 246.018 1455.41 246.525C1455.11 247.033 1454.93 247.597 1454.87 248.18L1454.33 250.744C1454.1 251.689 1453.88 252.881 1453.56 254.14Z" fill="#E8AD30"/>
<path fill-rule="evenodd" clip-rule="evenodd" d="M1459.18 188.941C1459.34 190.426 1459.43 191.82 1459.54 193.102C1459.66 194.384 1459.72 195.576 1459.79 196.678C1459.86 197.78 1459.79 198.792 1459.95 199.714C1460.11 200.636 1459.95 201.536 1459.95 202.346C1459.95 203.155 1459.95 203.897 1459.95 204.595C1459.95 205.292 1459.95 205.966 1459.95 206.619C1459.95 207.878 1459.95 209.025 1459.95 210.172C1459.95 211.319 1459.95 212.421 1459.79 213.726C1459.79 214.355 1459.79 215.03 1459.79 215.727C1459.79 216.424 1459.79 217.212 1459.61 217.976C1459.43 218.741 1459.61 219.663 1459.43 220.63C1459.25 221.597 1459.23 222.609 1459.12 223.734C1459.12 224.296 1459.12 224.881 1458.94 225.488C1458.76 226.095 1458.94 226.118 1458.94 226.433L1458.8 227.4C1458.62 228.727 1458.44 230.166 1458.24 231.718C1458.04 233.27 1457.74 234.417 1457.52 235.496C1457.3 236.576 1457.09 237.543 1456.94 238.33C1456.72 238.916 1456.65 239.542 1456.71 240.162C1456.78 240.782 1456.99 241.378 1457.32 241.906C1458.73 243.638 1462.92 244.425 1473.06 246.404L1497.79 251.194C1499.18 249.305 1497.79 246.944 1496.04 244.447C1494.28 241.951 1492.26 239.455 1492.66 236.981C1492.97 235.489 1493.64 234.096 1494.61 232.92C1495.57 231.745 1496.81 230.823 1498.22 230.234C1501.76 228.485 1505.73 227.783 1509.66 228.209C1513.64 228.507 1517.42 230.085 1520.43 232.707C1521.69 233.767 1522.67 235.118 1523.28 236.643C1523.9 238.168 1524.13 239.82 1523.96 241.456C1523.53 244.043 1520.97 246.179 1518.68 248.203C1516.38 250.227 1514.18 252.162 1514.83 254.568L1535.52 258.594C1546.15 260.663 1550.47 261.315 1552.58 259.089C1553.76 257.449 1554.45 255.506 1554.56 253.488C1554.74 252.139 1554.92 250.565 1555.12 248.743C1555.33 246.921 1555.62 244.875 1555.91 242.536C1556.2 240.197 1556.47 238.42 1556.65 236.576C1556.83 234.732 1557.03 233.045 1557.19 231.493C1557.19 230.728 1557.33 229.986 1557.42 229.244C1557.51 228.502 1557.42 227.827 1557.57 227.175C1557.57 225.848 1557.75 224.633 1557.82 223.486C1557.89 222.339 1557.98 221.237 1558.05 220.338C1558.11 219.438 1558.05 218.426 1558.16 217.571C1558.16 215.817 1558.29 214.243 1558.36 212.646C1558.43 211.049 1558.36 209.475 1558.36 207.698C1558.36 206.821 1558.36 205.877 1558.36 204.887C1558.36 203.897 1558.36 202.818 1558.36 201.648C1558.36 200.479 1558.36 199.242 1558.36 197.892C1558.36 197.218 1558.36 196.498 1558.36 195.643C1558.36 194.789 1558.36 194.137 1558.25 193.394C1558.16 191.775 1558.07 190.021 1557.98 188.132C1557.8 186.22 1557.64 184.151 1557.44 181.902C1557.24 179.653 1557.08 177.651 1556.94 175.897C1556.81 174.143 1556.72 172.591 1556.54 171.264C1556.48 169.281 1555.9 167.349 1554.85 165.664C1554.2 165.033 1553.42 164.557 1552.56 164.273C1551.7 163.989 1550.78 163.903 1549.88 164.022C1546.19 164.177 1542.51 164.583 1538.87 165.237C1531.31 166.339 1523.89 167.486 1516.38 168.723C1516.5 169.247 1516.71 169.749 1516.99 170.207C1517.29 170.71 1517.64 171.185 1518.02 171.624C1518.83 172.568 1519.87 173.491 1520.88 174.458C1523.01 176.003 1524.54 178.234 1525.22 180.777C1525.34 181.575 1525.34 182.386 1525.22 183.184C1525.07 183.96 1524.83 184.716 1524.5 185.433C1523.79 186.969 1522.74 188.329 1521.44 189.414C1520.01 190.63 1518.36 191.575 1516.59 192.202C1514.63 192.926 1512.58 193.344 1510.49 193.439C1508.42 193.558 1506.34 193.384 1504.31 192.922C1502.5 192.527 1500.76 191.868 1499.14 190.965C1497.73 190.208 1496.48 189.175 1495.47 187.929C1494.61 186.809 1494.04 185.485 1493.83 184.083C1493.58 181.834 1495.27 179.72 1496.87 177.561C1498.46 175.402 1500.19 173.288 1499.9 171.444C1491.11 172.973 1482.28 174.548 1473.28 176.189C1464.29 177.831 1460.6 178.618 1459.25 180.17C1457.9 181.722 1458.67 184.218 1459.18 188.941Z" fill="#CF4745"/>
<path fill-rule="evenodd" clip-rule="evenodd" d="M1439.96 133.548L1441.22 135.437C1441.62 135.977 1442.03 136.696 1442.48 137.416C1442.93 138.136 1442.93 138.181 1443.18 138.563C1443.42 138.945 1443.67 139.328 1443.9 139.732C1444.35 140.565 1444.79 141.374 1445.22 142.116C1445.65 142.859 1446.01 143.623 1446.35 144.253L1447.43 146.345C1449.23 144.955 1450.89 143.372 1452.35 141.622C1453.97 139.714 1455.92 138.114 1458.11 136.899C1461.15 135.237 1464.63 134.531 1468.09 134.875C1469.46 134.981 1470.78 135.439 1471.93 136.203C1473.07 136.966 1474 138.011 1474.63 139.238C1475.14 140.452 1475.29 141.785 1475.08 143.084C1474.97 143.756 1474.78 144.413 1474.52 145.04C1474.21 145.711 1473.84 146.351 1473.42 146.952C1471.3 149.686 1468.4 151.709 1465.1 152.754C1462.74 153.43 1460.29 153.726 1457.84 153.631C1455.49 153.551 1453.14 153.717 1450.82 154.126L1451.63 156.375L1452.01 157.41C1452.17 157.792 1452.3 158.175 1452.44 158.602C1452.73 159.434 1453.02 160.311 1453.32 161.188C1453.61 162.065 1453.88 162.987 1454.13 163.842C1454.37 164.697 1454.62 165.461 1454.82 166.091C1455.03 166.721 1455.16 167.351 1455.27 167.755C1455.38 168.16 1455.43 168.385 1455.43 168.385C1456.13 170.927 1456.31 172.883 1456.64 174.413C1456.64 174.772 1456.82 175.11 1456.91 175.425C1456.99 175.704 1457.1 175.976 1457.23 176.234C1457.46 176.698 1457.83 177.081 1458.29 177.336C1460.2 178.326 1464.4 177.606 1474.47 175.897L1499.52 171.646C1499.64 172.126 1499.64 172.629 1499.52 173.108C1499.4 173.655 1499.2 174.179 1498.91 174.66C1498.25 175.802 1497.5 176.892 1496.67 177.921C1495.02 180.17 1493.16 182.419 1493.45 184.668C1493.63 186.079 1494.19 187.415 1495.07 188.536C1496.08 189.775 1497.33 190.806 1498.73 191.573C1502.17 193.442 1506.07 194.307 1509.98 194.069C1513.97 193.961 1517.82 192.556 1520.95 190.066C1522.28 188.991 1523.36 187.63 1524.1 186.085C1524.8 184.618 1525.08 182.979 1524.88 181.362C1524.68 180.093 1524.14 178.903 1523.31 177.921C1522.88 177.364 1522.42 176.838 1521.92 176.347C1521.42 175.829 1520.88 175.335 1520.34 174.84C1519.31 173.921 1518.34 172.937 1517.44 171.894C1517.06 171.436 1516.74 170.939 1516.47 170.409C1516.23 169.924 1516.08 169.398 1516.02 168.857L1537.11 165.281C1547.79 163.482 1552.04 162.56 1553.17 159.614C1553.47 158.771 1553.57 157.872 1553.48 156.983C1553.35 155.754 1553.14 154.536 1552.83 153.339C1552.47 151.945 1552.04 150.325 1551.53 148.459C1551.01 146.592 1550.36 144.478 1549.73 142.049C1549.73 142.049 1549.73 141.689 1549.46 141.059C1549.19 140.43 1549.01 139.575 1548.69 138.496C1548.38 137.416 1548.02 136.246 1547.61 134.875C1547.61 134.537 1547.41 134.2 1547.32 133.863C1547.23 133.525 1547.1 133.165 1546.96 132.828C1546.74 132.131 1546.51 131.434 1546.27 130.714C1545.79 129.32 1545.32 127.903 1544.87 126.598C1544.42 125.294 1543.93 124.057 1543.52 123C1542.74 120.886 1542.2 119.491 1542.2 119.491C1539.85 121.157 1537.75 123.14 1535.95 125.384C1534.09 127.689 1531.7 129.497 1528.98 130.646C1525.16 131.986 1521.01 132.065 1517.15 130.871C1516.3 130.601 1515.48 130.254 1514.7 129.837C1513.9 129.444 1513.15 128.969 1512.45 128.42C1511.14 127.384 1510.12 126.039 1509.46 124.507C1508.81 122.941 1508.51 121.251 1508.58 119.556C1508.65 117.861 1509.1 116.204 1509.89 114.701C1511.64 111.092 1514.54 108.167 1518.14 106.379C1520.97 105.163 1524.08 104.751 1527.13 105.187C1530.01 105.567 1532.93 105.567 1535.81 105.187L1535.32 104.198L1533.99 101.589C1533.43 100.509 1532.8 99.3399 1532.08 97.9006C1531.36 96.4612 1530.55 95.1568 1529.83 93.7399C1529.45 93.0427 1529.04 92.3455 1528.64 91.6483L1527.42 89.6241C1526.61 88.3197 1525.85 87.1053 1525.18 86.0482C1524.5 84.9912 1523.96 84.159 1523.56 83.5518C1523.15 82.9445 1522.93 82.6072 1522.93 82.6072C1517.46 74.4432 1514.86 69.7652 1511.93 68.5058C1509.01 67.2463 1505.61 69.4954 1497.65 75.6127C1491.76 80.1108 1486.01 84.6088 1480.3 89.1069C1479.75 88.841 1479.26 88.4577 1478.87 87.9837C1478.48 87.5098 1478.2 86.9567 1478.05 86.3631C1477.84 85.694 1477.68 85.0098 1477.58 84.3164C1477.58 83.5968 1477.37 82.8321 1477.31 82.0674C1477.19 80.4821 1476.98 78.905 1476.68 77.3444C1476.39 75.908 1475.71 74.5819 1474.7 73.5211C1474.09 72.9218 1473.4 72.4074 1472.65 71.9918C1471.9 71.5958 1471.1 71.2865 1470.27 71.0697C1468.56 70.642 1466.78 70.5959 1465.05 70.9347C1461.15 71.7858 1457.65 73.9438 1455.14 77.0521C1452.61 79.9701 1450.96 83.5397 1450.37 87.3526C1450.11 88.892 1450.17 90.4673 1450.53 91.9856C1450.69 92.6476 1450.95 93.2834 1451.29 93.8748C1451.63 94.4776 1452.04 95.0303 1452.53 95.5166C1453.53 96.3415 1454.77 96.8226 1456.06 96.8885C1457.55 97.0688 1459.05 97.1664 1460.56 97.1809C1461.32 97.1809 1462.09 97.1809 1462.8 97.3158C1463.45 97.3899 1464.08 97.5331 1464.69 97.7431C1465.23 97.8825 1465.73 98.1647 1466.12 98.5602C1466.52 98.9558 1466.8 99.4504 1466.94 99.9922C1460.2 105.48 1453.45 111.035 1446.48 116.702C1439.51 122.37 1436.66 124.911 1436.14 126.778C1436.03 127.256 1436.05 127.753 1436.19 128.222C1436.34 128.691 1436.6 129.115 1436.95 129.454C1437.31 129.927 1437.73 130.489 1438.25 131.119C1438.87 131.892 1439.44 132.703 1439.96 133.548Z" fill="#2A375F"/>
<path fill-rule="evenodd" clip-rule="evenodd" d="M1398.46 101.431C1399.71 101.814 1400.7 102.309 1401.78 102.691C1402.3 102.893 1402.79 103.051 1403.24 103.253L1404.55 103.86L1405.76 104.378L1406.86 104.895L1409.65 106.289L1410.44 106.739L1411.86 107.526C1412.31 107.774 1412.75 107.999 1413.16 108.246L1414.33 108.988C1415.12 109.483 1415.95 109.933 1416.76 110.54L1418.11 111.44C1418.58 111.754 1419.07 112.092 1419.59 112.497C1420.62 113.284 1421.84 114.138 1423.26 115.308C1423.95 115.893 1424.72 116.477 1425.5 117.197L1426.76 118.299L1427.41 118.996L1428.07 119.649C1428.49 120.053 1428.88 120.436 1429.21 120.818C1429.56 121.148 1429.88 121.501 1430.18 121.875C1430.76 122.55 1431.24 123.157 1431.69 123.607C1431.89 123.829 1432.11 124.039 1432.34 124.237C1432.53 124.413 1432.74 124.572 1432.97 124.709C1433.38 124.945 1433.85 125.048 1434.32 125.001C1436.39 124.799 1439.67 122.145 1447.54 115.78L1466.94 100.037C1466.78 99.5171 1466.49 99.047 1466.1 98.6726C1465.7 98.2982 1465.22 98.0321 1464.69 97.9005C1464.08 97.6876 1463.45 97.5516 1462.8 97.4957C1462.11 97.4957 1461.37 97.3832 1460.56 97.3607C1459.05 97.3487 1457.55 97.2511 1456.06 97.0683C1454.78 96.9976 1453.56 96.5165 1452.57 95.6964C1452.09 95.2102 1451.67 94.6574 1451.34 94.0546C1451 93.4632 1450.74 92.8275 1450.57 92.1655C1450.21 90.6471 1450.16 89.0718 1450.42 87.5324C1451.01 83.7195 1452.66 80.1499 1455.18 77.2319C1457.7 74.1236 1461.19 71.9656 1465.1 71.1146C1466.83 70.7757 1468.61 70.8218 1470.31 71.2495C1471.14 71.4664 1471.94 71.7757 1472.7 72.1716C1473.44 72.5873 1474.13 73.1017 1474.74 73.7009C1475.73 74.7507 1476.41 76.0488 1476.72 77.4568C1477.02 79.0025 1477.23 80.5645 1477.35 82.1348C1477.69 85.216 1477.91 88.1172 1480.27 89.2417L1496.53 76.1299C1504.89 69.3828 1508.11 66.504 1507.44 63.243C1507.2 62.3074 1506.78 61.4283 1506.2 60.6566C1505.39 59.5904 1504.5 58.5833 1503.55 57.6429L1501.72 55.8437L1500.69 54.8316L1499.57 53.797L1497.11 51.5255L1495.74 50.2436C1495.29 49.7938 1494.8 49.344 1494.28 48.8942C1492.42 47.2299 1490.68 45.6781 1489.09 44.3961L1484.59 40.6627C1483.2 39.4932 1481.85 38.4137 1480.61 37.5816L1477.19 35.0626C1474.95 33.5333 1473.19 32.2963 1471.51 31.1718L1470.29 30.3397L1469.08 29.5975L1466.83 28.1356C1465.26 27.191 1463.73 26.2015 1461.93 25.2344L1459.09 23.6376L1457.52 22.7829C1457 22.4681 1456.42 22.1757 1455.83 21.8833L1451.97 19.9492L1449.72 18.8696C1448.95 18.4873 1448.14 18.1499 1447.31 17.7676L1441.83 15.3387L1435.26 12.7298C1432.88 11.8302 1430.76 11.0655 1428.92 10.3458C1427.08 9.62613 1425.46 9.08635 1424.06 8.61405C1422.86 8.214 1421.64 7.8836 1420.4 7.62449C1419.92 7.54226 1419.43 7.48969 1418.94 7.46706C1418.51 7.46388 1418.09 7.50914 1417.68 7.602C1414.53 8.34418 1413.18 12.1 1410.46 21.6134C1408.41 28.7653 1406.44 35.8723 1404.57 42.9342C1405.72 43.1375 1406.9 43.0525 1408.01 42.6868L1409.92 42.0796L1411.92 41.3599C1413.25 40.8451 1414.62 40.4316 1416.02 40.1229C1417.28 39.8528 1418.6 39.9148 1419.84 40.3029C1420.63 40.5775 1421.39 40.9556 1422.09 41.4274C1422.44 41.6553 1422.77 41.911 1423.08 42.192C1423.39 42.4747 1423.69 42.7751 1423.97 43.0917C1425.09 44.4041 1425.91 45.9372 1426.38 47.5897C1426.62 48.4561 1426.77 49.3456 1426.83 50.2436C1426.91 51.194 1426.91 52.1494 1426.83 53.0998C1426.58 55.1264 1426.01 57.1005 1425.14 58.9473C1424.28 60.7999 1423.17 62.5253 1421.84 64.0751C1421.22 64.7862 1420.56 65.4549 1419.86 66.0767C1419.19 66.6638 1418.49 67.2048 1417.75 67.696C1416.44 68.5868 1414.98 69.2134 1413.43 69.5402C1413.08 69.624 1412.73 69.6767 1412.37 69.6977C1412.02 69.7199 1411.67 69.7199 1411.32 69.6977C1410.62 69.6783 1409.93 69.5571 1409.27 69.3378C1408.76 69.1486 1408.3 68.8663 1407.9 68.5057C1407.47 68.1242 1407.08 67.7024 1406.73 67.2462C1405.98 66.1981 1405.31 65.0927 1404.73 63.9401C1404.41 63.3554 1404.1 62.7707 1403.76 62.2084L1403.29 61.3763L1402.68 60.5216C1402.1 59.656 1401.27 58.9888 1400.3 58.61C1398.05 67.0663 1395.96 75.5676 1393.8 84.2489C1391.64 92.9301 1390.83 96.5511 1391.55 98.3053C1391.73 98.7226 1392.01 99.0817 1392.38 99.3398C1392.83 99.6395 1393.31 99.8672 1393.82 100.015C1394.39 100.194 1395.08 100.352 1395.87 100.554C1396.66 100.757 1397.49 101.004 1398.46 101.431Z" fill="#6CA3AE"/>
<path fill-rule="evenodd" clip-rule="evenodd" d="M1339.41 97.6078L1340.15 97.4954L1342.07 97.248L1344.76 96.8431L1346.27 96.6633L1347.84 96.5058L1350.9 96.1909L1353.55 96.011L1356.14 95.8311C1355.46 93.6528 1354.54 91.5561 1353.4 89.5788C1352.21 87.4137 1351.44 85.0388 1351.15 82.5843C1350.78 79.1835 1351.52 75.7551 1353.24 72.801C1353.92 71.5843 1354.89 70.5576 1356.07 69.8149C1357.25 69.0722 1358.6 68.6374 1359.99 68.5504C1360.32 68.5167 1360.66 68.5167 1361 68.5504L1361.99 68.7753C1362.64 68.96 1363.27 69.2324 1363.85 69.5849C1365.07 70.3232 1366.1 71.3218 1366.89 72.5087C1368.68 75.4258 1369.5 78.8333 1369.25 82.247C1369.01 84.624 1368.37 86.9436 1367.36 89.1065C1366.91 90.231 1366.46 91.3555 1366.06 92.3901C1365.66 93.4544 1365.35 94.5536 1365.16 95.6737H1365.81C1366.24 95.6737 1366.82 95.6737 1367.52 95.6737C1368.91 95.6737 1370.82 95.6736 1372.64 95.966L1375.34 96.1909L1377.59 96.4833L1379.84 96.7532C1382.29 97.203 1384.13 97.6303 1385.44 97.9677C1385.94 98.1588 1386.49 98.2199 1387.02 98.1452C1387.56 98.0705 1388.06 97.8625 1388.5 97.5404C1390.05 96.2359 1391.08 92.2101 1393.58 82.5393L1399.8 58.4747C1401.74 58.7896 1403.11 61.0386 1404.41 63.5126C1405.01 64.7073 1405.7 65.8573 1406.46 66.9536C1406.82 67.4383 1407.21 67.8899 1407.65 68.303C1408.07 68.6754 1408.56 68.9653 1409.09 69.1576C1410.54 69.5428 1412.05 69.5931 1413.52 69.3047C1414.99 69.0164 1416.37 68.3969 1417.57 67.4933C1418.31 67.0039 1419.01 66.4628 1419.68 65.874C1420.38 65.2601 1421.05 64.5989 1421.66 63.8949C1422.99 62.3368 1424.1 60.604 1424.96 58.7446C1425.83 56.8978 1426.4 54.9237 1426.65 52.8971C1426.73 51.9542 1426.73 51.0063 1426.65 50.0634C1426.6 49.165 1426.45 48.2751 1426.2 47.4095C1425.78 45.7391 1424.96 44.1968 1423.81 42.9182C1422.66 41.6397 1421.21 40.6643 1419.59 40.0777C1418.3 39.6818 1416.93 39.6353 1415.61 39.9427C1414.17 40.2639 1412.76 40.7001 1411.38 41.2472C1408.6 42.2143 1405.94 43.3613 1403.87 42.5741L1409.09 22.3328C1411.74 12.0773 1412.62 7.8716 1410.1 5.62257C1408.18 4.35598 1405.98 3.58338 1403.69 3.37354L1402.5 3.17114L1401.2 2.99121L1398.32 2.60888L1395.02 2.15908L1391.26 1.70927L1387.39 1.23697L1385.53 1.01207L1383.44 0.832147L1378.94 0.449816C1377.39 0.292384 1375.86 0.247397 1374.44 0.179926L1370.51 0H1366.71C1367.4 2.75615 1368.48 5.39922 1369.92 7.84912C1371.41 10.3698 1372.23 13.2248 1372.31 16.148C1372.13 20.0991 1370.63 23.877 1368.06 26.8759C1366.92 28.2151 1365.54 29.3288 1363.99 30.1595C1363.27 30.5317 1362.52 30.8258 1361.74 31.0366C1361.33 31.1333 1360.92 31.2083 1360.5 31.2615C1360.09 31.3324 1359.67 31.37 1359.24 31.374C1357.54 31.3619 1355.85 30.9867 1354.3 30.2732C1352.75 29.5597 1351.37 28.5243 1350.25 27.2357C1347.62 24.2804 1346.04 20.5418 1345.75 16.5978C1345.7 13.589 1346.48 10.6239 1348 8.02905C1349.45 5.59889 1350.57 2.98049 1351.31 0.247394H1350.23L1347.37 0.427321L1343.32 0.719705H1341.08L1334.33 1.46187L1332.26 1.70927L1330.4 1.97916L1326.55 2.51892L1315.85 4.00328C1313.88 4.1443 1311.99 4.82097 1310.39 5.95993C1308.14 7.91658 1308.79 11.8524 1310.86 21.5232C1312.36 28.6751 1313.92 35.7446 1315.56 42.7315C1315.07 43.1036 1314.51 43.3648 1313.91 43.4969C1313.31 43.6289 1312.69 43.6287 1312.09 43.4962C1310.66 43.2203 1309.27 42.7592 1307.96 42.1243L1305.71 41.1572C1304.97 40.8669 1304.22 40.6191 1303.46 40.415C1302.06 39.9504 1300.55 39.8958 1299.12 40.2576C1297.49 40.74 1296.02 41.6393 1294.85 42.8665C1293.67 44.1161 1292.79 45.6149 1292.26 47.2521C1291.16 51.0179 1291.41 55.0515 1292.96 58.6547C1294.41 62.2366 1296.83 65.3491 1299.93 67.6508C1301.22 68.5773 1302.65 69.2701 1304.18 69.6974C1305.55 70.0692 1306.99 70.0692 1308.36 69.6974C1309.59 69.2388 1310.63 68.4042 1311.35 67.3134C1312.18 66.1889 1312.99 64.8395 1313.8 63.5575C1314.49 62.3452 1315.33 61.2328 1316.32 60.2515C1316.71 59.8331 1317.2 59.5267 1317.75 59.3645C1318.29 59.2022 1318.87 59.1901 1319.42 59.3294C1321.45 67.7182 1323.49 76.1296 1325.63 84.6759C1327.77 93.2222 1328.8 96.9331 1330.53 98.1701C1331.04 98.4555 1331.59 98.6328 1332.17 98.6909C1332.75 98.749 1333.33 98.6865 1333.88 98.5074C1335.1 98.5299 1336.94 98.0801 1339.41 97.6078Z" fill="#E8AD30"/>
<path fill-rule="evenodd" clip-rule="evenodd" d="M1285.54 119.267C1288.54 116.869 1291.69 114.66 1294.96 112.654C1296.18 111.957 1297.21 111.327 1298.13 110.833L1299.48 110.068L1300.81 109.371C1302.54 108.471 1304.31 107.617 1306.88 106.492C1310.5 104.915 1314.2 103.555 1317.98 102.421C1319.18 102.039 1320.23 101.837 1321.2 101.612L1321.87 101.477L1322.64 101.319L1323.99 101.004C1325.58 100.6 1326.6 100.15 1327.09 99.1602C1327.59 97.5567 1327.59 95.8384 1327.09 94.2348C1326.69 91.7609 1325.88 88.3199 1324.84 83.462L1319.22 59.5548C1318.67 59.4446 1318.09 59.4822 1317.55 59.6637C1317.02 59.8453 1316.54 60.1644 1316.16 60.5894C1315.19 61.5741 1314.36 62.6863 1313.69 63.8954C1312.88 65.1549 1312.09 66.4818 1311.26 67.6063C1310.53 68.6422 1309.49 69.4272 1308.29 69.8554C1306.92 70.2271 1305.48 70.2271 1304.11 69.8554C1302.58 69.4344 1301.14 68.7411 1299.86 67.8087C1296.75 65.5122 1294.34 62.3981 1292.89 58.8126C1291.34 55.217 1291.09 51.191 1292.2 47.4326C1292.7 45.75 1293.6 44.2094 1294.8 42.9345C1295.97 41.6967 1297.45 40.789 1299.08 40.3031C1300.49 39.9531 1301.97 40.0077 1303.35 40.4606C1304.11 40.6492 1304.86 40.8896 1305.6 41.1803L1307.84 42.1248C1309.15 42.7523 1310.52 43.2277 1311.94 43.5417C1312.53 43.675 1313.14 43.688 1313.73 43.5798C1314.33 43.4716 1314.89 43.2445 1315.4 42.912L1310.68 22.8507C1308.27 12.5501 1307.06 8.38943 1304.11 7.46733C1302.06 7.10106 1299.94 7.30325 1298 8.05207L1296.94 8.34445L1296.38 8.50188L1295.75 8.70429L1292.96 9.58141C1290.98 10.1662 1288.76 10.9533 1286.21 11.8304C1279.34 14.0202 1272.58 16.5727 1265.98 19.4771C1263.73 20.5342 1261.66 21.4113 1259.89 22.2884C1258.11 23.1655 1256.51 23.9302 1254.94 24.7623L1252.56 26.0218L1250.04 27.3937L1247.27 28.9455L1244.17 30.7897C1237.86 34.5787 1231.78 38.7314 1225.96 43.2269C1221.98 46.308 1218.88 48.6021 1216.63 50.5137C1215.65 51.3094 1214.74 52.1737 1213.88 53.1001C1213.27 53.7484 1212.79 54.5129 1212.47 55.3491C1211.48 58.3628 1214.09 61.399 1221.12 68.5284C1226.41 73.8811 1231.67 79.1214 1236.86 84.2716C1237.62 83.4127 1238.16 82.3765 1238.41 81.2579C1238.57 80.6507 1238.71 79.9985 1238.84 79.3238C1238.98 78.6491 1239.09 77.9744 1239.22 77.2772C1239.41 74.5956 1240.51 72.0579 1242.33 70.0803C1243.66 69.0023 1245.25 68.2892 1246.94 68.0112C1248.67 67.7205 1250.44 67.8126 1252.13 68.281C1255.92 69.4114 1259.23 71.7884 1261.51 75.0281C1263.81 78.1397 1265.19 81.8459 1265.46 85.711C1265.58 87.2329 1265.39 88.7622 1264.9 90.2091C1264.5 91.5287 1263.71 92.7012 1262.65 93.5826C1261.01 94.9545 1258.29 94.7746 1255.59 94.6621H1253.57C1252.95 94.6279 1252.32 94.6279 1251.7 94.6621C1250.65 94.6921 1249.64 95.0456 1248.8 95.6742C1255.16 101.814 1261.57 107.931 1268.14 114.139C1274.7 120.346 1277.49 122.887 1279.38 123.135C1279.82 123.213 1280.27 123.159 1280.68 122.977C1281.16 122.76 1281.6 122.472 1281.99 122.123C1282.44 121.74 1282.91 121.246 1283.52 120.706C1284.12 120.166 1284.73 119.896 1285.54 119.267Z" fill="#CF4745"/>
<path fill-rule="evenodd" clip-rule="evenodd" d="M1256.67 162.875C1256.67 162.875 1257.59 159.434 1258.92 156.128L1259.84 153.721C1260.16 152.957 1260.45 152.237 1260.72 151.652L1261.62 149.65C1259.36 149.165 1257.06 148.909 1254.76 148.886C1252.25 148.882 1249.77 148.456 1247.41 147.626C1245.71 146.964 1244.11 146.079 1242.64 144.995C1241.35 144.048 1240.22 142.893 1239.31 141.576C1238.52 140.429 1238 139.112 1237.81 137.731C1237.72 137.097 1237.72 136.453 1237.81 135.819C1237.91 135.189 1238.11 134.581 1238.41 134.02C1239.02 132.877 1239.96 131.944 1241.11 131.343C1242.36 130.681 1243.74 130.311 1245.16 130.264C1248.61 130.235 1252 131.212 1254.92 133.075C1256.92 134.418 1258.71 136.048 1260.25 137.911C1261.71 139.701 1263.36 141.33 1265.17 142.768V142.656C1265.23 142.532 1265.3 142.412 1265.37 142.296C1265.55 141.981 1265.82 141.531 1266.16 141.014C1266.5 140.497 1266.86 139.867 1267.28 139.215C1267.51 138.9 1267.73 138.563 1267.93 138.225L1268.65 137.213C1268.88 136.853 1269.13 136.516 1269.35 136.179L1270.07 135.234L1270.75 134.312L1271.35 133.525L1272.27 132.49L1272.66 132.041C1273.3 131.252 1273.99 130.501 1274.72 129.792L1276.34 128.15C1276.74 127.768 1277.07 127.319 1277.31 126.823C1277.52 126.406 1277.58 125.928 1277.47 125.473C1277.06 123.494 1274.05 120.571 1266.81 113.531L1248.82 96.0336C1249.57 95.2816 1250.57 94.8398 1251.63 94.7966C1252.96 94.6607 1254.29 94.6607 1255.61 94.7966C1256.98 94.8749 1258.34 94.8749 1259.71 94.7966C1260.88 94.7719 1262.02 94.3872 1262.97 93.6946C1264.05 92.6996 1264.88 91.4594 1265.38 90.0781C1265.89 88.6967 1266.05 87.2144 1265.87 85.7555C1265.58 81.8969 1264.21 78.1961 1261.93 75.0727C1259.68 71.795 1256.38 69.3772 1252.58 68.2131C1250.92 67.6984 1249.17 67.5891 1247.46 67.8944C1245.76 68.1997 1244.15 68.9106 1242.78 69.9674C1241.73 70.8253 1240.95 71.9646 1240.53 73.251C1240.05 74.6188 1239.7 76.0262 1239.47 77.4566C1238.93 80.3129 1238.55 83.0792 1236.79 84.4286L1221.64 69.6975C1213.95 62.2532 1210.71 59.3969 1207.43 60.3865C1205.29 61.3308 1203.44 62.8197 1202.06 64.7046C1201.02 65.8966 1199.81 67.3135 1198.55 68.9553L1196.44 71.6092C1196.08 72.0814 1195.67 72.5762 1195.27 73.071L1194.05 74.6229L1193.38 75.5C1192.95 76.0398 1192.32 76.8044 1191.6 77.749C1190.88 78.6936 1190.07 79.8406 1189.17 81.0326C1188.27 82.2246 1187.4 83.574 1186.5 84.8784C1185.6 86.1829 1184.72 87.5323 1183.91 88.7692C1183.1 90.0062 1182.36 91.2207 1181.66 92.2328L1180.18 94.6842L1179.62 95.6513C1182.47 96.3368 1185.41 96.617 1188.34 96.4834C1191.33 96.3715 1194.3 97.0216 1196.98 98.3726C1200.42 100.445 1203.07 103.612 1204.51 107.369C1205.14 109.004 1205.45 110.744 1205.43 112.496C1205.4 114.18 1204.98 115.833 1204.21 117.332C1203.82 118.089 1203.33 118.798 1202.78 119.446C1202.22 120.091 1201.59 120.672 1200.91 121.178C1199.47 122.214 1197.86 122.976 1196.14 123.427C1192.22 124.481 1188.07 124.245 1184.29 122.752C1181.52 121.438 1179.18 119.354 1177.55 116.747C1176.08 114.248 1174.25 111.976 1172.13 110L1170.4 113.801C1169.41 116.05 1168.15 119.176 1166.94 122.302C1166.33 123.854 1165.79 125.428 1165.27 126.8C1164.76 128.172 1164.31 129.657 1163.92 130.849C1163.54 132.041 1163.25 133.098 1163.05 133.705C1162.84 134.312 1162.71 134.807 1162.71 134.807C1159.94 144.298 1158.06 149.201 1159 152.169C1159.94 155.138 1163.92 156.128 1173.88 157.994C1181.24 159.366 1188.52 160.648 1195.76 161.908C1195.92 162.501 1195.95 163.123 1195.85 163.73C1195.74 164.336 1195.51 164.912 1195.15 165.416C1194.78 166.008 1194.35 166.565 1193.87 167.08C1193.4 167.62 1192.86 168.182 1192.3 168.745C1190.05 170.994 1187.55 173.4 1187.33 176.144C1187.22 177.796 1187.54 179.448 1188.27 180.934C1189.06 182.469 1190.17 183.812 1191.53 184.87C1194.78 187.268 1198.74 188.504 1202.78 188.379C1206.73 188.438 1210.62 187.402 1214.02 185.387C1215.38 184.587 1216.57 183.515 1217.5 182.239C1218.36 181.138 1218.88 179.808 1218.99 178.415C1219.19 176.009 1216.96 173.648 1215.1 171.309C1214.63 170.724 1214.18 170.139 1213.77 169.554C1213.4 169.032 1213.1 168.465 1212.87 167.868C1212.62 167.375 1212.52 166.823 1212.57 166.273C1212.62 165.724 1212.83 165.201 1213.16 164.764C1221.89 166.181 1230.63 167.53 1239.54 168.902C1248.44 170.274 1252.35 170.769 1254.13 169.892C1254.55 169.693 1254.89 169.371 1255.12 168.97C1255.38 168.516 1255.56 168.022 1255.66 167.508C1255.74 167.189 1255.81 166.866 1255.86 166.541C1255.86 166.203 1256 165.843 1256.09 165.439C1256.22 164.764 1256.38 163.977 1256.67 162.875Z" fill="#2A375F"/>
<path fill-rule="evenodd" clip-rule="evenodd" d="M1257.41 220.675C1257.05 219.213 1256.69 217.864 1256.45 216.627C1256.2 215.39 1255.91 214.243 1255.73 213.208C1255.55 212.174 1255.34 211.184 1255.16 210.307C1254.98 209.43 1254.89 208.598 1254.76 207.833C1254.62 207.068 1254.53 206.371 1254.44 205.719C1254.35 205.067 1254.26 204.437 1254.2 203.852C1254.04 202.683 1253.95 201.603 1253.81 200.569C1253.68 199.534 1253.66 198.477 1253.55 197.307C1253.55 196.745 1253.55 196.138 1253.55 195.508C1253.55 194.879 1253.55 194.181 1253.43 193.439C1253.28 189.428 1253.34 185.412 1253.61 181.407C1253.61 180.17 1253.88 179.158 1254.02 178.168C1254.15 177.179 1254.33 176.459 1254.4 175.784C1254.48 175.217 1254.48 174.642 1254.4 174.075C1254.32 173.596 1254.1 173.154 1253.75 172.816C1252.22 171.376 1248.06 170.701 1238.01 169.06L1213.28 164.989C1212.97 165.441 1212.79 165.969 1212.76 166.516C1212.72 167.063 1212.84 167.608 1213.1 168.093C1213.35 168.677 1213.66 169.234 1214.02 169.757C1214.42 170.342 1214.87 170.904 1215.34 171.489C1217.19 173.738 1219.37 176.144 1219.17 178.528C1219.06 179.921 1218.54 181.251 1217.68 182.351C1216.75 183.628 1215.56 184.699 1214.2 185.5C1210.8 187.515 1206.91 188.55 1202.96 188.491C1198.92 188.617 1194.96 187.381 1191.71 184.983C1190.35 183.925 1189.24 182.581 1188.45 181.047C1187.72 179.561 1187.4 177.909 1187.51 176.257C1187.73 173.535 1190.14 171.151 1192.39 168.925C1193.45 167.928 1194.42 166.828 1195.27 165.641C1195.63 165.151 1195.88 164.587 1196.01 163.989C1196.13 163.391 1196.12 162.773 1195.99 162.178L1175.19 158.782C1164.49 157.027 1160.12 156.533 1158.08 159.119C1157.51 159.873 1157.1 160.739 1156.89 161.66C1156.58 162.916 1156.38 164.195 1156.28 165.484C1156.28 166.248 1156.12 167.058 1156.05 167.935C1155.99 168.812 1156.05 169.757 1155.9 170.769C1155.78 172.793 1155.67 175.065 1155.51 177.673C1155.16 184.558 1155.16 191.457 1155.51 198.342C1155.74 203.177 1156.03 206.484 1156.35 209.812L1156.91 214.962C1157.16 216.784 1157.43 218.808 1157.76 221.192C1158.53 225.915 1159.54 232.1 1161.68 240.916C1162.73 245.414 1163.43 248.72 1164.06 251.262C1164.38 253.19 1165.22 254.994 1166.49 256.479C1168.74 258.459 1172.67 257.559 1182.38 254.748C1189.69 252.634 1196.91 250.519 1204.06 248.338C1203.36 246.426 1201.11 244.919 1198.8 243.323C1197.65 242.557 1196.58 241.691 1195.58 240.736C1194.66 239.908 1193.98 238.853 1193.6 237.678C1193.19 236.108 1193.19 234.457 1193.6 232.887C1194.09 231.257 1194.93 229.758 1196.08 228.502C1197.32 227.109 1198.81 225.951 1200.46 225.083C1202.3 224.105 1204.28 223.414 1206.33 223.036C1208.37 222.645 1210.46 222.539 1212.53 222.721C1214.39 222.861 1216.22 223.27 1217.95 223.936C1219.45 224.506 1220.81 225.361 1221.98 226.455C1223.07 227.406 1223.85 228.658 1224.23 230.053C1224.48 231.176 1224.37 232.349 1223.91 233.404C1223.42 234.62 1222.84 235.8 1222.18 236.935C1220.88 239.184 1219.5 241.613 1219.93 243.413C1228.45 240.759 1236.97 238.037 1245.68 235.226C1254.38 232.415 1257.91 231.133 1259.01 229.379C1259.25 228.87 1259.38 228.313 1259.38 227.748C1259.38 227.183 1259.25 226.626 1259.01 226.118C1258.81 225.443 1258.58 224.656 1258.29 223.869C1258 223.081 1257.68 221.844 1257.41 220.675Z" fill="#6CA3AE"/>
<path fill-rule="evenodd" clip-rule="evenodd" d="M1285.29 281.511C1285.29 281.511 1284.66 280.567 1283.74 279.127L1282.15 276.676L1280.41 273.842C1279.83 272.897 1279.22 271.93 1278.68 271.031C1278.14 270.131 1277.67 269.254 1277.27 268.534L1275.87 266.105C1274.19 267.697 1272.69 269.461 1271.38 271.368C1269.94 273.448 1268.08 275.209 1265.93 276.541C1262.92 278.325 1259.42 279.113 1255.93 278.79C1254.44 278.631 1253 278.156 1251.7 277.395C1250.51 276.667 1249.54 275.634 1248.89 274.404C1248.24 273.183 1247.95 271.804 1248.04 270.423C1248.16 268.963 1248.59 267.545 1249.3 266.263C1251.05 263.24 1253.74 260.871 1256.96 259.516C1259.26 258.619 1261.71 258.162 1264.18 258.166C1266.57 258.151 1268.95 257.879 1271.29 257.357L1270.09 254.95L1268.95 252.476C1268.54 251.554 1268.05 250.609 1267.64 249.62C1266.79 247.686 1265.93 245.752 1265.39 244.312C1264.85 242.873 1264.41 241.883 1264.41 241.883C1263.89 240.534 1263.48 239.319 1263.12 238.285C1262.76 237.25 1262.54 236.328 1262.27 235.563C1262.06 234.92 1261.76 234.308 1261.39 233.742C1261.09 233.287 1260.66 232.934 1260.16 232.73C1258.11 231.92 1254.06 233.202 1244.42 236.238L1220.18 243.772C1219.37 241.996 1220.7 239.589 1222.05 237.16C1222.38 236.553 1222.72 235.946 1223.03 235.339C1223.35 234.749 1223.63 234.141 1223.87 233.517C1224.36 232.425 1224.5 231.204 1224.25 230.031C1223.85 228.643 1223.08 227.395 1222 226.432C1220.82 225.341 1219.45 224.486 1217.95 223.913C1216.22 223.247 1214.41 222.838 1212.56 222.699C1210.48 222.516 1208.4 222.622 1206.35 223.014C1204.3 223.392 1202.32 224.082 1200.48 225.061C1198.83 225.928 1197.34 227.086 1196.1 228.479C1194.95 229.735 1194.11 231.235 1193.63 232.865C1193.19 234.432 1193.19 236.088 1193.63 237.655C1194.01 238.881 1194.73 239.977 1195.69 240.826C1196.75 241.793 1197.87 242.673 1199.07 243.458C1201.47 245.144 1203.74 246.696 1204.19 248.765L1183.8 255.108C1173.48 258.324 1169.39 259.808 1168.65 262.799C1167.9 265.79 1170.53 270.243 1174.09 279.015C1174.09 279.015 1174.6 280.297 1175.41 282.208C1176.22 284.12 1177.32 286.706 1178.45 289.18C1179.57 291.654 1180.7 294.151 1181.64 295.927L1183.17 298.986C1185.37 297.216 1187.32 295.159 1188.97 292.869C1190.69 290.498 1192.93 288.552 1195.51 287.179C1199.16 285.506 1203.24 285.003 1207.18 285.739C1208.87 286.079 1210.47 286.744 1211.91 287.696C1213.26 288.585 1214.37 289.799 1215.14 291.227C1215.89 292.652 1216.26 294.25 1216.2 295.86C1216.18 297.546 1215.8 299.208 1215.1 300.74C1213.69 304.02 1211.29 306.777 1208.24 308.628C1205.19 310.478 1201.64 311.33 1198.08 311.063C1195.22 310.878 1192.36 311.075 1189.56 311.648L1191.35 314.819C1191.92 315.764 1192.55 316.866 1193.22 318.058C1193.9 319.25 1194.68 320.464 1195.47 321.701C1196.98 324.175 1198.46 326.672 1199.67 328.448L1201.63 331.462C1203.88 335.105 1205.65 337.872 1207 339.963C1207.58 340.871 1208.22 341.735 1208.91 342.55C1209.45 343.143 1210.1 343.618 1210.83 343.944C1213.48 345.001 1216.94 342.955 1225.28 337.332C1231.47 333.194 1237.51 329.056 1243.52 324.917C1245.77 326.087 1245.77 328.921 1245.77 331.934C1245.77 334.948 1245.43 338.322 1247.07 340.368C1248.16 341.604 1249.53 342.565 1251.06 343.175C1252.59 343.784 1254.24 344.025 1255.88 343.877C1259.86 343.551 1263.63 341.976 1266.65 339.379C1269.72 336.972 1271.99 333.695 1273.17 329.978C1273.71 328.54 1273.88 326.992 1273.66 325.473C1273.45 323.954 1272.87 322.511 1271.96 321.274C1270.34 319.25 1267.04 318.89 1263.93 318.418C1260.83 317.945 1258.11 317.316 1257.75 314.909C1264.92 309.849 1272.07 304.766 1279.33 299.526C1286.6 294.286 1289.68 291.924 1290.06 289.833C1290.16 289.304 1290.11 288.756 1289.9 288.258C1289.66 287.638 1289.34 287.05 1288.96 286.504C1288.53 285.852 1287.99 285.132 1287.36 284.255L1286.37 282.928C1285.97 282.553 1285.61 282.081 1285.29 281.511Z" fill="#E8AD30"/>
<path fill-rule="evenodd" clip-rule="evenodd" d="M1332.49 336.05L1325.92 329.798L1321.31 325.3C1319.99 323.995 1318.91 322.848 1317.92 321.814L1315.15 318.89C1311.67 315.112 1308.05 311.401 1299.41 300.898C1295.52 295.995 1294.35 293.071 1292.11 292.824C1289.86 292.576 1286.39 295.073 1278.1 300.83L1257.66 315.134C1258.11 317.383 1260.83 318.058 1263.89 318.53C1266.95 319.002 1270.23 319.362 1271.83 321.364C1272.73 322.601 1273.32 324.044 1273.53 325.563C1273.74 327.082 1273.57 328.63 1273.04 330.068C1271.85 333.781 1269.58 337.055 1266.52 339.469C1263.49 342.058 1259.72 343.632 1255.75 343.967C1254.1 344.112 1252.45 343.868 1250.91 343.255C1249.38 342.641 1248.01 341.676 1246.91 340.436C1245.29 338.434 1245.54 335.15 1245.61 332.137C1245.68 329.123 1245.61 326.312 1243.52 325.075L1226.39 337.062C1217.57 343.247 1214.13 345.878 1214.29 348.847C1214.38 349.644 1214.64 350.411 1215.05 351.096C1215.64 352.062 1216.3 352.979 1217.03 353.84C1218.72 355.886 1221.01 358.518 1223.91 362.004L1227.58 366.502L1230.75 370.19C1232.7 372.439 1234.32 374.351 1235.76 375.925C1237.2 377.5 1238.44 378.849 1239.54 380.086C1240.64 381.323 1241.65 382.335 1242.69 383.46C1246.78 387.733 1250.8 392.231 1262.76 403.588C1264.25 405.028 1265.57 406.287 1266.7 407.412C1267.82 408.536 1268.79 409.548 1269.67 410.38C1270.36 411.107 1271.11 411.777 1271.92 412.382C1272.54 412.83 1273.25 413.13 1274.01 413.259C1276.75 413.686 1279.69 411.01 1286.6 403.701C1291.81 398.258 1296.9 392.86 1301.93 387.463C1301.04 386.793 1299.98 386.374 1298.87 386.248C1297.64 386.046 1296.27 385.978 1294.89 385.889C1292.32 386.013 1289.78 385.321 1287.63 383.909C1287.05 383.386 1286.54 382.78 1286.13 382.11C1285.71 381.405 1285.4 380.649 1285.18 379.861C1284.75 378.263 1284.66 376.593 1284.91 374.958C1285.59 371.11 1287.51 367.589 1290.37 364.928C1293.17 362.13 1296.73 360.214 1300.6 359.417C1302.21 359.09 1303.86 359.09 1305.46 359.417C1306.19 359.587 1306.9 359.844 1307.58 360.182C1308.23 360.513 1308.85 360.929 1309.4 361.419C1311.11 362.993 1311.33 365.737 1311.49 368.481C1311.64 371.225 1311.78 373.834 1313.15 375.228C1319.11 368.728 1325.05 362.139 1331.14 355.414C1337.23 348.69 1339.55 345.811 1339.41 343.629C1339.28 341.448 1336.69 339.896 1332.49 336.05Z" fill="#CF4745"/>
<path fill-rule="evenodd" clip-rule="evenodd" d="M1392.07 382.717C1392.07 382.717 1390.99 382.02 1389.44 380.941L1383.68 377.027C1382.65 376.33 1381.61 375.588 1380.65 374.778L1377.95 373.137L1375.39 371.315C1373.61 375.228 1374.26 380.896 1371.16 385.079C1369.11 387.932 1366.18 390.028 1362.82 391.039C1361.36 391.461 1359.83 391.584 1358.32 391.399C1356.86 391.207 1355.47 390.641 1354.3 389.757C1353.13 388.857 1352.19 387.688 1351.57 386.349C1350.94 385.01 1350.65 383.54 1350.72 382.065C1350.84 378.597 1352.12 375.269 1354.36 372.619C1357.4 368.886 1363.09 367.581 1366.44 364.658L1358.91 358.81L1353.8 354.74L1352.14 353.39L1351.51 352.85C1348.99 350.736 1347.24 349.004 1345.84 347.812C1344.92 346.771 1343.61 346.14 1342.22 346.058C1339.97 346.238 1337.07 349.364 1330.24 356.764L1313.22 375.228C1312.4 374.533 1311.86 373.567 1311.69 372.507C1311.44 371.2 1311.3 369.877 1311.26 368.549C1311.1 365.715 1310.92 362.814 1309.17 361.194C1308.05 360.201 1306.7 359.512 1305.24 359.193C1303.63 358.865 1301.98 358.865 1300.38 359.193C1296.5 359.969 1292.94 361.879 1290.15 364.68C1287.28 367.338 1285.35 370.86 1284.66 374.711C1284.41 376.339 1284.5 378.001 1284.93 379.591C1285.36 381.118 1286.2 382.497 1287.36 383.572C1289.11 385.169 1292.08 385.371 1294.94 385.574L1297.05 385.731C1297.71 385.783 1298.36 385.873 1299.01 386.001C1300.13 386.142 1301.17 386.648 1301.98 387.44L1287.68 402.959C1280.44 410.83 1277.67 414.204 1278.39 416.903C1279.11 419.601 1283.34 421.941 1290.13 427.563L1298.2 433.86L1306.34 440.158C1308.95 435.66 1308.59 428.777 1312.25 424.414C1314.72 421.319 1318.09 419.065 1321.9 417.96C1323.46 417.458 1325.12 417.319 1326.75 417.553C1328.38 417.786 1329.93 418.387 1331.29 419.309C1332.56 420.244 1333.56 421.502 1334.17 422.953C1334.82 424.467 1335.16 426.096 1335.16 427.743C1335.09 431.663 1333.75 435.455 1331.36 438.561C1327.72 443.486 1320.7 444.611 1316.95 448.052L1325.79 454.327L1334.78 460.421C1348.27 469.417 1346.81 472.948 1358.12 456.598C1362.3 450.526 1366.39 444.521 1370.44 438.606C1373 438.853 1374.04 441.44 1374.94 444.318C1375.84 447.197 1376.87 450.301 1379.07 451.65C1380.44 452.457 1381.99 452.898 1383.57 452.932C1385.25 452.936 1386.92 452.6 1388.47 451.943C1392 450.285 1394.97 447.63 1397.01 444.306C1399.06 440.981 1400.08 437.131 1399.96 433.231C1399.86 431.621 1399.42 430.051 1398.68 428.62C1397.98 427.289 1396.94 426.17 1395.67 425.382C1393.42 424.01 1390.09 424.819 1387.01 425.382C1383.93 425.944 1381.14 426.349 1379.88 424.212C1384.67 416.993 1389.39 409.683 1394.21 402.216C1399.02 394.75 1400.95 391.444 1400.43 389.285C1399.92 387.126 1396.99 385.934 1392.07 382.717Z" fill="#2A375F"/>
<path fill-rule="evenodd" clip-rule="evenodd" d="M1532.57 452.595L1531.72 452.28L1529.47 451.47L1522.72 448.929L1519.15 447.557L1516.05 446.342L1513.01 445.128C1512.31 449.379 1514.45 454.776 1512.52 459.567C1509.68 466.539 1502.8 470.407 1497.14 468.158C1491.47 465.909 1489.47 458.352 1492.64 451.47C1494.6 447.107 1499.83 444.431 1502.35 440.765L1499.47 439.595L1496.55 438.358L1486.97 434.22C1486.12 433.86 1485.42 433.523 1484.93 433.298L1484.14 432.961C1477.85 430.104 1475.15 427.945 1472.9 428.71C1470.65 429.475 1468.85 433.208 1464.4 442.204L1453.36 464.559C1451.45 463.862 1450.5 461.298 1449.52 458.644C1448.53 455.991 1447.47 453.247 1445.29 452.167C1443.83 451.541 1442.24 451.266 1440.66 451.363C1439.07 451.461 1437.53 451.929 1436.16 452.73C1432.7 454.565 1429.88 457.413 1428.09 460.894C1426.14 464.3 1425.35 468.246 1425.84 472.139C1426.01 473.736 1426.57 475.267 1427.47 476.596C1428.38 477.926 1429.59 479.013 1431.01 479.763C1433.55 480.527 1436.27 480.448 1438.77 479.538C1441.56 478.886 1444.23 478.256 1446.03 479.358L1436.74 498.16C1427.32 517.209 1429.86 513.903 1445.51 520.988L1454.75 524.991L1458.15 526.453L1461.12 527.69L1464.02 528.882C1465.39 523.934 1463.39 517.389 1465.68 512.239C1467.24 508.611 1469.89 505.56 1473.26 503.513C1474.63 502.631 1476.18 502.079 1477.8 501.899C1479.42 501.72 1481.06 501.918 1482.59 502.478C1484.06 503.126 1485.36 504.118 1486.37 505.37C1487.39 506.622 1488.09 508.098 1488.41 509.675C1489.31 513.477 1488.96 517.465 1487.42 521.055C1485.18 526.7 1478.74 529.489 1475.98 533.74L1479.13 535.067L1482.3 536.326C1483.44 536.798 1484.68 537.248 1485.94 537.72L1495.86 541.476C1503.32 544.153 1506.89 546.514 1509.53 545.862C1512.16 545.21 1513.77 541.544 1517.33 532.368C1519.96 525.508 1522.52 518.761 1525.04 512.014C1527.58 511.654 1529.2 513.926 1530.82 516.512C1531.59 517.821 1532.44 519.083 1533.36 520.29C1534.15 521.398 1535.24 522.25 1536.51 522.742C1538.07 523.186 1539.71 523.257 1541.31 522.949C1542.9 522.64 1544.4 521.961 1545.68 520.965C1548.87 518.644 1551.23 515.366 1552.42 511.609C1553.71 507.941 1553.82 503.967 1552.76 500.229C1552.38 498.699 1551.63 497.285 1550.58 496.109C1549.53 494.933 1548.21 494.032 1546.74 493.482C1545.38 493.119 1543.94 493.189 1542.62 493.684C1541.14 494.174 1539.69 494.752 1538.28 495.416C1535.43 496.653 1532.77 497.665 1531.04 495.888C1533.97 487.769 1536.87 479.605 1539.77 471.262C1542.67 462.918 1543.77 459.252 1542.71 457.25C1541.66 455.248 1538.28 454.641 1532.57 452.595Z" fill="#E8AD30"/>
<path fill-rule="evenodd" clip-rule="evenodd" d="M1608.66 476.344C1593.95 472.454 1588.42 470.812 1583.12 469.237L1578.93 468C1577.45 467.573 1575.83 467.056 1573.92 466.471L1567.18 464.402C1564.57 463.592 1561.55 462.58 1557.98 461.433C1556.34 460.894 1554.9 460.376 1553.64 459.904C1552.38 459.432 1551.39 459.004 1550.42 458.689C1549.12 458.035 1547.62 457.906 1546.22 458.33C1543.97 459.364 1542.67 463.278 1539.25 472.678L1530.84 495.798C1532.59 497.463 1535.23 496.406 1538.06 495.169C1539.46 494.522 1540.89 493.951 1542.35 493.459C1543.66 492.989 1545.08 492.934 1546.42 493.302C1547.9 493.852 1549.22 494.753 1550.27 495.929C1551.32 497.105 1552.07 498.519 1552.45 500.049C1553.51 503.779 1553.39 507.746 1552.11 511.407C1550.92 515.167 1548.56 518.446 1545.37 520.763C1544.09 521.761 1542.59 522.443 1540.99 522.752C1539.4 523.06 1537.75 522.988 1536.19 522.539C1534.94 522.057 1533.86 521.211 1533.09 520.11C1532.18 518.921 1531.34 517.674 1530.59 516.377C1529 513.836 1527.38 511.542 1524.93 511.767L1517.85 531.153C1514.2 541.139 1512.92 545.187 1514.59 547.459C1516.25 549.73 1520.81 550.27 1528.93 552.879C1536.35 555.353 1541.45 556.837 1545.32 558.052C1549.19 559.266 1551.91 560.053 1554.61 560.84C1557.3 561.627 1560.03 562.437 1563.98 563.562L1570.98 565.518C1573.72 566.261 1576.91 567.183 1580.73 568.15C1584.56 569.117 1587.48 570.151 1589.61 570.781C1591.22 571.432 1592.98 571.589 1594.67 571.231C1597.21 570.309 1598.47 566.553 1601.13 557.017C1603.13 549.82 1605.04 542.736 1606.93 535.651C1604.49 535.575 1602.09 536.224 1600.02 537.518C1597.84 538.826 1595.3 539.401 1592.76 539.16C1591.26 538.692 1589.88 537.873 1588.75 536.77C1587.62 535.668 1586.77 534.313 1586.26 532.817C1584.98 529.137 1584.9 525.143 1586.04 521.415C1587.07 517.649 1589.23 514.29 1592.22 511.789C1593.4 510.728 1594.81 509.961 1596.35 509.55C1597.88 509.14 1599.49 509.098 1601.04 509.428C1603.28 510.012 1604.93 512.351 1606.39 514.69C1607.85 517.029 1609.27 519.188 1611.15 519.863C1613.4 511.384 1615.43 502.883 1617.52 494.202C1619.61 485.52 1620.35 481.854 1619.09 479.965C1618.21 478.931 1616.98 478.259 1615.63 478.076C1613.92 477.536 1611.6 477.109 1608.66 476.344Z" fill="#CF4745"/>
<path fill-rule="evenodd" clip-rule="evenodd" d="M94.2915 603.482L68.9745 593.541L44.0396 583.061C30.7516 577.483 32.3255 574.515 24.0289 592.754L13.8211 615.244C17.0813 618.798 24.7483 611.848 29.6948 613.918C35.3833 616.302 37.2045 624.6 33.7869 632.45C30.3693 640.299 22.8822 644.639 17.0813 642.21C12.4496 640.254 11.7076 630.628 6.78357 630.763L0.000276965 649.524C1.78307 666.468 0.000327587 661.238 7.21077 671.83L31.1563 681.816L55.6863 691.486C70.0086 697.132 69.1768 701.09 76.9563 682.805C79.8342 675.923 82.6522 669.094 85.4103 662.317C81.6555 660.9 75.2475 665.713 71.0655 664.071C65.2196 661.822 63.1286 653.5 66.4112 645.606C69.6939 637.712 77.0238 633.147 82.7572 635.396C87.254 637.15 87.9284 645.471 91.5259 647.068C94.7411 638.949 97.9338 630.74 101.104 622.329C107.467 605.754 105.961 608.07 94.2915 603.482Z" fill="#E8AD30"/>
<path fill-rule="evenodd" clip-rule="evenodd" d="M171.322 631.415L150.884 624.443C150.412 628.716 152.885 634.024 151.131 638.882C148.568 645.966 141.756 650.127 135.932 648.103C130.109 646.079 127.636 638.544 130.311 631.528C131.997 627.029 137.191 624.196 139.53 620.44L120.216 613.333C106.725 608.385 108.142 605.349 100.7 623.926L91.4589 647.023C87.5467 645.899 86.962 637.015 82.2854 635.216C76.5744 632.967 69.2446 637.465 65.9619 645.426C62.6792 653.388 64.7478 661.574 70.5936 663.868C74.9331 665.578 81.6782 660.338 85.3431 662.317L77.5638 681.748C69.6719 701.472 71.9428 697.874 87.5467 703.609L105.826 710.356C106.973 705.363 104.747 698.931 106.748 693.668C109.806 685.661 117.023 680.961 122.937 683.098C128.85 685.234 131.323 693.286 128.4 701.315C126.332 707.05 120.149 710.153 117.63 714.539L137.124 721.286C144.431 723.783 147.939 726.009 150.479 725.312C153.02 724.615 154.594 720.814 157.967 711.57C160.47 704.688 162.906 697.859 165.274 691.082C170.31 690.25 172.019 700.078 176.831 701.517C182.834 703.429 189.849 698.369 192.569 690.272C195.29 682.176 192.569 674.057 186.701 672.28C181.552 670.661 174.492 678.465 170.962 674.956C173.728 666.792 176.448 658.561 179.192 650.217C181.935 641.873 182.969 638.14 181.8 636.161C180.63 634.181 177.303 633.439 171.322 631.415Z" fill="#CF4745"/>
<path fill-rule="evenodd" clip-rule="evenodd" d="M249.724 655.637L223.643 648.081L219.326 646.844L197.876 640.074C184.161 635.756 185.442 632.652 178.944 651.566L170.963 674.844C174.56 678.083 181.508 670.346 186.701 672.055C192.57 673.899 195.2 681.996 192.57 690.047C189.939 698.099 182.924 703.227 176.831 701.293C171.997 699.786 170.355 690.25 165.431 690.835L158.686 710.334C151.806 730.417 153.897 726.707 169.771 731.722C184.318 736.22 189.512 738.019 194.818 739.481L220.293 746.858C224.002 747.937 226.768 749.107 228.926 749.669C230.5 750.315 232.229 750.479 233.895 750.141C236.391 749.264 237.74 745.531 240.641 736.04C242.799 728.918 244.897 721.849 246.936 714.832C243.046 713.842 237.111 719.33 232.794 718.093C226.745 716.339 223.8 708.287 226.296 700.101C228.791 691.914 235.582 686.606 241.517 688.406C246.014 689.777 247.723 697.852 251.455 699.044C253.704 690.632 256.132 682.176 258.448 673.539C260.764 664.903 261.573 661.282 260.314 659.348C259.055 657.414 255.727 657.414 249.724 655.637Z" fill="#2A375F"/>
<path fill-rule="evenodd" clip-rule="evenodd" d="M329.452 675.743L328.53 675.541C327.968 675.541 327.136 675.271 326.147 675.023L308.475 670.818C308.475 675.113 311.488 680.174 310.251 685.189C308.452 692.476 302.157 697.266 296.153 695.827C290.15 694.388 286.867 687.348 288.779 680.084C289.993 675.473 294.872 672.032 296.805 668.029L293.68 667.309C292.736 667.062 291.657 666.837 290.487 666.522L286.845 665.555L276.907 662.946C263.034 659.28 264.136 656.199 258.672 675.338L251.927 699.246C247.88 698.548 246.306 689.935 241.562 688.518C235.626 686.808 228.814 692.026 226.34 700.213C223.867 708.399 226.79 716.428 232.838 718.205C237.335 719.532 243.541 713.527 247.43 715.079L241.697 735.185C235.896 755.584 237.785 751.783 253.906 756.034L263.372 758.507L266.857 759.43L269.914 760.149L272.882 760.869C273.489 755.786 270.634 749.624 271.983 744.226C274.231 735.972 280.977 730.485 287.025 731.924C293.073 733.363 296.468 741.28 294.422 749.579C292.983 755.494 287.182 759.182 285.114 763.77L305.349 768.561C320.526 771.777 320.436 775.802 325.09 756.573C326.822 749.444 328.485 742.427 330.082 735.41C335.006 734.105 337.704 743.664 342.718 744.721C344.25 745.049 345.843 744.956 347.327 744.451C348.113 744.21 348.867 743.878 349.575 743.461C350.306 743.02 350.991 742.507 351.622 741.932C354.406 739.214 356.32 735.73 357.12 731.922C357.921 728.114 357.572 724.153 356.118 720.544C355.765 719.799 355.351 719.085 354.882 718.407C354.422 717.753 353.895 717.15 353.308 716.608C352.173 715.57 350.785 714.849 349.283 714.516C343.999 713.392 337.861 721.871 333.949 718.722C335.815 710.311 337.614 701.854 339.413 693.218C342.785 675.788 341.661 678.33 329.452 675.743Z" fill="#6CA3AE"/>
<path fill-rule="evenodd" clip-rule="evenodd" d="M409.675 691.216C394.341 688.833 388.675 687.573 383.009 686.561L373.341 684.762L366.169 683.502L361.672 682.67L356.456 681.568C342.426 678.577 343.348 675.361 338.986 694.86L333.612 718.835C337.524 721.713 343.573 713.437 348.811 714.539C350.309 714.862 351.692 715.585 352.813 716.631C353.407 717.166 353.935 717.77 354.387 718.43C354.872 719.101 355.294 719.817 355.646 720.566C357.151 724.117 357.505 728.05 356.658 731.812C355.985 735.673 354.122 739.227 351.329 741.977C350.695 742.547 350.01 743.059 349.283 743.506C348.573 743.919 347.819 744.25 347.035 744.496C345.582 744.958 344.036 745.051 342.538 744.766C337.592 743.709 334.871 734.375 330.082 735.41L325.585 755.539C320.954 776.207 322.617 772.316 339.076 775.78C342.808 776.612 345.978 777.129 348.699 777.669L355.624 778.951L374.376 782.46L377.591 783.044L379.412 783.382L381.391 783.719L391.216 785.293C406.55 787.767 406.708 791.793 410.215 772.316C411.519 764.985 412.778 757.743 413.992 750.546C410.013 749.961 404.751 756.011 400.3 755.291C394.072 754.279 390.227 746.678 391.756 738.289C393.285 729.9 399.423 723.895 405.516 724.794C410.238 725.559 412.756 733.498 416.623 734.308C417.972 725.694 419.299 717.035 420.58 708.197C422.964 690.587 422.019 693.196 409.675 691.216Z" fill="#E8AD30"/>
<path fill-rule="evenodd" clip-rule="evenodd" d="M490.46 702.034L469.1 699.785C469.617 704.036 473.214 708.669 472.585 713.797C472.191 717.29 470.602 720.539 468.088 722.995C466.98 724.079 465.664 724.928 464.221 725.492C462.797 726.072 461.246 726.266 459.724 726.054C453.631 725.222 449.516 718.52 450.573 711.075C451.225 706.352 455.609 702.439 457.048 698.278L436.813 695.535C429.708 694.635 426.38 693.151 424.402 694.523C422.423 695.894 421.793 699.988 420.197 709.838L416.24 734.353C412.148 734.083 409.495 725.582 404.706 724.794C398.635 723.805 392.452 729.81 390.945 738.289C389.439 746.767 393.194 754.302 399.489 755.291C404.121 756.034 409.585 749.511 413.609 750.658L410.282 771.259C408.573 781.717 408.033 785.946 410.102 787.902C411.57 788.967 413.325 789.563 415.138 789.612C417.544 789.926 420.759 790.061 424.919 790.624L444.412 793.277C444.412 788.15 440.747 782.347 441.534 776.77C442.704 768.336 448.729 762.173 455.025 763.028C456.567 763.238 458.034 763.825 459.297 764.737C460.611 765.732 461.705 766.988 462.512 768.426C464.368 771.862 465.078 775.802 464.535 779.671C463.816 785.721 458.465 790.084 456.981 794.897L477.689 797.146C481.556 797.573 484.434 798.135 486.682 798.45L488.256 798.63H489.583C490.31 798.616 491.024 798.44 491.674 798.113C493.922 796.808 494.664 792.895 495.788 783.067C496.62 775.802 497.407 768.628 498.037 761.499C502.758 759.587 506.626 768.718 511.752 769.145C518.07 769.685 523.713 763.23 524.343 754.729C524.972 746.228 520.543 738.986 514.405 738.401C509.009 737.951 503.973 747.105 499.701 744.473C500.51 735.905 501.252 727.291 501.949 718.497C502.646 709.703 502.803 705.903 501.252 704.216C500.183 703.336 498.836 702.865 497.452 702.889C495.923 702.462 493.54 702.372 490.46 702.034Z" fill="#CF4745"/>
<path fill-rule="evenodd" clip-rule="evenodd" d="M571.83 707.837L566.456 707.657C564.815 707.657 563.286 707.657 561.959 707.477L535.136 705.881C531.066 705.701 525.827 705.183 518.16 704.554C503.928 703.362 504.445 700.056 502.421 719.915L500.038 744.339C504.288 746.723 509.279 737.749 514.608 738.199C520.746 738.716 525.198 746.026 524.546 754.527C523.894 763.028 518.273 769.483 511.955 768.943C506.896 768.516 502.961 759.587 498.464 761.229L496.463 781.718C494.417 802.791 495.609 798.72 512.359 800.137L522.162 800.97L525.985 801.217L529.222 801.419L548.379 802.544C552.403 802.769 557.687 803.174 565.489 803.376C581.093 803.916 581.768 807.874 582.689 788.128C583.049 780.706 583.364 773.374 583.611 766.065C579.587 766.065 575.18 772.632 570.638 772.497C569.037 772.384 567.485 771.89 566.113 771.057C564.74 770.224 563.586 769.075 562.746 767.706C561.728 766.185 560.969 764.505 560.498 762.736C560.004 760.76 559.807 758.721 559.913 756.686C560.001 754.652 560.395 752.643 561.082 750.726C561.702 748.989 562.598 747.364 563.735 745.913C564.654 744.616 565.866 743.555 567.273 742.817C568.679 742.078 570.241 741.682 571.83 741.663C576.619 741.82 580.149 749.377 584.083 749.714C584.308 740.988 584.488 732.239 584.601 723.311C584.87 705.566 584.263 708.242 571.83 707.837Z" fill="#2A375F"/>
<path fill-rule="evenodd" clip-rule="evenodd" d="M653.515 708.399L632.11 708.759C633.189 712.942 637.371 717.08 637.439 722.253C637.573 729.742 632.672 735.95 626.534 736.04C620.396 736.13 615.427 729.855 615.472 722.343C615.472 717.575 619.339 713.145 620.193 708.849L599.8 708.669C598.024 708.669 596.45 708.669 595.101 708.534L591.594 708.309C590.129 708.052 588.621 708.375 587.389 709.209C585.613 710.806 585.546 714.966 585.141 724.952L584.421 749.691C580.329 749.916 576.687 741.797 571.74 741.64C570.151 741.656 568.588 742.05 567.181 742.789C565.773 743.528 564.562 744.591 563.646 745.89C562.508 747.341 561.612 748.967 560.993 750.703C559.634 754.557 559.431 758.723 560.408 762.691C560.875 764.468 561.635 766.156 562.657 767.683C563.497 769.052 564.651 770.201 566.023 771.034C567.396 771.867 568.947 772.361 570.549 772.474C575.248 772.631 579.834 765.457 584.039 766.087L583.432 786.935C583.117 797.528 583.162 801.779 585.411 803.466C587.659 805.152 592.156 804.32 600.52 804.343L620.261 804.5C619.564 799.417 615.179 794.132 615.202 788.51C615.202 779.986 620.418 773.126 626.736 773.171C633.054 773.216 638.27 779.918 638.405 788.397C638.518 794.492 633.796 799.485 632.964 804.455L653.852 804.073C661.676 804.073 665.813 804.703 667.949 803.151C670.085 801.599 670.198 797.618 669.973 787.722C669.816 780.413 669.613 773.216 669.343 766.042C673.84 763.545 678.877 772.092 684.025 771.867C685.625 771.749 687.172 771.245 688.534 770.399C689.897 769.553 691.034 768.39 691.85 767.009C693.858 763.678 694.763 759.797 694.436 755.921C694.255 752.043 692.872 748.317 690.478 745.261C689.542 743.973 688.315 742.924 686.896 742.201C685.478 741.478 683.909 741.101 682.317 741.1C676.92 741.325 673.188 751.041 668.601 748.972C668.219 740.358 667.769 731.744 667.275 722.95C666.78 714.157 666.42 710.333 664.644 708.871C663.476 708.128 662.079 707.832 660.71 708.039C659.81 708.039 658.776 708.039 657.562 708.242C656.348 708.444 655.066 708.377 653.515 708.399Z" fill="#6CA3AE"/>
<path fill-rule="evenodd" clip-rule="evenodd" d="M734.525 703.384L717.527 704.98L707.724 705.655L697.988 706.307C693.941 706.577 688.725 707.049 681.058 707.297C666.825 707.927 666.893 704.576 667.702 724.502L668.691 749.039C673.188 750.838 676.921 741.325 682.182 741.1C683.77 741.104 685.335 741.483 686.749 742.206C688.163 742.929 689.387 743.975 690.321 745.26C692.671 748.351 694.05 752.071 694.282 755.948C694.514 759.824 693.589 763.682 691.625 767.031C690.806 768.416 689.665 769.582 688.299 770.432C686.933 771.281 685.382 771.789 683.778 771.911C678.697 772.136 673.66 763.77 669.276 765.974L670.108 786.553C670.962 807.694 671.569 803.51 688.41 802.791L693.761 802.543L698.258 802.228L705.34 801.756L714.896 801.081L724.542 800.429C725.531 800.429 726.633 800.272 727.824 800.137L741.652 798.855C757.233 797.37 758.493 801.104 756.581 781.515C755.884 774.115 755.12 766.806 754.333 759.542C750.331 760.014 746.891 767.144 742.372 767.571C736.054 768.178 730.32 761.791 729.533 753.312C728.746 744.833 733.108 737.456 739.224 736.894C743.968 736.422 748.555 743.506 752.489 743.281C751.478 734.6 750.398 725.919 749.252 717.058C747.093 699.47 746.868 702.214 734.525 703.384Z" fill="#E8AD30"/>
<path fill-rule="evenodd" clip-rule="evenodd" d="M814.748 692.769L804.247 694.59L793.68 696.12C795.344 700.123 800.088 703.676 800.92 708.782C802.134 716.181 798.199 722.928 792.129 723.805C786.058 724.682 780.28 719.307 779.245 711.953C778.571 707.23 781.719 702.237 781.921 697.852L778.796 698.301L775.558 698.774L771.871 699.201L761.775 700.415C747.655 702.125 747.475 698.796 749.724 718.61L752.534 743.349C748.51 744.136 743.766 736.602 738.842 737.007C732.726 737.569 728.386 744.924 729.151 753.425C729.915 761.926 735.671 768.291 741.967 767.706C746.644 767.256 750.173 759.587 754.378 759.655L756.626 780.391C759.01 801.419 759.324 797.214 776.075 795.189L785.901 793.997L789.521 793.548L792.668 793.098L795.726 792.648C794.287 787.723 789.183 783.157 788.396 777.602C787.227 769.146 791.319 761.566 797.57 760.644C803.82 759.722 810.026 765.817 811.397 774.138C812.364 780.143 808.407 785.721 808.317 790.714L818.66 789.207C819.964 789.027 821.245 788.802 822.46 788.6L825.765 788.015L828.98 787.475C844.426 784.799 845.955 788.555 842.605 769.056C841.346 761.836 840.087 754.752 838.783 747.69C842.808 744.699 849.103 752.345 854.14 751.356C860.368 750.119 863.965 742.36 862.144 734.038C860.323 725.717 854.005 719.914 847.979 721.106C845.326 721.624 843.482 724.435 841.638 726.931C839.795 729.428 837.996 731.587 835.59 730.867C833.949 722.411 832.24 713.932 830.441 705.296C826.934 688.001 826.934 690.677 814.748 692.769Z" fill="#CF4745"/>
<path fill-rule="evenodd" clip-rule="evenodd" d="M894.026 676.373L888.877 677.678L886.629 678.262L884.515 678.735L877.523 680.309L867.989 682.558L863.672 683.525L861.244 684.065L859.918 684.357L858.479 684.65L841.908 687.933C838.445 688.63 835.792 688.945 833.859 689.328C831.925 689.71 830.666 690.115 829.991 691.082C828.597 693.016 829.407 697.087 831.295 706.825L835.792 730.957C840.581 732.217 842.807 722.163 848.046 721.151C854.072 719.959 860.412 725.649 862.211 734.083C864.01 742.517 860.435 750.164 854.207 751.401C849.215 752.368 842.965 744.946 838.985 747.622L842.83 767.864C846.787 788.622 846.832 784.596 863.403 781.358L880.131 777.962L889.507 775.87L898.927 773.756L905.943 772.159L910.439 771.147L915.701 769.82C930.922 765.997 932.743 769.595 927.864 750.411C926.021 743.192 924.177 736.085 922.288 729.023C918.399 730.035 916.083 737.659 911.698 738.761C910.116 739.1 908.475 739.059 906.912 738.641C905.349 738.222 903.907 737.439 902.705 736.355C899.752 733.784 897.69 730.343 896.814 726.527C895.821 722.775 896.009 718.809 897.354 715.169C897.863 713.671 898.722 712.316 899.86 711.216C900.998 710.117 902.382 709.306 903.896 708.849C908.393 707.702 914.104 713.977 917.971 713.19C915.723 704.778 913.25 696.322 910.754 687.731C905.785 670.616 906.01 673.36 894.026 676.373Z" fill="#2A375F"/>
<path fill-rule="evenodd" clip-rule="evenodd" d="M971.934 654.041L968.786 655.098L965.571 656.155L963.749 656.762L951.698 660.45C953.946 664.139 959.185 666.972 960.804 671.875C963.052 679.005 960.332 686.269 954.464 688.068C952.999 688.483 951.459 688.56 949.96 688.296C948.461 688.031 947.041 687.43 945.807 686.539C942.963 684.494 940.882 681.557 939.894 678.195C938.522 673.697 940.861 668.322 940.389 663.914L939.557 664.184L937.308 664.813L930.563 666.68L920.827 669.401C917.41 670.346 914.802 670.863 912.913 671.38C911.024 671.898 909.788 672.393 909.181 673.405C907.944 675.429 909.181 679.432 911.721 689.148L918.264 713.123C914.397 714.494 908.574 707.702 903.785 708.917C902.27 709.362 900.886 710.168 899.751 711.264C898.616 712.361 897.762 713.716 897.264 715.214C896.596 716.917 896.209 718.717 896.118 720.544C895.909 724.636 896.918 728.699 899.018 732.217C899.965 733.803 901.174 735.218 902.593 736.4C903.792 737.489 905.234 738.275 906.798 738.694C908.362 739.113 910.004 739.151 911.586 738.806C916.083 737.659 918.444 729.518 922.604 728.978L928.112 749.219C930.9 759.43 932.204 763.501 934.857 764.49C935.582 764.727 936.351 764.796 937.106 764.693C937.582 764.647 938.055 764.572 938.522 764.468C939.039 764.355 939.579 764.198 940.164 764.018C942.412 763.298 945.537 762.196 949.607 761.049L959.163 758.395L965.706 756.551L967.954 755.922L968.741 755.472C967.369 753.049 965.683 750.818 963.727 748.837C961.709 746.775 960.139 744.317 959.118 741.618C957.909 737.921 957.909 733.935 959.118 730.238C959.575 728.686 960.394 727.264 961.509 726.091C962.623 724.918 964 724.027 965.526 723.491C971.574 721.646 978.634 726.729 981.265 734.736C983.176 740.538 980.118 746.633 980.792 751.603L991.023 748.725L994.688 747.578L997.97 746.476L1001.07 745.441C1015.96 740.471 1018.05 743.934 1011.64 725.2C1009.28 718.25 1006.92 711.436 1004.49 704.644C1008.02 701.09 1015.44 707.702 1020.23 705.948C1026.19 703.699 1028.5 695.58 1025.4 687.641C1022.3 679.702 1015.08 674.912 1009.32 676.981C1004.27 678.802 1003.68 689.26 998.645 688.518C995.677 680.399 992.641 672.28 989.516 664.004C983.176 647.518 983.603 650.127 971.934 654.041Z" fill="#6CA3AE"/>
<path fill-rule="evenodd" clip-rule="evenodd" d="M1047.32 625.927L1038.33 629.706L1036.48 630.493L1034.75 631.145L1031.69 632.337L1022.7 635.89L1013.71 639.399C1009.95 640.816 1005.05 642.548 997.969 645.156C994.664 646.348 992.1 647.046 990.257 647.72C988.413 648.395 987.244 648.98 986.704 649.969C985.648 652.083 987.109 655.974 990.504 665.398L998.846 688.54C1003.77 689.057 1004.38 678.802 1009.39 677.003C1015.15 674.934 1022.34 679.679 1025.44 687.663C1028.55 695.647 1026.25 703.811 1020.3 705.97C1015.51 707.679 1008.2 701.27 1004.56 704.531L1011.46 723.985C1018.63 743.911 1018.02 739.908 1033.94 734.106L1043.27 730.732C1045.88 729.787 1048.09 729.023 1050.02 728.281L1068.01 721.264C1069.9 720.521 1072.1 719.689 1074.75 718.632L1083.99 714.764C1098.45 708.691 1100.83 711.975 1092.99 693.803C1089.99 686.936 1086.99 680.189 1083.99 673.562C1080.31 675.181 1079.25 683.008 1075 684.807C1069.18 687.258 1061.71 682.873 1058.36 675.024C1055.01 667.175 1056.85 658.853 1062.5 656.492C1066.86 654.647 1073.43 660 1077.11 658.741C1073.45 650.779 1069.72 642.817 1065.87 634.721C1057.98 618.505 1058.68 621.159 1047.32 625.927Z" fill="#E8AD30"/>
<path fill-rule="evenodd" clip-rule="evenodd" d="M1119.92 592.034L1110.52 596.825L1104.07 600.131L1101.08 601.57C1102.78 603.268 1104.66 604.776 1106.68 606.068C1108.83 607.417 1110.64 609.26 1111.94 611.443C1112.78 613.039 1113.35 614.765 1113.63 616.549C1113.93 618.169 1113.93 619.832 1113.63 621.452C1113.36 622.929 1112.75 624.324 1111.84 625.526C1110.94 626.728 1109.78 627.704 1108.43 628.379C1102.95 631.01 1095.77 627.659 1092.45 620.889C1090.33 616.594 1091.75 610.926 1090.56 606.698L1081.56 611.016L1072.39 615.154C1059.55 620.912 1058.34 617.786 1066.66 636.003L1077 658.673C1073.4 660.585 1066.52 654.782 1062 656.671C1056.36 659.055 1054.52 667.332 1057.87 675.203C1061.22 683.075 1068.66 687.461 1074.5 685.009C1078.82 683.21 1079.81 674.821 1083.84 673.764L1092.4 692.678C1101.22 712.02 1100.2 707.904 1115.63 700.977L1118.46 699.718L1124.62 696.996L1133.61 692.723C1130.69 688.45 1124.35 685.639 1121.86 680.579C1118.08 672.887 1119.61 664.453 1125.32 661.732C1126.82 661.089 1128.44 660.804 1130.07 660.897C1131.7 660.991 1133.28 661.461 1134.69 662.271C1136.36 663.104 1137.88 664.206 1139.19 665.533C1140.64 666.99 1141.86 668.658 1142.81 670.48C1144.04 673.188 1144.61 676.147 1144.47 679.117C1144.32 681.832 1144.53 684.555 1145.1 687.213L1148.07 685.796L1154.48 682.535L1163.81 677.767C1167.32 675.991 1170.11 674.844 1172.15 673.854C1173.76 673.257 1175.14 672.191 1176.13 670.795C1177.35 668.434 1175.64 664.835 1170.92 656.087C1167.43 649.609 1163.95 643.267 1160.44 636.947C1163.27 632.787 1171.68 638.229 1176.18 635.778C1177.55 634.958 1178.7 633.81 1179.53 632.437C1180.35 631.063 1180.82 629.506 1180.9 627.906C1181.19 624.022 1180.24 620.147 1178.18 616.841C1176.21 613.43 1173.26 610.7 1169.7 609.014C1168.28 608.316 1166.72 607.953 1165.14 607.953C1163.56 607.953 1161.99 608.316 1160.57 609.014C1155.87 611.556 1156.98 621.879 1151.92 622.014C1147.65 614.48 1143.31 606.968 1138.85 599.299C1134.4 591.63 1132.31 588.391 1130.06 587.851C1128.7 587.679 1127.32 588.016 1126.2 588.796L1123.47 590.28C1122.46 590.707 1121.29 591.292 1119.92 592.034Z" fill="#CF4745"/>
<path fill-rule="evenodd" clip-rule="evenodd" d="M1189.38 552.294C1187.78 553.306 1186.32 554.273 1184.88 555.128L1181.03 557.377L1174.99 561.043L1166.73 566.058C1164.33 567.497 1161.86 568.869 1158.42 570.871L1152.32 574.357L1148.45 576.606C1147.06 577.416 1145.58 578.293 1143.96 579.17C1131.64 585.917 1130.15 582.836 1140 600.311L1152.1 621.834C1156.98 621.474 1155.94 611.354 1160.6 608.835C1162.02 608.136 1163.58 607.773 1165.16 607.773C1166.74 607.773 1168.3 608.136 1169.72 608.835C1173.28 610.52 1176.24 613.25 1178.2 616.661C1180.26 619.967 1181.21 623.843 1180.92 627.727C1180.85 629.327 1180.38 630.883 1179.55 632.257C1178.73 633.63 1177.58 634.778 1176.2 635.598C1171.7 638.005 1163.38 632.742 1160.46 636.633L1170.62 654.625C1181.06 673.179 1179.62 669.176 1194.57 661.102C1208.06 653.388 1212.83 650.667 1217.66 647.833L1225.93 643.02L1232.1 639.286L1238.26 635.531L1240.64 634.024C1253.86 625.545 1256.78 628.401 1245.81 611.781C1241.67 605.529 1237.58 599.366 1233.44 593.271C1230.09 595.52 1230.43 603.415 1226.7 605.866C1225.35 606.724 1223.8 607.199 1222.2 607.238C1221.4 607.286 1220.59 607.233 1219.8 607.08C1218.95 606.935 1218.12 606.701 1217.32 606.383C1213.67 604.862 1210.59 602.246 1208.49 598.894C1206.31 595.68 1205.2 591.866 1205.29 587.986C1205.34 587.16 1205.46 586.34 1205.65 585.535C1205.84 584.758 1206.11 584.004 1206.46 583.286C1207.12 581.921 1208.14 580.763 1209.41 579.935C1213.39 577.393 1220.65 581.576 1224.14 579.62C1219.14 572.378 1214.09 565.136 1208.89 557.804C1198.5 543.185 1199.63 545.704 1189.38 552.294Z" fill="#2A375F"/>
<path fill-rule="evenodd" clip-rule="evenodd" d="M1254.94 506.684L1246.6 512.981L1240.8 517.299C1240.03 517.884 1239.36 518.334 1238.89 518.671L1238.14 519.211C1240.13 520.574 1242.24 521.727 1244.46 522.652C1246.83 523.641 1248.93 525.183 1250.58 527.15C1252.77 529.855 1253.96 533.23 1253.95 536.709C1253.95 538.202 1253.61 539.676 1252.94 541.011C1252.27 542.347 1251.3 543.508 1250.11 544.4C1245.16 547.931 1237.54 545.817 1233.06 539.722C1230.23 535.831 1230.59 530.029 1228.57 526.071L1226.03 527.87C1224.5 528.949 1222.5 530.434 1220.4 531.806L1212.15 537.383C1209.25 539.34 1206.98 540.644 1205.41 541.724C1203.83 542.803 1202.82 543.658 1202.6 544.828C1202.1 547.077 1204.51 550.54 1210.2 558.839L1224.34 579.463C1221.12 581.959 1213.37 577.371 1209.25 580.025C1207.98 580.839 1206.96 581.991 1206.31 583.353C1205.96 584.071 1205.7 584.825 1205.52 585.602C1205.31 586.397 1205.18 587.211 1205.14 588.031C1205.05 591.91 1206.17 595.72 1208.33 598.939C1210.43 602.291 1213.52 604.908 1217.17 606.428C1217.97 606.743 1218.8 606.984 1219.64 607.148C1220.44 607.279 1221.26 607.332 1222.07 607.305C1223.66 607.248 1225.22 606.767 1226.56 605.911C1230.5 603.392 1230 594.958 1233.76 593.114L1245.65 610.454C1257.68 628.019 1256.09 624.308 1270.07 614.772L1279.81 608.183L1281.27 607.036L1283.85 605.191L1286.39 603.392C1282.75 599.704 1276.01 598.017 1272.66 593.429C1267.58 586.502 1267.6 577.911 1272.66 574.267C1274.03 573.373 1275.58 572.81 1277.21 572.623C1278.83 572.435 1280.47 572.629 1282.01 573.188C1285.78 574.41 1289.08 576.766 1291.45 579.935C1293.15 582.38 1294.23 585.194 1294.62 588.144C1294.96 590.855 1295.66 593.509 1296.69 596.038L1299.37 594.126L1305.12 589.786L1313.53 583.466C1315.03 582.296 1316.45 581.284 1317.78 580.43C1319.04 579.575 1320.03 578.788 1321.02 578.181C1322.51 577.312 1323.69 576.009 1324.42 574.447C1325.18 571.928 1322.84 568.69 1316.59 560.953C1311.98 555.196 1307.4 549.551 1302.79 543.95C1303.8 541.701 1306.65 541.477 1309.76 541.477C1312.86 541.477 1316.23 541.656 1318.16 540.015C1323.02 535.944 1322.32 527.443 1316.61 521.01C1310.9 514.578 1302.49 512.487 1297.84 516.377C1295.82 518.109 1295.59 521.37 1295.12 524.406C1294.65 527.443 1294.22 530.164 1291.75 530.659C1286.17 523.912 1280.5 517.344 1274.7 510.597C1268.9 503.85 1266.29 500.994 1263.98 500.837C1262.62 500.91 1261.34 501.469 1260.36 502.411C1259.66 502.951 1258.9 503.603 1258 504.368C1257.1 505.132 1256.13 505.829 1254.94 506.684Z" fill="#6CA3AE"/>
<path fill-rule="evenodd" clip-rule="evenodd" d="M1315.15 455.676L1308.11 462.221L1305.37 464.762C1304.52 465.549 1303.71 466.246 1302.97 466.899L1295.82 473.196L1292.58 476.03L1290.76 477.649L1289.74 478.526L1288.67 479.426L1275.98 490.019L1274.1 491.548L1272.39 492.83C1271.31 493.595 1270.39 494.269 1269.64 494.877C1268.12 496.069 1267.26 497.013 1267.13 498.183C1266.88 500.432 1269.6 503.715 1276.12 511.452L1291.86 530.524C1294.22 529.939 1294.69 527.195 1295.07 524.204C1295.22 522.688 1295.47 521.185 1295.84 519.706C1296.01 519.034 1296.26 518.384 1296.58 517.772C1296.88 517.181 1297.29 516.655 1297.79 516.22C1302.45 512.329 1310.86 514.421 1316.57 520.853C1322.28 527.285 1322.98 535.809 1318.12 539.857C1316.21 541.499 1312.86 541.319 1309.8 541.342C1306.74 541.364 1303.91 541.476 1302.81 543.591L1316.1 559.581C1322.84 567.79 1325.83 570.984 1328.69 570.826C1330.49 570.46 1332.14 569.55 1333.41 568.217C1334.35 567.43 1335.41 566.486 1336.65 565.406C1337.88 564.327 1339.25 563.157 1340.9 561.718L1354.05 550.81C1357.11 548.156 1359.18 546.312 1361.29 544.445C1365.47 540.712 1369.86 537.136 1381.34 526.453C1384.22 523.777 1386.61 521.955 1388.34 520.381C1389.72 519.352 1390.76 517.935 1391.33 516.31C1391.84 513.701 1389.19 510.71 1382.15 503.58C1376.87 498.205 1371.63 492.965 1366.42 487.837C1365 489.254 1364.77 491.908 1364.5 494.584C1364.5 495.259 1364.37 495.934 1364.26 496.608C1364.17 497.24 1364.04 497.865 1363.85 498.475C1363.57 499.557 1363 500.543 1362.21 501.331C1360.99 502.377 1359.54 503.125 1357.98 503.515C1356.42 503.905 1354.79 503.928 1353.22 503.58C1349.4 502.708 1345.91 500.746 1343.19 497.931C1340.46 495.116 1338.61 491.571 1337.86 487.725C1337.53 486.205 1337.59 484.628 1338.03 483.136C1338.46 481.643 1339.26 480.283 1340.36 479.178C1342.07 477.582 1344.85 477.514 1347.73 477.424C1350.61 477.334 1353.26 477.424 1354.7 476.12C1348.38 469.957 1342 463.818 1335.43 457.588C1328.87 451.358 1326.06 448.862 1323.76 448.929C1322.43 449.126 1321.21 449.806 1320.35 450.841L1318.1 453.09C1317.24 453.742 1316.25 454.664 1315.15 455.676Z" fill="#E8AD30"/>
<path fill-rule="evenodd" clip-rule="evenodd" d="M1645.42 602.564C1645.28 598.379 1639.6 598.627 1635.66 597.704C1575.51 583.844 1515.43 563.955 1457.95 541.455C1447.23 537.27 1447.59 543.998 1453.46 546.338C1503.59 566.49 1554.95 583.444 1607.23 597.097C1611.93 598.312 1641.31 606.344 1643.71 605.242C1644.23 605.001 1644.66 604.624 1644.98 604.153C1645.3 603.681 1645.48 603.132 1645.51 602.564H1645.42ZM761.587 819.505C577.268 835.255 406.098 814.128 226.814 770.974C208.652 766.609 190.543 762.004 172.485 757.159C132.475 746.427 93.0483 734.367 54.0042 720.484C46.7213 717.874 47.6879 724.309 49.5086 725.434C54.3638 728.404 111.795 746.292 121.438 749.194C236.705 783.596 369.819 811.405 489.559 823.443C674.53 842.14 873.459 827.515 1049.01 764.224C1165.9 721.699 1276.35 659.038 1368.67 574.935C1375.03 569.152 1416.3 530.633 1416.12 525.435C1416.12 522.893 1412.53 522.038 1410.37 524.04C1400.66 533.04 1390.72 545.1 1380.61 554.865C1292.94 639.598 1178.06 709.032 1064.27 751.961C967.035 788.748 864.94 810.438 761.542 819.505H761.587Z" fill="#E9EBEC"/>
<path fill-rule="evenodd" clip-rule="evenodd" d="M733.901 683.365C562.171 697.148 405.598 674.834 240.367 628.634C202.005 617.836 164.138 605.534 126.945 591.235C119.817 588.496 119.57 594.916 122.808 596.263C149.792 607.488 184.174 618.375 212.394 626.883C413.536 687.113 626.145 714.232 834.46 676.832C997.375 646.795 1152.62 576.755 1279.4 469.899C1291.07 460.066 1284.86 457.328 1279.04 461.683C1265.55 471.785 1252.73 483.638 1238.83 494.166C1090.9 606.298 918.492 667.74 733.901 683.365Z" fill="#2A375F"/>
<path fill-rule="evenodd" clip-rule="evenodd" d="M1189.82 38.6583C1075.54 154.898 1150.45 329.482 1257.03 420.652C1258.92 422.275 1269.38 431.226 1269.6 424.259C1269.6 421.013 1254.37 409.245 1250.92 406.043C1191.47 351.351 1146.21 275.804 1139.58 193.877C1134.96 132.489 1155.15 78.9003 1200.39 37.1028C1205.16 32.5939 1200.97 27.0028 1193.51 34.9836C1192.24 36.2912 1191.12 37.3958 1189.82 38.6583Z" fill="#2A375F"/>
<path fill-rule="evenodd" clip-rule="evenodd" d="M1423.34 139.281C1465.72 211.833 1424.25 274.272 1427.64 282.336C1429.92 287.854 1434.68 277.831 1435.44 275.578C1447.06 241.003 1453.28 211.428 1444.94 175.231C1441.59 161.423 1431.84 137.795 1422.58 127.231C1420.08 124.393 1413.15 125.406 1420.31 134.822C1421.4 136.248 1422.41 137.738 1423.34 139.281Z" fill="#2A375F"/>
<path fill-rule="evenodd" clip-rule="evenodd" d="M1459.42 421.415L1454.77 419.166L1450.86 417.141L1444.69 413.97L1436.38 409.472C1431.56 406.796 1426.71 404.232 1414.12 396.743C1411.22 394.966 1409.15 393.504 1407.55 392.515C1406.46 391.592 1405.04 391.139 1403.62 391.255C1401.37 391.772 1399.12 395.281 1393.45 403.647L1379.78 424.248C1381.09 426.25 1383.9 425.845 1386.93 425.26C1389.97 424.676 1393.23 423.889 1395.48 425.26C1396.75 426.049 1397.8 427.168 1398.49 428.499C1399.23 429.93 1399.67 431.5 1399.77 433.11C1399.89 437.01 1398.87 440.86 1396.83 444.184C1394.78 447.509 1391.81 450.164 1388.28 451.821C1386.73 452.479 1385.06 452.815 1383.38 452.811C1381.8 452.777 1380.25 452.336 1378.88 451.529C1376.64 450.202 1375.76 447.031 1374.79 444.31C1373.83 441.588 1372.79 438.867 1370.3 438.507L1358.83 455.78C1352.94 464.663 1350.71 468.329 1351.84 470.938C1352.8 472.544 1354.24 473.815 1355.95 474.582C1358.2 475.819 1361.1 477.325 1364.94 479.574C1368.34 481.599 1371.24 483.24 1373.69 484.68L1377.11 486.659L1380.03 488.278C1383.63 490.28 1386.1 491.697 1388.62 493.046L1397.32 497.702C1399.14 498.714 1401.3 499.771 1403.84 501.098C1406.38 502.425 1409.37 503.976 1412.97 505.708C1416.57 507.44 1419.18 509.059 1421.22 510.206C1422.69 511.158 1424.41 511.659 1426.17 511.646C1428.84 511.263 1430.87 507.822 1435.43 499.006C1438.87 492.259 1442.18 485.782 1445.5 479.215C1443.13 478.653 1440.64 478.809 1438.35 479.664C1435.95 480.533 1433.33 480.589 1430.89 479.822C1429.47 479.074 1428.25 477.987 1427.35 476.657C1426.45 475.327 1425.89 473.796 1425.72 472.198C1425.22 468.304 1426.01 464.355 1427.97 460.953C1429.76 457.466 1432.58 454.61 1436.04 452.766C1437.41 451.967 1438.95 451.502 1440.54 451.408C1442.12 451.315 1443.71 451.595 1445.17 452.226C1447.28 453.238 1448.31 455.87 1449.28 458.411C1450.25 460.953 1451.13 463.516 1452.86 464.416C1456.7 456.544 1460.52 448.673 1464.39 440.531C1468.26 432.39 1469.7 429.016 1468.89 426.902C1468.24 425.729 1467.18 424.834 1465.92 424.383C1464.21 423.596 1462.1 422.719 1459.42 421.415Z" fill="#6CA3AE"/>
</svg>
